/* XPM */
static char *_8a932d63d714647b2dfca6bb6c42fce[] = {
/* columns rows colors chars-per-pixel */
"64 64 233 2 ",
"   c None",
".  c #030303",
"X  c #0B0B0B",
"o  c #180915",
"O  c #141414",
"+  c #1C1C1C",
"@  c #1D1318",
"#  c #23021E",
"$  c #2E0A2B",
"%  c #280424",
"&  c #310B2E",
"*  c #350E32",
"=  c #371033",
"-  c #391236",
";  c #3B163A",
":  c #242424",
">  c #2B2B2B",
",  c #333434",
"<  c #393939",
"1  c #302F30",
"2  c #41193E",
"3  c #3C194B",
"4  c #3B1E54",
"5  c #352557",
"6  c #362F52",
"7  c #4C074B",
"8  c #451A46",
"9  c #5A0854",
"0  c #461754",
"q  c #5C175A",
"w  c #4B0F50",
"e  c #63055C",
"r  c #640C5C",
"t  c #462349",
"y  c #472958",
"u  c #573558",
"i  c #502B55",
"p  c #561D63",
"a  c #6B0762",
"s  c #691464",
"d  c #731268",
"f  c #472C63",
"g  c #582864",
"h  c #553A6A",
"j  c #483668",
"k  c #682668",
"l  c #73266D",
"z  c #663765",
"x  c #703B6D",
"c  c #672A72",
"v  c #792672",
"b  c #6A3777",
"n  c #7B3778",
"m  c #60335C",
"M  c #3F4040",
"N  c #4C4C4C",
"B  c #444444",
"V  c #5B5B5B",
"C  c #545454",
"Z  c #57484D",
"A  c #794E56",
"S  c #5B4C72",
"D  c #674764",
"F  c #7A4777",
"G  c #745575",
"H  c #6E5071",
"J  c #6A6B6B",
"K  c #646464",
"L  c #737373",
"P  c #7C7C7C",
"I  c #7C657F",
"U  c #881A74",
"Y  c #801A6F",
"T  c #872879",
"R  c #93267D",
"E  c #86377D",
"W  c #94317D",
"Q  c #85467E",
"!  c #81597D",
"~  c #7E3780",
"^  c #376983",
"/  c #794682",
"(  c #775986",
")  c #7C5992",
"_  c #6F5089",
"`  c #9B2B82",
"'  c #893A83",
"]  c #9C3484",
"[  c #993A88",
"{  c #963789",
"}  c #A12C86",
"|  c #AC3B8C",
" . c #A63A89",
".. c #B23F8F",
"X. c #884688",
"o. c #96478B",
"O. c #855485",
"+. c #875987",
"@. c #964993",
"#. c #8A5596",
"$. c #975697",
"%. c #9D508E",
"&. c #A5488D",
"*. c #AC4B91",
"=. c #B74593",
"-. c #A55995",
";. c #B35296",
":. c #A9498E",
">. c #8B678B",
",. c #90628E",
"<. c #876697",
"1. c #976896",
"2. c #887492",
"3. c #987799",
"4. c #A36A9B",
"5. c #A17E9E",
"6. c #B2689E",
"7. c #9B78A2",
"8. c #906CA1",
"9. c #A878A4",
"0. c #B57AA8",
"q. c #A96FA2",
"w. c #C14C9A",
"e. c #408C9E",
"r. c #6F90A3",
"t. c #6B99AB",
"y. c #878787",
"u. c #9C849E",
"i. c #949495",
"p. c #A18A9E",
"a. c #988CA6",
"s. c #A583A6",
"d. c #AB8BAB",
"f. c #A886A8",
"g. c #B388AD",
"h. c #AA96A9",
"j. c #AB8DB3",
"k. c #AE91B2",
"l. c #B394B3",
"z. c #B39AB4",
"x. c #B79BB9",
"c. c #BB9CBA",
"v. c #B996B6",
"b. c #B48DB2",
"n. c #ABAAAC",
"m. c #A2A2A3",
"M. c #BCA2BE",
"N. c #B8A8B7",
"B. c #BAB6BA",
"V. c #BAB9BA",
"C. c #9AACBB",
"Z. c #C1989E",
"A. c #C197B9",
"S. c #C2ACBE",
"D. c #C2A5BE",
"F. c #EFB2B9",
"G. c #AE9DC2",
"H. c #BDA4C1",
"J. c #B7A7C9",
"K. c #BDB6CD",
"L. c #C1A6C3",
"P. c #C3AAC4",
"I. c #C4ADCA",
"U. c #C9AAC4",
"Y. c #C6B1C3",
"T. c #CAB4C7",
"R. c #C6B1CC",
"E. c #CAB4CC",
"W. c #CDBBCB",
"Q. c #C9BAC6",
"!. c #D0BECE",
"~. c #D4BACA",
"^. c #C2B5D3",
"/. c #C9B6D1",
"(. c #C5B9D6",
"). c #CCBBD4",
"_. c #CABED9",
"`. c #D0BFD1",
"'. c #D2AECB",
"]. c #B4D1DA",
"[. c #93C3CD",
"{. c #C5C3C5",
"}. c #C9C5C9",
"|. c #C7CACC",
" X c #D3C2CE",
".X c #DDC4CC",
"XX c #CDC3DD",
"oX c #CFC0D5",
"OX c #D4C4D5",
"+X c #D9C4D6",
"@X c #D9CAD6",
"#X c #D2C4DA",
"$X c #D7C8DB",
"%X c #DACCDC",
"&X c #D4CBD4",
"*X c #DDD2DC",
"=X c #DDDADD",
"-X c #D6D3D6",
";X c #C8D4D9",
":X c #E1D5DF",
">X c #E4D9DD",
",X c #D5CBE3",
"<X c #D9CDE1",
"1X c #D0C7E1",
"2X c #DDD2E5",
"3X c #DFD6E8",
"4X c #CAD9E2",
"5X c #E1D5E2",
"6X c #E5DBE4",
"7X c #E8DDE6",
"8X c #E0D6E8",
"9X c #E4DCEC",
"0X c #E9DFE9",
"qX c #ECE3EB",
"wX c #EEE9EE",
"eX c #E6E1E9",
"rX c #F0EAEF",
"tX c #EBE4F1",
"yX c #EEE9F3",
"uX c #E7E0F0",
"iX c #F1EDF6",
"pX c #F1EDF3",
"aX c #F5F2F6",
"sX c #F5F3F9",
"dX c #F8F7FA",
"fX c #F9F6F9",
"gX c #FAFAFC",
"hX c #FDFDFE",
"jX c white",
"kX c #FEFEFF",
"lX c #FDFEFE",
"zX c #FDFDFE",
"xX c #F8F5F7",
/* pixels */
"              zXaXqX6X*X%X%X%X%X%X%X2X5X7XqXaXgX                                                                                ",
"          gXqX%XOXOX$X<X2X3X8X3X3X3X8X8X8X3X8X7XpX                                                                              ",
"          eXY.).).#X%X2X8X8X9X9X9X8X8X8X8X8X8X8X%XqXaXgX                                                                        ",
"          :XR.R.R./.#X3X9X9XuXuXuX9X9X9X9X9X9X9X9X9X7X7XwXaXgX                                                                  ",
"          5XP.L.L.I./.<XqXtXtXyXyXtXtXtXtXtXtXuXtXtXyXtXqXqXqXqXpXxX                                                            ",
"        gXOXP.H.H.L.R.#XqXiXsXsXsXaXiXiXiXiXiXiXiXiXsXsXsXsXaXpXqX7XqXgX                                                        ",
"        qXR.I.L.H.L.I.$XtXsXgXgXgXgXgXgXgXsXsXfXgXgXgXgXgXgXgXgXgXfXwXqXaX                                                      ",
"      fXOX).R.I.P.P.E.2XyXfXhXzXzXzXzXzXzXzXzXzXzXzXzXzXzXzXzXzXzXzXzXaXqXaX                                                    ",
"      7X).)./.R.I.R.#X9XiXfXzXzXzXzXzXzXzXzXzXzXzXzXzXzXzXzXzXzXzXzXzXzXfXqXwX                                                  ",
"    aX$X#X).).)./.).2XtXiXsXzXzXzXzXzXzXzXzXzXzXzXzXzXzXzXzXzXzXzXzXzXzXzXaXqXn.                                                ",
"  gX:X#X#X).).).#X<X9XyXiXfXzXzXzXzXzXzXzXzXzXzXzXzXzXzXzXzXzXzXzXzXzXzXzXzXrX=XB                                               ",
"  qXOX$X#X#X#X#X<X8XuXyXsXgXzXzXzXzXzXzXzXzXzXzXzXzXzXzXzXzXzXzXzXzXzXzXhXzXaXrXL .                                             ",
"fX%X#X#X#X#X#X,X2X9XuXyXsXgXzXzXzXzXzXzXzXzXzXzXzXzXzXzXzXzXzXzXzXzXzXgXsXsXfXqXn.O                                             ",
"rXOX#X).).).#X%X3X9XtXiXsXhXzXzXzXzXzXzXzXzXzXzXzXzXzXzXzXzXzXzXzXgXsX7X@X*XiXqX=X>                                             ",
"qXOX).E.E./.).#X2X9XtXiXsXzXzXzXzXzXzXzXzXzXzXzXzXzXzXzXzXzXzXzXgXqXT.5.x.OX7XqXqXV .                                           ",
"qXoXE.P.L.L.I./.$X9XtXiXsXzXzXzXzXzXzXzXzXzXzXzXzXzXzXzXzXzXzXxX%Xd.,.O.1.Y.%XqXqXi..                                           ",
"qXOXI.H.x.x.c.I.$X9XyXiXsXzXzXzXzXzXzXzXzXzXzXzXzXzXzXzXzXzXqXS.3.1.1.1.1.d.W.8X7X{.O                                           ",
"qXOXI.M.x.x.x.I.<XuXyXiXsXzXzXzXzXzXzXzXzXzXzXzXzXzXzXzXpX!.d.3.3.s.3.+.7.9.S.%X5X6X<                                           ",
"qXOXI.M.x.x.c.E.3XuXyXiXsXgXzXzXzXzXzXzXzXzXzXzXzXzXgX:Xx.9.7.f.l.x.x.x +.s.k.OX5XqXL .                                         ",
"qXOXR.H.x.x.H.).8XuXyXiXsXgXzXzXzXzXzXzXzXzXzXzXzXwXT.d.7.f.l.M.P.E.OXO.q 3.d.P.%X6Xn.X                                         ",
"wXOXR.H.M.M.I.$X9XuXyXiXsXgXzXzXzXzXzXzXzXzXzXfX%Xz.s.s.l.M.E.OX%X8XqX1.e X.k.d.W.%X6X<                                         ",
"pXOX/.L.L.L.R.<X9XuXtXyXsXgXgXzXzXzXzXzXzXzXwXY.s.s.k.M.W.%X7XqXiXsXaX$.U T f.k.d.W.0Xy.X                                       ",
"aX$X).P.L.P.).<X9XtXtXyXsXsXgXzXzXzXzXzXgX:Xz.s.d.x.E.%X7XpXsXgXgXzX+X] } R $.M.>.3.@X}.:                                       ",
"aX$X).I.P.I.).<X9XuXtXyXiXsXgXgXzXzXzXaXW.d.d.z.P.OX7XpXsXgXzXzXzXqX-.| | } W x.>.y f.qXV                                       ",
"fX%X).I.P.I.).%X8XuXtXyXiXsXfXgXzXzXqXP.d.k.M.W.2XtXsXgXzXzXzXzXaX0...=. .T T f.3.w g D.V.+                                     ",
"gX*XOXR.I.R.).$X3X9XuXtXpXsXsXgXgX5Xx.d.z.P.OX7XaXgXzXzXzXzXzXgXg.| w.=.4.k.T 1.3.w 3 z OXV                                     ",
"zX7X#XE.I.R.).#X2X9XuXtXyXiXsXaX@Xz.l.x.Y.%XqXfXzXzXzXzXzXzXzXc. .w.=.q.#X(.' X.3.4 5 4 3.h.X                                   ",
"  qX$X/.R.E.).#X<X8XuXtXyXiXyXS.d.z.M.W.2XpXgXzXzXzXzXzXzXzXW.[ =.*.A.uX9XXX1.v 2.w 0 7 k Q.>                                   ",
"  pX$X).R.E.).#X<X8X9XuXyX7Xg.l k 3.W.0XsXzXzXzXzXzXzXzXzX7X%.| &.U.gXaX9X,X9.l ( w 0 9 9 D.V .                                 ",
"  fX%X#X/./.).#X<X3X9XuX*X4.d a a r ,.7XzXzXzXzXzXzXzXzXgX9.}  .T.zXzXsXtX<Xj.k H 5 y f p 9.i..                                 ",
"  zX5X$X)./.).#X<X3X9X%Xz.O.l s e e 9 Q *XzXzXzXzXzXzXzX%X] ] U.zXzXzXgXyX2Xj.k z 0 p g s O.B.O                                 ",
"    qXOX)./.).#X%X2XOXH.G.G.G.j.,.l e a X.%XzXzXzXzXzXzX9.R g.gXzXzXzXgXyX,Xj.k g s c v T / Q.,                                 ",
"    pX!.)./.).#X%XR.k.J.G.J.K._.XX).f.E U o.5XzXwXsX*X7Xo.&.qXzXzXzXzXgXtXXX7.k f c n ' ' X.L.V .                             pX",
"    fXOX)./.).#XR.F +.(.J.J.(.1X2X9XyX2Xq.` -.7Xv.qXv.4.W A.zXzXzXzXzXfX9X^.+.k h n ) #.#.<.b.( .                       7X@X@X X",
"    gX@X)./.).R.F 7 z ^.K.J.(.,X8XuXiXgXaXA.] -.-.0X'. .o.%XzXzXzXzXzXyX1XJ.n k l ' o.` @.{ 9.i..       pXaX          7X*XwX7X@X",
"    gX@X).E.E.s.x 7 9 z.).J.^.,X9XtXsXgXzXgXv.] *.7X7X;.*.$XsXgXhXgXaX2X(.1.k b E [ [ } $.R D.J .     eX*X*XpXgXgXpXwX*X*X%X@X:X",
"    gX@X).E.5.>.1.q 9 O.XX^.K.,X9XyXsXgXzXzXqX-.;.7XzX0.:.H.9XyXtX9X,X_.l.n v _ #.8.$.[ @.v.wXP > N 6XqXgXqX X7X6X:X7X*X*X7XOX@X",
"    gXOX).x.g z 3.+.9 s x.XX^.XX9XyXsXgXzXzXtX-.;.qXzX%X&.-.J.#XXX^.^.j.E E ~ ' { $.o.@.x.gXzXgX=X>X:X=X XW.@X7XqX:X X@X7X6XW.W.",
"    fXOXW.+.3 3 S f.F e n )._.(.2XtXsXgXgXsX+X*.6.aXzXzXL.[ :.0.b.9.%.T o.X.<.[ $.%.0.+XgXgXaX:XY.S.Q.Y.S. X5X6XOX X:X6X6X=X7X6X",
"    xXOXM.g 5 4 0 H 5.x e +.oXXX_.2XuXyXyX8Xq.| A.zXzXzXgXT.%.] ` T ' 9.#.X.o.9.P.7XgXaX*XS.Y.S.Q.@X6X7X7X=XV.B.-X-Xy.N < > C P ",
"    aXOXa.j y y 7 4 S 3.n r X.M.).XX,X2X).4. .&.:XzXzXzXzXzXqXU.v.c.R.8.) 9.+XpXaX7XW.N.N.S.:XpX=Xi.L i.i., X X > : . . . . . . ",
"    aXOX2.h 9 q h f w h 2.O.s d X.4.q.-.[ } ] c.hXzXzXzXgXsXyX7X*XW.7.1.U.wXrX*X7X@XT.OX:X5X:XpX{.O . . . . . . . . . .         ",
"    fXW.n k c l b c c g f G >.Q v Y U R W %.D.pXsXaXiXpXqX5X%XOX!.P.OXqXaXaX%XE.qXfX5XE.5X:X*XfXn.X .     X                     ",
"    sX*Xn a ) ) T U ~ _ b g h ( u.d.g.g.x.`.*X2X5X5X2X2X%XOXW.E.%XiXzXfXqX%X!.W.P.E.%XY.I.T.!.7XeXV .                           ",
"      eXc.E n T X.[ @.X.T / _ c h / 4.z.I.W.OXOXOX$XOXOXT.P.W.2X$X%X%XOX%X6X&X|.*XOXOX5X*X6X6X6XqXB.+                           ",
"        V.W.4.T R $.8.$.@.#.X.' / n E O.,.1.,.1.d.M.M.I.M.z.R.W.+X5X6X=XV.L : + N m.6X6XwXJ C m.=Xy.X                           ",
"          J m.W.b.1.o.] -.d.A.T.W.~..X.X>X%Xx.P.E.*XP.+.1.P.=X}.m.K N , X . . . . O i.=Xn.O . X : X . X                         ",
"            : 6 y.B.W.W.B.i.J B Z F.F.F.F.+X*XqX%XI.x.n b OXV O . . . . . . X         B O . .     X .                           ",
"                O + , , O . . . @ A A A Z.:XOX0X%Xp.3.1.9.B.O . . . X                   X . X                                   ",
"                    + X X X O +     . . < =XY.z.2.= 2 z k.{.+ .                                                                 ",
"                                          -Xu.i z 8 - 8 >.N.m.1                                                                 ",
"                                            *XG i h t u t ; h.}.                                                                ",
"                                            aXN.i t ; & % = z }.K                                                               ",
"                                            W.G = & % % $ t x N.J                                                               ",
"                                            u % o # % & 2 m F N.J .                                                             ",
"                                    pX7X@X3.3 # # % & ; i z ! }., .                                                             ",
"                                gXaX:XS.k.3.S t ; $ = 2 2 H Q.P + X                                                             ",
"                                  wXqX*X@X*XN.G S t & - 2 N.|.n.K.n.                                                            ",
"                                    n.V.-X=X{.z.i h y * * I C.r.r.;XN                                                           ",
"                                      O : > P h.- $ 3 y - & 6 ^ 4Xn.X X                                                         ",
"                                        . + n.2.= % - t 8 8 $ 6 r.;XV .                                                         ",
"                                            aX>.- $ - * D W.p.D 6 t.|.N                                                         ",
"                                            zXu.; % & D {.P y.}.a.e.].L                                                         ",
"                                            zXN.t $ G &XL . . < |.[.].K .                                                       "
};
