/* XPM */
static char *e301f41ac9ff412f9786eb066629f85f3iv6IJQnfjToHGng[] = {
/* columns rows colors chars-per-pixel */
"64 64 156 2 ",
"   c None",
".  c #0F0301",
"X  c #3D0B02",
"o  c #470604",
"O  c #4A0204",
"+  c #450C04",
"@  c #4E0904",
"#  c #4C0609",
"$  c #4E0909",
"%  c #550304",
"&  c #5D0403",
"*  c #510C04",
"=  c #541104",
"-  c #520E11",
";  c #640603",
":  c #6A0703",
">  c #6C0803",
",  c #740903",
"<  c #7A0B02",
"1  c #56231D",
"2  c #521E24",
"3  c #70393C",
"4  c #4C4647",
"5  c #60585F",
"6  c #625B61",
"7  c #796267",
"8  c #777676",
"9  c #7A7779",
"0  c #840D02",
"q  c #8A0E02",
"w  c #900F02",
"e  c #941002",
"r  c #9D1201",
"t  c #A51401",
"y  c #AC1501",
"u  c #A21C0B",
"i  c #B31601",
"p  c #BC1900",
"a  c #BF280F",
"s  c #8A1E26",
"d  c #BC1F29",
"f  c #94323C",
"g  c #B82024",
"h  c #AC3C2E",
"j  c #CD0209",
"k  c #C31B00",
"l  c #D80710",
"z  c #DA111B",
"x  c #FD010B",
"c  c #E10E18",
"v  c #F20610",
"b  c #FE0610",
"n  c #FD121C",
"m  c #C62400",
"M  c #C72900",
"N  c #C82E00",
"B  c #CA3400",
"V  c #CC3B00",
"C  c #CB1923",
"Z  c #C71A24",
"A  c #FC1E27",
"S  c #FC232B",
"D  c #FC2B33",
"F  c #FB323A",
"G  c #CF4700",
"H  c #CF4800",
"J  c #D04B00",
"K  c #D35300",
"L  c #D76500",
"P  c #D96C00",
"I  c #DD7B00",
"U  c #BA3A42",
"Y  c #FB3A42",
"T  c #804F4D",
"R  c #9A4F4A",
"E  c #947572",
"W  c #E8424A",
"Q  c #FA444B",
"!  c #FA4C53",
"~  c #F9565C",
"^  c #F75259",
"/  c #DB5D63",
"(  c #F86167",
")  c #F7656B",
"_  c #EF7176",
"`  c #F67A7F",
"'  c #F3777D",
"]  c #E28C00",
"[  c #E08400",
"{  c #E49100",
"}  c #E7A000",
"|  c #EBAC00",
" . c #E9A500",
".. c #EDB400",
"X. c #EFBB00",
"o. c #ECB618",
"O. c #F1C300",
"+. c #F3CC00",
"@. c #F5D300",
"#. c #F8DD00",
"$. c #FAE400",
"%. c #FCEB00",
"&. c #FEF400",
"*. c #F0CD3E",
"=. c #EBBD57",
"-. c #E97E83",
";. c #828282",
":. c #8B8B8B",
">. c #8F8C91",
",. c #948E96",
"<. c #959595",
"1. c #9B9B9B",
"2. c #989298",
"3. c #AA8688",
"4. c #B99798",
"5. c #A29DA2",
"6. c #B39FA3",
"7. c #A4A4A4",
"8. c #ACA5A9",
"9. c #ACACAC",
"0. c #B2A8AA",
"q. c #B3B3B3",
"w. c #BCBCBC",
"e. c #C68589",
"r. c #D5999D",
"t. c #F18D91",
"y. c #EC999C",
"u. c #F4989C",
"i. c #C6B6B8",
"p. c #E5A3A2",
"a. c #F4A3A6",
"s. c #F1AFB1",
"d. c #EFBBBD",
"f. c #F4BABD",
"g. c #F4B2B6",
"h. c #EFDB8C",
"j. c #C4C4C4",
"k. c gray80",
"l. c #CFC4C7",
"z. c #D9C0C0",
"x. c #D3D3D3",
"c. c #DCD4D6",
"v. c #DBDBDB",
"b. c #E9C6C7",
"n. c #E1CFD0",
"m. c #F0DDDD",
"M. c #E1DFE0",
"N. c #E4E4E4",
"B. c #ECECEC",
"V. c #EFEFEF",
"C. c #EEEEEE",
"Z. c #ECECEC",
"A. c #EFE4E5",
"S. c #F1EAEA",
"D. c gray94",
"F. c gray94",
/* pixels */
"                                                                                                                                ",
"                                                                                                                                ",
"                                                                                                                                ",
"                                                                                                                                ",
"                                                                                                                                ",
"                                                                        q.q.                                                    ",
"                                                                        v.B.w.x.  1.                                            ",
"                                                                  w.9.N.x.B.B.D.w.B.q.                                          ",
"                                                                  k.B.B.x.B.B.D.B.B.q.9.                                        ",
"                                                                  9.v.B.B.D.D.B.B.B.B.q.                                        ",
"                                                                    w.B.B.B.D.D.D.x.B.D.9.                                      ",
"                                              c.                    v.N.B.D.D.D.B.x.B.B.q.                                      ",
"                                            ( Y ' v           @     v.x.x.D.D.B.B.B.B.<.                                        ",
"                                            ) F U C           O     7.q.7.N.N.B.D.j.k.                                          ",
"                                                              O             k.x.9.                                              ",
"                                                              O             <.1.                                                ",
"                          *                                 + O o                                 *                             ",
"                            @                               j s O                               O                               ",
"                              O *                           l g O                             O                                 ",
"                                O O                         O k & @     ;.                @ O @                                 ",
"                                @ O O @                   O q ..y O     9               O O O                                   ",
"                                  O < O O             . @ O k &.N & O . 4           O O 3.O                                     ",
"                                  @ O k 0 O O         @ O i I &.O.k O $         O O i.p.Q 1                                     ",
"                                    O t | M q O O O O O i m &.&.&.V p & O O O O < p o.S x ` 5.                        C         ",
"              x d                   @ ; B &...m k p p k k $.&.&.&.&.N k k p p k { &.=.` D 9                                     ",
"                                      O k %.&.&.$.{ P } &.&.&.&.&.&.&...P [ @.&.&.&.a ; T 4                         q.          ",
"                                    + O k X.&.&.&.&.&.&.&.&.&.&.&.&.&.&.&.&.&.&.&.%.k ; @                         S ^           ",
"    =                               O < k ..&.&.&.&.&.&.&.&.&.&.&.&.&.&.&.&.&.&.&.%.k t O                         _ -.  *       ",
"          O O O O O @ * @ @ @ @ O O > k k &.&.&.&.&.&.&.&.&.&.&.&.&.&.&.&.&.&.&.&.&.m k 0 O O O @ * @ * O @ O O O O E           ",
"              @ O O O & & & ; , r p k B #.&.&.&.&.&.&.&.&.&.&.&.&.&.&.&.&.&.&.&.&.&.%.J k k t < ; & & & O O O @                 ",
"                    O O 0 m | O.+.$.&.&.&.&.&.&.&.&.&.&.&.&.&.&.&.&.&.&.&.&.&.&.&.&.&.&.&.$.@.+.X.B e O O                       ",
"                        O O i G %.&.&.&.&.&.&.&.&.&.&.&.&.&.&.&.&.&.&.&.&.&.&.&.&.&.&.&.&.&.&.P p % O                           ",
"                          * O t k #.&.&.&.&.&.&.&.&.&.&.&.&.&.&.&.&.&.&.&.&.&.&.&.&.&.&.&.&.M p O @                             ",
"                            * O k k &.&.&.&.&.&.&.&.&.&.&.&.&.&.&.&.&.&.&.&.&.&.&.&.&.&.&.V k % @                               ",
"                              O p k $.&.&.&.&.&.&.&.&.&.&.&.&.&.&.&.&.&.&.&.&.&.&.&.&.&.&.k k O                                 ",
"                              O k k &.&.&.&.&.&.&.&.&.&.&.&.&.&.&.&.&.&.&.&.&.&.&.&.&.&.&.B k % @                               ",
"            m.i.          * O r k +.&.&.&.&.&.&.&.&.&.&.&.&.&.&.&.&.&.&.&.&.&.&.&.&.&.&.&.%.m i O @                             ",
"          g.x Y A.      O O t B $.&.&.&.&.&.&.&.&.&.&.&.&.&.&.&.&.&.&.&.&.&.&.&.&.&.&.&.&.&.&.K p O O                           ",
"          f.D t.    O O , k | #.$.%.&.&.&.&.&.&.&.&.&.&.&.&.&.&.&.&.&.&.&.&.&.&.&.&.&.&.&.&.$.#.O.N 0 O O                       ",
"          ,.  c.O O O : : > , q y k k H %.&.&.&.&.&.&.&.&.&.&.&.&.&.&.&.&.&.&.&.&.&.&.L k k i w < > : > O O O @                 ",
"          @ O O O @ @ O * @ O @ O O < k k &.&.&.&.&.&.&.&.&.&.&.&.&.&.&.&.&.&.&.&.&.N k e O O O O O * O @ O O O O O             ",
"    =                               O 0 k X.&.&.&.&.&.&.&.&.&.&.&.&.&.&.&.&.&.&.&.%.k y O   ;.                          *       ",
"                                    1 O k X.&.&.&.&.&.&.&.&.&.&.&.&.&.&.&.&.&.&.&.%.k : @     ;.  8           j.N.k.:.9.7.q.1.  ",
"        7.  9.  x x         8       X O k %.&.&.%...] X.&.&.&.&.&.&.&.+.]  .$.&.&.&.k ; @                     B.k.N.k.B.N.D.w.  ",
"      k.B.j.B.0.e.z                 @ & N &.+.B k p k k m %.&.&.&.&.V k k p k m | &.h.R 4.5                 w.w.B.B.D.D.B.B.7.  ",
"      B.D.D.B.B.N.i.k.              O r ..V u % O O O % p m &.&.&.J k ; O O O O q m *.b S         x d   q.1.D.D.B.D.N.b.q.N.q.  ",
"    j.N.B.x.N.B.B.B.k.              - b.h z.7 @       @ O p ] &.+.k O O         O # s.n S b.      c f j.j.N.B.D.D.D.D.x ( q.1.  ",
"    1.N.N.B.D.D.D.B.q.            O < u.S A 6           @ O k &.B ; O               # 3.0.O           q.x.D.D.D.D.D.M.l.8.v.B.q.",
"    j.D.D.D.D.~ v.D.x.          @ O 3 ~ x x d.            O e O.i O                     2 O O         9.N.B.B.D.D.B.D.N.B.B.B.w.",
"    j.j.D.D.S.W l.N.x.x.    p.  O $ x.n.F b.8.              O m ; @                       O O         <.w.B.D.D.D.B.D.B.B.k.q.  ",
"      N.B.B.B.D.B.B.v.N.  ( x i.$       S.>.                O i O                           * O       <.B.B.N.B.B.D.D.D.B.j.    ",
"      9.k.B.N.x.v.B.v.9.  r.y.                              O & O                               O     1.N.B.D.N.x.B.D.k.7.      ",
"      <.B.B.B.B.D.B.9.                                      + O o                                 @       v.D.B.B.N.D.B.<.      ",
"        k.v.k.w.B.k.                                          O                       x Z                 x.B.B.v.w.q.w.        ",
"              <.v.q.                              v           O                     / x f                 1.w.q.<.              ",
"                                                              O                   f.!                                           ",
"                                                              @                   a.x 6.                                        ",
"                                                              =                   2.                                            ",
"                                                                                                                                ",
"                                                                                                                                ",
"                                                                                                                                ",
"                                                                                                                                ",
"                                                                                                                                ",
"                                                                                                                                "
};
