/* XPM */
static char *_944a76442484f36aaefba1c595b6cf7lGQlhx1AjAZ160nb[] = {
/* columns rows colors chars-per-pixel */
"64 64 141 2 ",
"   c None",
".  c #0A0302",
"X  c #250D04",
"o  c #2F1106",
"O  c #2F1206",
"+  c #28180D",
"@  c #2B190E",
"#  c #341507",
"$  c #361608",
"%  c #371609",
"&  c #381709",
"*  c #3A1708",
"=  c #3B1708",
"-  c #3B1808",
";  c #39180A",
":  c #3A180A",
">  c #3C1808",
",  c #3C1909",
"<  c #3D1909",
"1  c #3D1A09",
"2  c #3E1A09",
"3  c #3E1A0A",
"4  c #3F1A0A",
"5  c #3F1B0A",
"6  c #3F1B0B",
"7  c #342215",
"8  c #352417",
"9  c #3B271B",
"0  c #3C281B",
"q  c #3D281B",
"w  c #3C281C",
"e  c #3D281C",
"r  c #3E281C",
"t  c #401B0A",
"y  c #401B0B",
"u  c #431D0C",
"i  c #441E0D",
"p  c #4F2312",
"a  c #5F2C16",
"s  c #612D17",
"d  c #68321A",
"f  c #6A321A",
"g  c #6C341B",
"h  c #6D341B",
"j  c #6E351B",
"k  c #6D341C",
"l  c #70361B",
"z  c #70361C",
"x  c #71361C",
"c  c #71361D",
"v  c #71371D",
"b  c #72371D",
"n  c #73371D",
"m  c #72381D",
"M  c #73381D",
"N  c #73381E",
"B  c #74381D",
"V  c #74391D",
"C  c #74381E",
"Z  c #74391E",
"A  c #75391E",
"S  c #76391E",
"D  c #773A1F",
"F  c #793B1F",
"G  c #7A3B1F",
"H  c #7B3B1F",
"J  c #443023",
"K  c #453123",
"L  c #7B3C20",
"P  c #813F21",
"I  c #844123",
"U  c #864223",
"Y  c #844124",
"T  c #844224",
"R  c #854224",
"E  c #874325",
"W  c #884324",
"Q  c #884325",
"!  c #894425",
"~  c #8A4425",
"^  c #894426",
"/  c #8A4426",
"(  c #8B4426",
")  c #8B4526",
"_  c #8E4627",
"`  c #8F4627",
"'  c #8F4727",
"]  c #904728",
"[  c #914828",
"{  c #944A29",
"}  c #944A2A",
"|  c #974C2A",
" . c #974C2B",
".. c #984C2A",
"X. c #984D2A",
"o. c #984C2B",
"O. c #984D2B",
"+. c #9B4E2A",
"@. c #9B4E2B",
"#. c #9A4E2C",
"$. c #9B4E2C",
"%. c #9D4F2D",
"&. c #9F502D",
"*. c #9F512D",
"=. c #9F512E",
"-. c #A1522E",
";. c #A2522E",
":. c #A3522E",
">. c #A3532E",
",. c #A2532F",
"<. c #A3532F",
"1. c #A4532F",
"2. c #A3542F",
"3. c #A5542F",
"4. c #A6552F",
"5. c #A55430",
"6. c #A45530",
"7. c #A75530",
"8. c #A85630",
"9. c #A85631",
"0. c #A95731",
"q. c #AD5932",
"w. c #AC5933",
"e. c #AD5933",
"r. c #AE5933",
"t. c #AE5A33",
"y. c #AF5A33",
"u. c #B05B34",
"i. c #B15B34",
"p. c #B05B35",
"a. c #B15C35",
"s. c #B35C35",
"d. c #B35D35",
"f. c #B45D36",
"g. c #B55E36",
"h. c #B76038",
"j. c #B86038",
"k. c #BA6139",
"l. c #BD633A",
"z. c #BE633A",
"x. c #C1653B",
/* pixels */
"  z.x.x.x.x.x.x.x.x.x.x.x.x.x.x.x.x.x.x.x.x.x.x.x.x.x.x.x.i.        z.x.x.x.x.x.x.x.x.x.x.x.x.x.x.x.x.x.x.x.x.x.x.x.x.x.x.x.s.  ",
"7.e.s.s.s.s.s.s.s.s.s.s.s.s.s.s.s.s.s.s.s.s.s.s.s.s.s.s.s.>.' J J 3.e.s.s.s.s.s.s.s.s.s.s.s.s.s.s.s.s.s.s.s.s.s.s.s.s.s.s.s.>.I ",
"@.>.0.0.0.0.0.0.0.0.0.0.0.0.0.0.0.0.0.0.0.0.0.0.0.0.0.0.0.#.E 0 w @.>.0.0.0.0.0.0.0.0.0.0.0.0.0.0.0.0.0.0.0.0.0.0.0.0.0.0.0.@.H ",
"@.>.0.0.0.0.0.0.0.0.0.0.0.0.0.0.0.0.0.0.0.0.0.0.0.0.0.0.0.#.Q 0 0 @.>.0.0.0.0.0.0.0.0.0.0.0.0.0.0.0.0.0.0.0.0.0.0.0.0.0.0.0. .H ",
"@.>.0.0.0.0.0.0.0.0.0.0.0.0.0.0.0.0.0.0.0.0.0.0.0.0.0.0.0.#.Q 0 0 @.>.0.0.0.0.0.0.0.0.0.0.0.0.0.0.0.0.0.0.0.0.0.0.0.0.0.0.0. .H ",
"@.>.0.0.0.0.0.0.0.0.0.0.0.0.0.0.0.0.0.0.0.0.0.0.0.0.0.0.0.#.Q 0 0 @.>.0.0.0.0.0.0.0.0.0.0.0.0.0.0.0.0.0.0.0.0.0.0.0.0.0.0.0. .H ",
"@.>.0.0.0.0.0.0.0.0.0.0.0.0.0.0.0.0.0.0.0.0.0.0.0.0.0.0.0.#.Q 0 0 @.>.0.0.0.0.0.0.0.0.0.0.0.0.0.0.0.0.0.0.0.0.0.0.0.0.0.0.0. .H ",
"@.>.0.0.0.0.0.0.0.0.0.0.0.0.0.0.0.0.0.0.0.0.0.0.0.0.0.0.0.#.Q 0 0 @.>.0.0.0.0.0.0.0.0.0.0.0.0.0.0.0.0.0.0.0.0.0.0.0.0.0.0.0. .H ",
"@.>.0.0.0.0.0.0.0.0.0.0.0.0.0.0.0.0.0.0.0.0.0.0.0.0.0.0.0.#.Q 0 0 @.>.0.0.0.0.0.0.0.0.0.0.0.0.0.0.0.0.0.0.0.0.0.0.0.0.0.0.0.@.H ",
"@.>.0.0.0.0.0.0.0.0.0.0.0.0.0.0.0.0.0.0.0.0.0.0.0.0.0.0.0.#.! 0 0 @.>.0.0.0.0.0.0.0.0.0.0.0.0.0.0.0.0.0.0.0.0.0.0.0.0.0.0.0. .H ",
"@.>.0.0.0.0.0.0.0.0.0.0.0.0.0.0.0.0.0.0.0.0.0.0.0.0.0.0.0.#.! 0 0 @.>.0.0.0.0.0.0.0.0.0.0.0.0.0.0.0.0.0.0.0.0.0.0.0.0.0.0.0.@.H ",
"@.>.0.0.0.0.0.0.0.0.0.0.0.0.0.0.0.0.0.0.0.0.0.0.0.0.0.0.0.#.! 0 0 @.>.0.0.0.0.0.0.0.0.0.0.0.0.0.0.0.0.0.0.0.0.0.0.0.0.0.0.0.@.H ",
"@.>.0.0.0.0.0.0.0.0.0.0.0.0.0.0.0.0.0.0.0.0.0.0.0.0.0.0.0.#.! 0 0 @.>.0.0.0.0.0.0.0.0.0.0.0.0.0.0.0.0.0.0.0.0.0.0.0.0.0.0.0. .H ",
"@.>.0.0.0.0.0.0.0.0.0.0.0.0.0.0.0.0.0.0.0.0.0.0.0.0.0.0.0.#.! 0 0 @.>.0.0.0.0.0.0.0.0.0.0.0.0.0.0.0.0.0.0.0.0.0.0.0.0.0.0.0.@.H ",
"@.>.0.0.0.0.0.0.0.0.0.0.0.0.0.0.0.0.0.0.0.0.0.0.0.0.0.0.0.#.! 0 0 @.>.0.0.0.0.0.0.0.0.0.0.0.0.0.0.0.0.0.0.0.0.0.0.0.0.0.0.0.@.H ",
"@.>.0.0.0.0.0.0.0.0.0.0.0.0.0.0.0.0.0.0.0.0.0.0.0.0.0.0.0.#.! 0 0 @.>.0.0.0.0.0.0.0.0.0.0.0.0.0.0.0.0.0.0.0.0.0.0.0.0.0.0.0.@.H ",
"@.>.0.0.0.0.0.0.0.0.0.0.0.0.0.0.0.0.0.0.0.0.0.0.0.0.0.0.0.#.! 0 0 @.>.0.0.0.0.0.0.0.0.0.0.0.0.0.0.0.0.0.0.0.0.0.0.0.0.0.0.0.@.H ",
"@.>.0.0.0.0.0.0.0.0.0.0.0.0.0.0.0.0.0.0.0.0.0.0.0.0.0.0.0.#.! 0 0 @.>.0.0.0.0.0.0.0.0.0.0.0.0.0.0.0.0.0.0.0.0.0.0.0.0.0.0.0.@.H ",
"l b b b b b b b b b b b b b b b b b b b b b b m b m m m m b k 0 0 h b m m m m m m m D m D D D D D D D D D D D D D D D D D D h s ",
"  > = = = = = = = = = - - - - - - - - - - - - > > > > > > i 0 0 0 0 > > > > > > > > > > > > > > > > > > > > y y y y y y y y u   ",
"  7 0 0 0 0 0 0 0 0 0 0 0 0 0 0 0 0 0 0 0 0 0 0 0 0 0 0 0 0 0 0 0 0 0 0 0 0 0 0 0 0 0 0 0 0 0 0 0 0 0 0 0 0 0 0 0 0 0 0 0 0 @   ",
"  8 0 0 0 0 0 0 0 0 0 0 0 0 0 0 0 0 0 0 0 0 0 0 0 0 0 0 0 0 0 0 0 0 0 0 0 0 0 0 0 0 0 0 0 0 0 0 0 0 0 0 0 0 0 0 0 0 0 0 0 0 @   ",
"  z.x.x.x.x.x.x.x.x.x.x.x.s.w 0 0 0 h.x.x.x.x.x.x.x.x.x.x.x.x.x.x.x.x.x.x.x.x.x.x.x.x.x.x.e.0 0 0 w j.x.x.x.x.x.x.x.x.x.x.x.s.  ",
"0.e.f.f.f.f.f.f.f.f.f.f.f.0.{ 0 0 2.e.f.f.f.f.f.f.f.f.f.f.f.f.f.f.f.f.f.f.f.f.f.f.f.f.f.f.>.! 0 0 7.e.f.f.f.f.f.f.f.f.f.f.f.1.Q ",
"@.>.0.0.0.0.0.0.0.0.0.0.0.*.] 0 0 @.>.0.0.0.0.0.0.0.0.0.0.0.0.0.0.0.0.0.0.0.0.0.0.0.0.0.0. .I 0 0 @.>.0.0.0.0.0.0.0.0.0.0.0.@.H ",
"@.>.0.0.0.0.0.0.0.0.0.0.0.*.] 0 0 @.>.0.0.0.0.0.0.0.0.0.0.0.0.0.0.0.0.0.0.0.0.0.0.0.0.0.0. .I 0 0 @.>.0.0.0.0.0.0.0.0.0.0.0.@.H ",
"@.>.0.0.0.0.0.0.0.0.0.0.0.*.] 0 0 @.>.0.0.0.0.0.0.0.0.0.0.0.0.0.0.0.0.0.0.0.0.0.0.0.0.0.0. .I 0 0 @.>.0.0.0.0.0.0.0.0.0.0.0.@.H ",
"@.>.0.0.0.0.0.0.0.0.0.0.0.*.] 0 0 @.>.0.0.0.0.0.0.0.0.0.0.0.0.0.0.0.0.0.0.0.0.0.0.0.0.0.0.@.I 0 0 @.>.0.0.0.0.0.0.0.0.0.0.0.@.H ",
"@.>.0.0.0.0.0.0.0.0.0.0.0.*.] 0 0 @.>.0.0.0.0.0.0.0.0.0.0.0.0.0.0.0.0.0.0.0.0.0.0.0.0.0.0.@.I 0 0 @.>.0.0.0.0.0.0.0.0.0.0.0.@.H ",
"@.>.0.0.0.0.0.0.0.0.0.0.0.*.] 0 0 @.>.0.0.0.0.0.0.0.0.0.0.0.0.0.0.0.0.0.0.0.0.0.0.0.0.0.0.@.I 0 0 @.>.0.0.0.0.0.0.0.0.0.0.0.@.H ",
"@.>.0.0.0.0.0.0.0.0.0.0.0.*.] 0 0 @.>.0.0.0.0.0.0.0.0.0.0.0.0.0.0.0.0.0.0.0.0.0.0.0.0.0.0.@.E 0 0 @.>.0.0.0.0.0.0.0.0.0.0.0.@.H ",
"@.>.0.0.0.0.0.0.0.0.0.0.0.*.[ 0 w @.>.0.0.0.0.0.0.0.0.0.0.0.0.0.0.0.0.0.0.0.0.0.0.0.0.0.0.@.E 0 0 @.>.0.0.0.0.0.0.0.0.0.0.0.@.H ",
"@.>.0.0.0.0.0.0.0.0.0.0.0.*.[ 0 0 @.>.0.0.0.0.0.0.0.0.0.0.0.0.0.0.0.0.0.0.0.0.0.0.0.0.0.0.@.E 0 0 @.>.0.0.0.0.0.0.0.0.0.0.0. .H ",
"@.>.0.0.0.0.0.0.0.0.0.0.0.*.[ 0 0 @.>.0.0.0.0.0.0.0.0.0.0.0.0.0.0.0.0.0.0.0.0.0.0.0.0.0.0.@.E 0 0 @.>.0.0.0.0.0.0.0.0.0.0.0. .H ",
"@.>.0.0.0.0.0.0.0.0.0.0.0.*.[ 0 0 @.>.0.0.0.0.0.0.0.0.0.0.0.0.0.0.0.0.0.0.0.0.0.0.0.0.0.0.@.E 0 0 @.>.0.0.0.0.0.0.0.0.0.0.0.@.H ",
"@.>.0.0.0.0.0.0.0.0.0.0.0.*.[ 0 0 @.>.0.0.0.0.0.0.0.0.0.0.0.0.0.0.0.0.0.0.0.0.0.0.0.0.0.0.@.E 0 0 @.>.0.0.0.0.0.0.0.0.0.0.0.@.H ",
"@.>.0.0.0.0.0.0.0.0.0.0.0.*.[ 0 0 @.>.0.0.0.0.0.0.0.0.0.0.0.0.0.0.0.0.0.0.0.0.0.0.0.0.0.0. .E 0 0 @.>.0.0.0.0.0.0.0.0.0.0.0.@.H ",
"@.>.0.0.0.0.0.0.0.0.0.0.0.*.[ 0 0 @.>.0.0.0.0.0.0.0.0.0.0.0.0.0.0.0.0.0.0.0.0.0.0.0.0.0.0. .E 0 0 @.>.0.0.0.0.0.0.0.0.0.0.0.@.H ",
"@.>.0.0.0.0.0.0.0.0.0.0.0.*.[ 0 0 @.>.0.0.0.0.0.0.0.0.0.0.0.0.0.0.0.0.0.0.0.0.0.0.0.0.0.0.@.E 0 0 @.>.0.0.0.0.0.0.0.0.0.0.0.@.H ",
"@.>.0.0.0.0.0.0.0.0.0.0.0.*.[ 0 0 @.>.0.0.0.0.0.0.0.0.0.0.0.0.0.0.0.0.0.0.0.0.0.0.0.0.0.0. .E 0 0 @.>.0.0.0.0.0.0.0.0.0.0.0.@.H ",
"b b b b b b b b b b b b b b b 0 0 b b b b b b b b b b b b b b b b b b b b b b b b b b b b h d 0 0 b b b b b b b b b b b b b d a ",
"  $ O O O O O O O O O O O - 0 0 0 0 = O O O O O O O O O O O O O O O O O O O O O O O O O O - 0 0 0 0 $ O O O O O O O O O O O #   ",
"  7 0 0 0 0 0 0 0 0 0 0 0 0 0 0 0 0 0 0 0 0 0 0 0 0 0 0 0 0 0 0 0 0 0 0 0 0 0 0 0 0 0 0 0 0 0 0 0 0 0 0 0 0 0 0 0 0 0 0 0 0 @   ",
"  8 0 0 0 0 0 0 0 0 0 0 0 0 0 0 0 0 0 0 0 0 0 0 0 0 0 0 0 0 0 0 0 0 0 0 0 0 0 0 0 0 0 0 0 0 0 0 0 0 0 0 0 0 0 0 0 0 0 0 0 0 @   ",
"  z.x.x.x.x.x.x.x.x.x.x.x.x.x.x.x.x.x.x.x.x.x.x.x.x.x.x.x.i.w 0 0 0 j.x.x.x.x.x.x.x.x.x.x.x.x.x.x.x.x.x.x.x.x.x.x.x.x.x.x.x.s.  ",
"0.i.f.f.f.f.f.f.f.f.f.f.f.f.f.f.f.f.f.f.f.f.f.f.f.f.f.f.f.0.{ 0 0 7.e.f.f.f.f.f.f.f.f.f.f.f.f.f.f.f.f.f.f.f.f.f.f.f.f.f.f.f.3.! ",
"@.>.0.0.0.0.0.0.0.0.0.0.0.0.0.0.0.0.0.0.0.0.0.0.0.0.0.0.0.%.' 0 0 @.>.0.0.0.0.0.0.0.0.0.0.0.0.0.0.0.0.0.0.0.0.0.0.0.0.0.0.0.@.H ",
"@.>.0.0.0.0.0.0.0.0.0.0.0.0.0.0.0.0.0.0.0.0.0.0.0.0.0.0.0.%.' 0 0 @.>.0.0.0.0.0.0.0.0.0.0.0.0.0.0.0.0.0.0.0.0.0.0.0.0.0.0.0.@.H ",
"@.>.0.0.0.0.0.0.0.0.0.0.0.0.0.0.0.0.0.0.0.0.0.0.0.0.0.0.0.%.' 0 0 @.>.0.0.0.0.0.0.0.0.0.0.0.0.0.0.0.0.0.0.0.0.0.0.0.0.0.0.0.@.H ",
"@.>.0.0.0.0.0.0.0.0.0.0.0.0.0.0.0.0.0.0.0.0.0.0.0.0.0.0.0.%.' 0 0 @.>.0.0.0.0.0.0.0.0.0.0.0.0.0.0.0.0.0.0.0.0.0.0.0.0.0.0.0.@.H ",
"@.>.0.0.0.0.0.0.0.0.0.0.0.0.0.0.0.0.0.0.0.0.0.0.0.0.0.0.0.%.' 0 0 @.>.0.0.0.0.0.0.0.0.0.0.0.0.0.0.0.0.0.0.0.0.0.0.0.0.0.0.0.@.H ",
"@.>.0.0.0.0.0.0.0.0.0.0.0.0.0.0.0.0.0.0.0.0.0.0.0.0.0.0.0.%.' 0 0 @.>.0.0.0.0.0.0.0.0.0.0.0.0.0.0.0.0.0.0.0.0.0.0.0.0.0.0.0.@.H ",
"@.>.0.0.0.0.0.0.0.0.0.0.0.0.0.0.0.0.0.0.0.0.0.0.0.0.0.0.0.%.' 0 0 @.>.0.0.0.0.0.0.0.0.0.0.0.0.0.0.0.0.0.0.0.0.0.0.0.0.0.0.0.@.H ",
"@.>.0.0.0.0.0.0.0.0.0.0.0.0.0.0.0.0.0.0.0.0.0.0.0.0.0.0.0.%.' 0 0 @.>.0.0.0.0.0.0.0.0.0.0.0.0.0.0.0.0.0.0.0.0.0.0.0.0.0.0.0.@.H ",
"@.>.0.0.0.0.0.0.0.0.0.0.0.0.0.0.0.0.0.0.0.0.0.0.0.0.0.0.0.%.' 0 0 @.>.0.0.0.0.0.0.0.0.0.0.0.0.0.0.0.0.0.0.0.0.0.0.0.0.0.0.0.@.H ",
"@.>.0.0.0.0.0.0.0.0.0.0.0.0.0.0.0.0.0.0.0.0.0.0.0.0.0.0.0.%.' 0 0 @.>.0.0.0.0.0.0.0.0.0.0.0.0.0.0.0.0.0.0.0.0.0.0.0.0.0.0.0.@.H ",
"@.>.0.0.0.0.0.0.0.0.0.0.0.0.0.0.0.0.0.0.0.0.0.0.0.0.0.0.0.%.' 0 0 @.>.0.0.0.0.0.0.0.0.0.0.0.0.0.0.0.0.0.0.0.0.0.0.0.0.0.0.0.@.H ",
"@.>.0.0.0.0.0.0.0.0.0.0.0.0.0.0.0.0.0.0.0.0.0.0.0.0.0.0.0.%.' 0 0 @.>.0.0.0.0.0.0.0.0.0.0.0.0.0.0.0.0.0.0.0.0.0.0.0.0.0.0.0. .H ",
"@.>.0.0.0.0.0.0.0.0.0.0.0.0.0.0.0.0.0.0.0.0.0.0.0.0.0.0.0.%.' 0 0 @.>.0.0.0.0.0.0.0.0.0.0.0.0.0.0.0.0.0.0.0.0.0.0.0.0.0.0.0.@.H ",
"@.>.0.0.0.0.0.0.0.0.0.0.0.0.0.0.0.0.0.0.0.0.0.0.0.0.0.0.0.%.' 0 0 @.>.0.0.0.0.0.0.0.0.0.0.0.0.0.0.0.0.0.0.0.0.0.0.0.0.0.0.0.@.H ",
"@.>.0.0.0.0.0.0.0.0.0.0.0.0.0.0.0.0.0.0.0.0.0.0.0.0.0.0.0.%.' 0 0 @.>.0.0.0.0.0.0.0.0.0.0.0.0.0.0.0.0.0.0.0.0.0.0.0.0.0.0.0.@.H ",
"@.>.0.0.0.0.0.0.0.0.0.0.0.0.0.0.0.0.0.0.0.0.0.0.0.0.0.0.0.%.' 9 9 @.>.0.0.0.0.0.0.0.0.0.0.0.0.0.0.0.0.0.0.0.0.0.0.0.0.0.0.0.@.H ",
"P L D D D D D D D D D D D D D D D D D D D D D D D D D D D b h . . D D D D D D D D D D D D D D D D D D D D D D D D D D D D D d p ",
"  > O O O O O O O O O O O O O O O O O O O O O O O O O O O #         $ O O O O O O O O O O O O O O O O O O O O O O O O O O O X   "
};
