/* XPM */
static char *result[] = {
/* columns rows colors chars-per-pixel */
"64 64 197 2 ",
"   c #00000A",
".  c #030212",
"X  c #15115F",
"o  c #141160",
"O  c #181465",
"+  c #1C166D",
"@  c #1F1872",
"#  c #1E1770",
"$  c #211975",
"%  c #241B7A",
"&  c #281D7F",
"*  c #20196B",
"=  c #172978",
"-  c #17367F",
";  c #24217F",
":  c #2A2073",
">  c #38297F",
",  c #2A1F83",
"<  c #143785",
"1  c #2D2185",
"2  c #242985",
"3  c #2F2289",
"4  c #322585",
"5  c #33248E",
"6  c #3D2C8D",
"7  c #3A2B80",
"8  c #24338C",
"9  c #372691",
"0  c #382793",
"q  c #3B2995",
"w  c #3E2A9A",
"e  c #322C94",
"r  c #313499",
"t  c #35399F",
"y  c #213A95",
"u  c #3F37A7",
"i  c #3E3CAA",
"p  c #3F38A7",
"a  c #45338A",
"s  c #422E94",
"d  c #432D9D",
"f  c #443393",
"g  c #4B3799",
"h  c #54399E",
"j  c #432DA0",
"k  c #4133A4",
"l  c #4B32A4",
"z  c #403DAA",
"x  c #5336A3",
"c  c #5539A4",
"v  c #5439AB",
"b  c #583CAF",
"n  c #5639A7",
"m  c #573EB0",
"M  c #5B3EB1",
"N  c #174087",
"B  c #16438E",
"V  c #184D92",
"C  c #24479A",
"Z  c #175AAA",
"A  c #1E5AB1",
"S  c #2B49AA",
"D  c #3A43A9",
"F  c #2754A8",
"G  c #3A4AB3",
"H  c #3B44B0",
"J  c #325ABF",
"K  c #3A57B9",
"L  c #1B69A9",
"P  c #156AB8",
"I  c #266AB7",
"U  c #3961BF",
"Y  c #564897",
"T  c #574699",
"R  c #5E5980",
"E  c #60529A",
"W  c #706599",
"Q  c #5542B3",
"!  c #5748B6",
"~  c #4E55BD",
"^  c #5F44A7",
"/  c #684BAA",
"(  c #6344AC",
")  c #6342B4",
"_  c #6B45B6",
"`  c #6D47B9",
"'  c #6B4ABA",
"]  c #754ABB",
"[  c #7C4DBE",
"{  c #7247B6",
"}  c #7351B3",
"|  c #7351BE",
" . c #7B57BB",
".. c #6350A6",
"X. c #7A6DA1",
"o. c #315DC1",
"O. c #1C7CD1",
"+. c #2E65C6",
"@. c #2D68C9",
"#. c #2775C6",
"$. c #3378CC",
"%. c #2776D3",
"&. c #3574D3",
"*. c #3E67CA",
"=. c #465AC2",
"-. c #7F4EC0",
";. c #6E57C3",
":. c #7C56C1",
">. c #4275CE",
",. c #4D65C6",
"<. c #835DBF",
"1. c #867AA4",
"2. c #814FC1",
"3. c #8452C3",
"4. c #8956C7",
"5. c #845CC5",
"6. c #845BC9",
"7. c #8C5ACA",
"8. c #915ECD",
"9. c #8A61CC",
"0. c #8760C6",
"q. c #9361CF",
"w. c #9469CE",
"e. c #8C68D3",
"r. c #9664D1",
"t. c #9866D3",
"y. c #966AD1",
"u. c #9B6BD5",
"i. c #9D6DD8",
"p. c #A16ED9",
"a. c #A573DC",
"s. c #A875DF",
"d. c #9D7EE2",
"f. c #A977E0",
"g. c #AC79E2",
"h. c #A57EE4",
"j. c #1689D9",
"k. c #1C9AD6",
"l. c #1D92CB",
"z. c #2D8BD9",
"x. c #2480D9",
"c. c #3089D6",
"v. c #3685D6",
"b. c #2D94DB",
"n. c #2494D4",
"m. c #2A83CD",
"M. c #1CA1DD",
"N. c #1D8CE2",
"B. c #1A92E4",
"V. c #1797E8",
"C. c #1B95E8",
"Z. c #159DED",
"A. c #1795E6",
"S. c #179FF0",
"D. c #2897E4",
"F. c #369AE1",
"G. c #14A2F2",
"H. c #16AAF4",
"J. c #19ADF5",
"K. c #19B3F6",
"L. c #1AB6F8",
"P. c #1CBCF9",
"I. c #28A4E3",
"U. c #23B4EC",
"Y. c #28B1ED",
"T. c #22BAEE",
"R. c #20B2E6",
"E. c #25BDF3",
"W. c #2BB8F2",
"Q. c #39B4EE",
"!. c #4284D7",
"~. c #608ADF",
"^. c #7999EC",
"/. c #648FE3",
"(. c #59ADF4",
"). c #48B8F7",
"_. c #4EB4F6",
"`. c #50B3F5",
"'. c #1EC4FB",
"]. c #22C3F5",
"[. c #23C6F8",
"{. c #22CDFE",
"}. c #2DC7FC",
"|. c #34C5FB",
" X c #22D0FF",
".X c #9285AA",
"XX c #8C80A6",
"oX c #A591B7",
"OX c #BFB6AF",
"+X c #ACA1AE",
"@X c #DAD0BA",
"#X c #E7DDBF",
"$X c #868DE8",
"%X c #99CDD5",
"&X c #A1D0D3",
"*X c #F4EBC1",
"=X c None",
/* pixels */
"=X=X=X=X=X=X=X=X=X=X=X=X=X=X=X=X=X=X=X=X=X=X=X=X=X=Xo o o X o o X o o o o o =X=X=X=X=X=X=X=X=X=X=X=X=X=X=X=X=X=X=X=X=X=X=X=X=X=X",
"=X=X=X=X=X=X=X=X=X=X=X=X=X=X=X=X=X=X=X=X=X=Xo o o o o o o o o o o o o o o o o X o o =X=X=X=X=X=X=X=X=X=X=X=X=X=X=X=X=X=X=X=X=X=X",
"=X=X=X=X=X=X=X=X=X=X=X=X=X=X=X=X=X=X=X=Xo o o o o o o o X o X X o o o o o o o o X o o X =X=X=X=X=X=X=X=X=X=X=X=X=X=X=X=X=X=X=X=X",
"=X=X=X=X=X=X=X=X=X=X=X=X=X=X=X=X=Xo O X o o o o o o o o o o o X o o o o o o X o o o o o o o o =X=X=X=X=X=X=X=X=X=X=X=X=X=X=X=X=X",
"=X=X=X=X=X=X=X=X=X=X=X=X=X=X=X=XX X X X X X X & h <.i.p.a.a.p.y. .a + o o o o o o o X o o o o o =X=X=X=X=X=X=X=X=X=X=X=X=X=X=X=X",
"=X=X=X=X=X=X=X=X=X=X=X=X=X=Xo o X X o O / s.g.g.s.s.f.p.s.s.g.f.s.g.g.g.u.h @ O o o o o o o o o o o =X=X=X=X=X=X=X=X=X=X=X=X=X=X",
"=X=X=X=X=X=X=X=X=X=X=X=X=Xo o o X 7 p.s.p.3.2.2.3.2.2.2.<.2.2.2.3.8.p.g.g.g.g.y.4 $ o o o o o o o o o =X=X=X=X=X=X=X=X=X=X=X=X=X",
"=X=X=X=X=X=X=X=X=X=X=Xo o o X > s.t.2.[ <.<.2.2.<.2.2.2.2.2.2.2.<.<.3.-.3.a.g.g.g.i.1 % O o o o o X o o o =X=X{.=X=X=X=X=X=X=X=X",
"=X=X=X=X=X=X=X=X=X=Xo o o O w.7.2.2.2.2.2.2.2.2.-.3.-.-.-.-.-.3.2.2.2.2.2.2.2.q.f.f.g.4.% % o o o o o o o o =X=X X=X=X=X=X=X=X=X",
"=X=X=X=X=X=X=X=X=X+ o o a 8.2.2.2.2.2.2.2.] x 0 5 9 1.9 0 w w w d x ] 2.2.2.2.2.2.p.g.g.f.6 % # o R o o o o X =X=X X=X=X=X=X=X=X",
"=X=X=X=X=X=X=X=X% % + } 2.2.2.2.2.2.-.x 5 5 5 5 9 c #Xj j j j j j j j j v -.2.-.2.2.3.g.g.g.( % % o o o X o o o =X X=X=X=X=X=X=X",
"=X=X=X=X=X=X=X% % %  .2.2.2.2.2.<.d 5 5 5 5 w d k w j j j j j j j j j j j j j -.2.2.2.2.p.g.g.-.% % o o o o o o o =X X=X=X=X=X=X",
"=X=X=X=X=X=X=X% % { 2.2.2.2.2.x 5 5 5 5 q j j j j j j j j j j j j j j j j j j j v 2.2.2.2.q.g.g.5.% % o o o o o o =X X X=X=X=X=X",
"=X=X=X=X=X=X% % { 2.2.2.2.<.9 5 5 5 5 j j j j j j j j j w w j j j j j j j j j j j j -.2.2.2.8.g.g.} % % o X o o o o =X X=X=X=X=X",
"=X=X=X=X=X% % n 2.2.2.2.{ 5 5 5 9 q j j j j j k +.N.G.G.G.G.G.S.N.o.j j j j j j j j j { 2.2.2.8.g.g.g % % o X o o X o  X X=X=X=X",
"=X=X=X=X=X% s 2.2.2.2.{ 5 5 5 5 q ..j j j @.G.G.G.G.G.G.G.G.G.S.Z.S.S.Z.o.j j j j j j j _ 2.2.2.t.g.g.% % % o o o o o =X X=X=X=X",
"=X=X=X=X% % 2.2.2.2.{ 5 5 5 5 q j j j +.S.G.G.G.G.G.G.S.G.G.H.H.G.G.G.G.G.G.G j j j j j j _ 2.2.2.f.f.t.% % # o o o o o '. X=X=X",
"=X=X=X% % ] 2.2.2.-.5 5 5 5 q j j k Z.G.G.G.G.G.G.S.J.{. X'. X X X X X'.H.G.G.N.j j j j j j ] 2.2.3.g.g.6 % % O o o o o k. X=X=X",
"=X=X=X% s 2.2.2.3.5 5 5 5 5 j d G G.G.G.G.G.G.G.T.{. X X X X X X X X X X{.{.H.G.S.u j +Xj .X5 2.-.3.t.g.a.% % % o o o o N  X=X=X",
"=X=X=X% 2.2.2.3.q 5 5 5 5 j j J G.G.G.G.G.G.S.{. Xv.! Q ;.9.y.e.~.}. X X X X X[.S.S.k j @X5 5 x 2.-.3.g.f.4 % % O o o o O  X X=X",
"=X=X$ x 2.2.2. .5 5 5 5 q j G H.G.G.G.G.G.G.W.Q b 6.f.g.g.g.g.g.f.f.g.(. X X X X'.H.G.1.q .X5 5 -.2.2.r.g.0.% % % o X o X  X X=X",
"=X=X% [ 2.2.p.f 5 5 5 5 j k P.G.G.G.G.G.G.=.m ' f.r.2.2.2.2.2.2.8.s.g.g.h.}. X X X XG.Z.j 9 5 5 n 2.2.2.g.g.% % % o o o X T. X=X",
"=X% q <.<.7.f 5 5 5 5 w j {.G.G.G.G.G.S.m m 7.4.2.2.2.2.2.2.2.2.2.2.3.s.g.g._. X X X[.S.o.j 5 5 5 3.2.2.a.g.4 % % @ X o X l. X=X",
"=X% [ 2.<.y.5 5 5 5 5 j c.K.G.G.G.G.G.b m -.3.-.2.2.2.2.` M m m j b <.2.q.g.g._. X X XG.G.j w 5 5 -.2.2.8.f./ % % % X X X L  X X",
"=X& 3.<.r.4 5 5 5 5 q j {.G.G.G.G.G.m m ` 2.2.2.2.2._ m b b b m j j j v 2.7.f.g.}. X X{.G.o.j 9 5 ) 2.2.3.g.y.% % % O o o N  X X",
"=Xh 2.2.p.3 5 5 5 5 d Y.'.G.G.G.G.=.b m 2.2.2.2.2.M m &.G.G.[.{.Y.z j j d -.r.g.h. X X XG.Z.j d 5 d 2.2.<.g.g.% % % @ o o <  X X",
"$ <.2.q.g 5 5 5 5 5 j }.H.G.G.G.B.m b -.2.2.2.2.Q ,.G.G.G. X X X{. XY.j j j 2.f.g.|. X XG.G.j j 5 0 2.2.-.p.g.% % % % o X -  X X",
"% 2.2.g.% 5 5 5 5 9 b.{.G.G.G.G.m m M -.2.2.2.6.>.G.G.G.>.' a.6.;.Q. X[.j j M 4.g.$X X XJ.G.H j 9 9 2.2.2.p.g.% % % % o X -  X{.",
"3 2.3.t.% 5 5 5 5 9 {.{.G.G.G.N.m m -.-.2.2.p.~ {.G.S.m t.;.b b j j U {.b.j j 2.g.g. X XJ.G.o.j d 5 <.<.2.t.g.% % % % o X V  X'.",
"x 2.p.h % 5 5 5 9 w  XP.G.G.G.! b M 2.2.2.3.q.{.P.G.m ` [ b b b j j j $. Xj j 2.a.g. X XQ.&X%.j d 9 [ [ -.r.g.% % % % o X L  XP.",
"{ 2.s.& & 5 5 5 3 #. XJ.G.G.G.m b M 2.2.2.f.,. XH.&.b i.b b v O . q j j {.D j 2.t.g.{. XQ.%X%.j j w 2.2.-.q.g.% % % % o X k. XH.",
"<.2.g.& & 5 5 5 9 U. XH.G.G.N.m b _ 2.2.2.g.W.{.G.m ) f.b b O X   . d d {.~ j 2.r.g. X{.G.G.@.j j x 2.2.3.t.g.% % % % o X '. XG.",
"2.q.a.% , 5 5 5 5 {.{.G.G.G.o.m m ] 2.2.7.g. X XG.m ` f.M v O X   . j j {.z j 3.t.i. X'.G.G.o.j j ] 2.2.<.u.t.% % % % O o {.{.Z.",
"2.a.0.% % 5 5 5 5  X{.H.G.S.u m m ] 2.2.y.g. X XJ.m ) f.m m n O . q j j P.j ) 2.f.!  XG.G.G.p j d 2.2.2.3.s.oX% % % % O o {.L.j.",
"2.g.( % % 9 5 5 5  X XH.G.G.k m m ] 2.2.a.g. X X[.M m f.3.m b b j j j z.$.j 2.2.g.b.P.G.G.G.j j l 2.2.2.[ g.*XW % % % o V  XG.Z ",
"2.g.g % % 5 5 9 5  X{.H.G.G.j v m ` 2.2.i.g. X X{.m m r.f.;.b b j j U I.j 2.2.7.b {.G.G.G.N.j j ] 2.2.2.3.g.& % % % % o R.'.G.- ",
"2.g.6 % % 5 5 0 6  X XL.G.G.j k b ) 2.2.t.s.|. X{.>.b b a.g.^.!.c.E.K ' 2.2.2.` x.G.G.G.S.k j j 2.2.2.2.8.3.% % % % $ X  XH.G.o ",
"3.g.6 % $ 5 5 W Y  X X'.G.G.u j m v 2.2.4.g.^. X X Xm m b u.f.f.f.g.g.2.2.2.b z G.S.G.G.C.j j -.2.2.2.2.f.0 % % % % % B  XH.Z.o ",
"3.g.s % % 4 5 g Y  X X XG.G.G j v m 2.2.3.g.g. X X X[.m b b ) y.r.3.2.2.) j k G.G.G.G.S.u j n 2.2.2.2.2.y.5 % % % % + '.J.G.Z =X",
"3.g.f % % ; 5 5 5 T. X XG.S.%.j j m _ 2.3.i.g.$X X X{.{.~ m b b j j j j j J G.G.G.G.G.o.j j 2.2.2.2.2.u.9 % % % % % =  XG.H.O =X",
"4.s.^ % % % 5 5 5 #. X XK.G.Z.j j v b 2.2.2.g.g.). X X X XJ.*.! j j k @.G.G.G.G.G.G.z.d d 2.2.2.2.2.3. .5 % % % % % R.H.G.Z.o =X",
"=Xg.<.% % % 5 5 5 r  X X{.G.G.j j j b _ 2.2.7.g.g.). X X X X'.K.G.G.G.H.G.G.G.H.'.z.d k 2.2.2.2.2.3.t.5 1 % % % % 8 P.G.G.B o =X",
"=Xg.i.% % % % 5 5 5  X X XG.G.+.j j l m 2.2.2.q.g.g.^.{. X X X X X{.{.[.{.{. X{.K j b 3.2.2.2.2.2.4.0 5 % % % % % ].H.G.G.o =X=X",
"=Xg.g.% % % % 5 5 5 I. X X[.G.G.j j j l b 2.2.2.7.g.g.g.(. X X X X X X{. X X$.j l i.2.2.2.2.2.2.<.l 5 , % % *X% I H.G.G.Z o =X=X",
"=Xg.g.% % % % % 5 5 r {. X XG.G.o.j j 0 j M 2.2.2.2.a.g.g.g.d./.F.D.c.U k v :.a.r.2.2.2.2.2.2.2.x 5 5 $ % % % 2 H.G.G.S.X =X=X=X",
"=X=Xg.g % % % % 5 5 5 [. X X'.G.S.j 0 5 5 w b 2.2.2.2.3.i.g.g.g.g.g.g.g.g.g.t.2.2.2.2.2.2.2.2.d 5 5 % % % % % G.G.G.G.B X =X=X=X",
"=X=Xg.5.% % % % % 5 5 S  X X XJ.S.B.5 5 5 5 5 v [ 2.2.2.2.2.3.7.w.r.8.4.3.2.2.2.2.2.2.2.2.<.5 5 5 , % % % % A.G.G.G.A.X o =X=X=X",
"=X=Xg.g.% % % % % , 5 5 T. X X XG.S.%.5 5 5 5 5 9 M 2.2.2.2.2.2.3.2.2.2.[ 3.2.2.2.2.2.2.n 5 5 5 , % % % $ j.G.G.G.G.o o =X=X=X=X",
"=X=X=Xg.f % % % % % 5 5 5 {. X X XG.G.#.5 5 5 5 5 5 5 l -.-.-.2.2.2.2.2.2.2.<.<.2.<.n 5 5 5 5 , % % % % O.G.G.G.G.< o =X=X=X=X=X",
"=X=X=Xg.g.% % % % % % 5 5 F  X X X XG.G.O.5 5 5 5 5 9 3 5 5 v ` 2.2.2.2.2.2.{ / 9 5 5 5 5 5 , % % % % j.G.G.G.G.P o o =X=X=X=X=X",
"=X=X=X=Xg.=X% % % % % % 5 5 m. X X X{.G.S.V.9 5 5 5 3 9 5 5 5 5 5 5 5 5 5 5 5 Y 5 5 5 5 5 % % % @ , S.G.G.G.G.j.o o =X=X=X=X=X=X",
"=X=X=X=Xg.g.=X% % % % % & 5 5 b. X X X XH.S.G.S 5 5 5 5 5 5 5 5 5 5 5 5 5 X..X+X1.9 5 1 % % % % A G.G.G.G.S.k.o o =X=X=X=X=X=X=X",
"=X=X=X=X=Xg.=X% % % % % % % 5 5 n.{. X X XP.G.G.V.r 3 9 3 9 5 5 5 5 5 5 5 5 5 Y 5 , % % % % y Z.G.G.G.G.G.M.o o o =X=X=X=X=X=X=X",
"=X=X=X=X=X=Xg.=X$ % % % % % % 5 5 #. X X X X'.H.G.S.A.S 9 3 5 5 5 5 5 5 9 5 3 1 % % % % Z Z.S.G.G.G.G.J.n.O o o =X=X=X=X=X=X=X=X",
"=X=X=X=X=X=Xg.=X=X% % % % % % % 1 E t {. X X X X'.H.G.H.G.N.S e 5 , , % % % % % 2 A C.G.G.G.G.G.G.H.'.F % % + =X=X=X=X=X=X=X=X=X",
"=X=X=X=X=X=X=Xg.=X=X% % % % % % % OX3 5 I. X X X'. X'.H.G.G.G.G.S.S.S.C.Z.S.G.G.G.G.G.G.G.G.G.J.'.E.2 % % @ =X=X=X=X=X=X=X=X=X=X",
"=X=X=X=X=X=X=X=Xg.=X=X% % % % % % % % & 5 r E. X X X X X X'.H.H.G.G.G.G.G.G.G.G.H.H.G.H.J.'. X{.C % % % % =X=X=X=X=X=X=X=X=X=X=X",
"=X=X=X=X=X=X=X=X=X=X=X=X=X% % % % % % % % % 5 r U. X X X X X'. X X'.'.P.L.L.L.P.'.'.'. X X'.C % % % % =X=X=X=X=X=X=X=X=X=X=X=X=X",
"=X=X=X=X=X=X=X=X=X=X=X=X=X=X% % % % % % % % % % & 5 I E. X X X X X X X X X X X X X X'.#.; % % % % % =X=X=X=X=X=X=X=X=X=X=X=X=X=X",
"=X=X=X=X=X=X=X=X=X=X=X=X=X=X=X=X% % % % % % % % % % % % % 2 F n.R.'.{.].].T.M.I 8 ; : % $ ; % % =X=X=X=X=X=X=X=X=X=X=X=X=X=X=X=X",
"=X=X=X=X=X=X=X=X=X=X=X=X=X=X=X=X=X% % % % % % % % $ % % $ % % % % % % % % % % % % % % % % % % =X=X=X=X=X=X=X=X=X=X=X=X=X=X=X=X=X",
"=X=X=X=X=X=X=X=X=X=X=X=X=X=X=X=X=X=X=X=X% % % % % % % % % % % % % % % % % % % % % % % % =X=X=X=X=X=X=X=X=X=X=X=X=X=X=X=X=X=X=X=X",
"=X=X=X=X=X=X=X=X=X=X=X=X=X=X=X=X=X=X=X=X=X=X% % % % % % % % % % % % % % % % % % % % =X=X=X=X=X=X=X=X=X=X=X=X=X=X=X=X=X=X=X=X=X=X",
"=X=X=X=X=X=X=X=X=X=X=X=X=X=X=X=X=X=X=X=X=X=X=X=X=X=X% % % % % % % % % % % % =X=X=X=X=X=X=X=X=X=X=X=X=X=X=X=X=X=X=X=X=X=X=X=X=X=X"
};
