/* XPM */
static char *result[] = {
/* columns rows colors chars-per-pixel */
"64 64 49 1 ",
"  c #232324",
". c gray18",
"X c #343434",
"o c #3D3D3D",
"O c #3F3F41",
"+ c #434344",
"@ c #474749",
"# c #4C4C4C",
"$ c #535353",
"% c #575759",
"& c #5C5C5C",
"* c #636363",
"= c #676768",
"- c #6C6C6C",
"; c #6F6F71",
": c #747475",
"> c #777779",
", c #7C7C7C",
"< c #7F7F80",
"1 c #838383",
"2 c #868688",
"3 c #8B8B8C",
"4 c #8F8F90",
"5 c #949494",
"6 c #979798",
"7 c #9B9B9C",
"8 c #9F9FA0",
"9 c #A3A3A4",
"0 c #A7A7A8",
"q c #ABABAB",
"w c #AFAFB0",
"e c #B3B3B4",
"r c #B7B7B8",
"t c #BCBCBC",
"y c #BFBFC0",
"u c #C4C4C4",
"i c #C7C7C8",
"p c #CBCBCC",
"a c #CFCFD0",
"s c #D3D3D4",
"d c #D7D7D8",
"f c #DBDBDB",
"g c #DFDFE0",
"h c #E3E3E4",
"j c #E7E7E8",
"k c #EBEBEC",
"l c #EFEFF0",
"z c #F3F3F4",
"x c None",
/* pixels */
"&xxxxxxxxxxxxxxxxxx@1xxxxxxxxxxxxxxxxxxxxx&xxxxxxxxxxxxxxxxxxxxx",
"75xxxxxxxxxxxxxxxxxxkxxxxxxxxxxxxxxxxxxxxxlxxxxxxxxxxxxxxxxxx:xx",
"x35xxxxxxxxxxxxxxxxx6xxxxxxxxxxxxxxxxxxxxx2xxxxxxxxxxxxxxxxxe:xx",
"xx35xxxxxxxxxxxxxxxx9zxxxxxxxxxxxxxxxxxxxh+xxxxxxxxxxxxxxxx7,xxx",
"xxx55xxxxxxxxxxxxxxxsdhxxxxxxxxxxxxxxxxxiz$xxxxxxxxxxxxxxx8:xxxx",
"xxxx-5xxxxxxxxxxxxxxh::txxxxxxxxxxxxxxxq$:4xxxxxxxxxxxxxx9:xxxxx",
"xxxxx:k2xxxxxxxxxxx7#xd#ixxxxxxxxxxxxxixuxkxxxxxxxxxxxxx9,xxxxxx",
"xxxxxxsird-xxxxxxxe2xxixxk=xxxxxxxxx:dxxjxuxxxxxxxxxxxxq,xxxxxxx",
"xxxxxxxzqx#7hkfgkexxxx@1xx:z1xxxxxqk&xx$-xxrxxxxxxxxxx9,xxxxxxxx",
"xxxxxxx9&qxxxxxxxxxxxxxkxxxxx2dfi,xxxxxixxx,5xxxxxxxx9-xxxxxxxxx",
"xxxxxxxxa*exxxxxxxxxxxx1@xxxxxxxxxxxxxxdxxxx-k:xx+,szhxxxxxxxxxx",
"xxxxxxxxrx&txxxxxxxxxxxxuxxxxxxxxxxxxx&=xxxxxx#281x7-2xxxxxxxxxx",
"xxxxxxxxx5x&ixxxxxxxxxxxdxxxxxxxxxxxxxpxxxxxxxxxxx9:5xxxxxxxxxxx",
"xxxxxxxxxkxx$pxxxxxxxxxx&:xxxxxxxxxxxxsxxxxxxxxxx9:xtxxxxxxxxxxx",
"xxxxxxxxx9xxx#dxxxxxxxxxxzxxxxxxxxxxx=&xxxxxxxxx8:xxdxxxxxxxxxxx",
"xxxxxxxxx,+xxx#dxxxxxxxxxzf&xxxxxxxx5z+xxxxxxxx7:xxxhxxxxxxxxxxx",
"xxxxxxxxx#&xxxx@dxxxxxxx5.7-k2xxx$ed.shxxxxxxx8:xxxxdxxxxxxxxxxx",
"xxxxxxxxx-#xxxxx+dxxxxxxrxkxx@6e7&xx1#:2xxxxx7:xxxxx6xxxxxxxxxxx",
"xxxxxxxxxsxxxxxxxole&&euxx**xxxxxxxxhxx1p#xx9>xxxxxxxqxxxxxxxxxx",
"xxxxxxxx&9xxxxxxxxjgxxxxxxxfxxxxxxxxqxxxx,0ghxxxxxxxx0#xxxxxxxxx",
"-xxxxxx3ixxxxxxxxxfXhxxxxxxsxxxxxxx3xxxxxx52sxxxxxxxxxp=xxxxxxxx",
"otd2rhixxxxxxxxxxxkxxhxxxxxx2xxxxxxkxxxxx5>xkxxxxxxxxxx1h2xxx,hx",
"xxxzid=xxxxxxxxxxxrxxxjxxxxxkxxxxxxqxxxx5,xx9xxxxxxxxxxxxXaztoxx",
"xxxxhx$ip$xxxxxxxkxxxxxkxxxxprxxxxe:xxx3,xxxxhxxxxxxxxx3kezoxxxx",
"xxxx*9xxx*he@xx1hxxxxxxxk#x&uij1,hzixx3,xxxxxxhxxxxx3h9xxhxxxxxx",
"xxxxxroxxxxx*kz$xxxxxxxxxz-#xhxxxxee,i3xxxxxxxxte6z7xxxxpxxxxxxx",
"xxxxxxhxxxxxxx9plwxxxxxxxdkxx*=xx6xx6zxxxxxxxxqkzxxxxxx$2xxxxxxx",
"xxxxxx5xxxxxxxx9*x5k7xxxxtxkxxhxxkx5,kxxxx@tk2x2$xxxxxxhxxxxxxxx",
"xxxxxxxixxxxxxxxgxxxxrkskxxxkxtxx65,x:i:9k<xxxxfxxxxxxxuxxxxxxxx",
"xxxxxxxhxxxxxxxxxexxxxx6kh-xxk 7932xxqzexxxxxx3xxxxxxx##xxxxxxxx",
"xxxxxxx2xxxxxxxxxhxxxxxxixxuk$kkz3qk,xsxxxxxxxkxxxxxxx2xxxxxxxxx",
"xxxxxxx#@xxxxxxxxtxxxxxx*Oxxx&izz,xxx*xxxxxxxxhxxxxxxx6xxxxxxxxx",
"xxxxxxxx,xxxxxxxxrxxxxxx3xxx$dzzz9k:xo:xxxxxxxpxxxxxxx-@xxxxxxxx",
"xxxxxxxo<xxxxxxxxgxxxxxxkx5h-,56ldo#puhoxxxxxxhxxxxxxxx5xxxxxxxx",
"xxxxxxx&$xxxxxxxxdxxxxx7ktxx22hxhxdoxxrz7xxxxxdxxxxxxxxhxxxxxxxx",
"xxxxxxxqxxxxxxxx:@xxx,k7:i$53$1xexxd+x5xxuf$xx$2xxxxxxxyxxxxxxxx",
"xxxxxxxkxxxxxxxxpxxtp@xxxxh2xkxx,xxxd1xxxxx*f9xdxxxxxxx+6xxxxxxx",
"xxxxxx+3xxxxxxxf&k6xxxxxx9pj=-qr@&jedz#xxxxxxxekzxxxxxxxdxxxxxxx",
"xxxxxxfxxxxxxxpzi-xxxxxx:2xoz6xxdzxxxxf#xxxxxhr17fu@xxxxxqxxxxxx",
"xxxxx*-xxxx&g7xxx&kxxxx,2xx2%xxxxsxxxxxd#xxxkxxxxxx2l5xxxe#xxxxx",
"xxxxxaxxx8f$xxxxxxxkxx52xxxfxxxxxhxxxxxxs#xx:xxxxxxxxxqs*xkxxxxx",
"xxxxkx*fqxxxxxxxxxx9x33xxx9xxxxxxhxxxxxxxa#$+xxxxxxxxxxx:k0dxxxx",
"xxxk:k:xxxxxxxxxxxx52,xxxxixxxxxxtxxxxxxxxp-xxxxxxxxxxxxxx zh1xx",
"xozaxxxxxxxxxxxxxxxukqhOxexxxxxxx2xxx-kdtihz:xxxxxxxxxxxx4yxx@ex",
"x&x1d9xxxxxxxxxxxx22xxxkxexx-,*xx#*xs*xxxxxxt$xxxxxxxxxxp&xxxxxx",
"xxxxxxd-xxxxxxxxx15xxxxsf#j3xx-f1x5rxxxxxxxxxt$xxxxxxxx9-xxxxxxx",
"xxxxxxx9&xxxxxxx17xxxxxqz&xxxxxx=5d2xxxxxxxxxxt&xxxxxxxtxxxxxxxx",
"xxxxxxxxkxxxxxx15xxxxxxdxxxxxxxxx,zxxxxxxxxxxxxt&xxxxxqxxxxxxxxx",
"xxxxxxxx5xxxxx16xxxxxx+:xxxxxxxxxxkxxxxxxxxxxxxxr=xxxxhxxxxxxxxx",
"xxxxxxxxx-xxx16xxxxxxxkxxxxxxxxxxxexxxxxxxxxxxxxxr=xxxdxxxxxxxxx",
"xxxxxxxxx,xx15xxxxxxx,-xxxxxxxxxxx<xxxxxxxxxxxxxxxq-xxdxxxxxxxxx",
"xxxxxxxx+-x<5xxxxxxxxkxxxxxxxxxxxx#=xxxxxxxxxx=,<#xq;xkxxxxxxxxx",
"xxxxxxxx2x16xxxxxxxx:#xxxxxxxxxxxxx5xxxxxxx1h2+x+:siq:txxxxxxxxx",
"xxxxxxxxd>6x$&xxxxxxfxxxxxxxxxxxxxxuxxxxxxj$xxxxxxxxez4&xxxxxxxx",
"xxxxxxxxzzk2xx6sxxx9xxxxxxxxxxxxxxxkxxxxofxxxxxxxxxxxxlkxxxxxxxx",
"xxxxxxx1yxxxxxx&7xxpxxxph2-,ek9xxxxhxxxxaxxxxxxxxxxxxxxi,xxxxxxx",
"xxxxxx:9xxxxxxxxkxexxh1xxxxxxxxu5xxrxxxdxxxxxxxxxxxxxxxxq2xxxxxx",
"xxxxx>7xxxxxxxxxexi2uxxxxxxxxxxx+hx1xxkxxxxxxxxxxxxxxxxxx62xxxxx",
"xxxx:9xxxxxxxxxx6tp:xxxxxxxxxxxxxxko-9+xxxxxxxxxxxxxxxxxxx62xxxx",
"xxx;7xxxxxxxxxxxez@xxxxxxxxxxxxxxxxziqxxxxxxxxxxxxxxxxxxxxx63xxx",
"xx=6xxxxxxxxxxxxkxxxxxxxxxxxxxxxxxxxgxxxxxxxxxxxxxxxxxxxxxxx53xx",
"x&qxxxxxxxxxxxxx9xxxxxxxxxxxxxxxxxxxkxxxxxxxxxxxxxxxxxxxxxxxx53x",
"xxxxxxxxxxxxxxxuxxxxxxxxxxxxxxxxxxxxixxxxxxxxxxxxxxxxxxxxxxxxx<1",
"xxxxxxxxxxxxxxxxxxxxxxxxxxxxxxxxxxxxxxxxxxxxxxxxxxxxxxxxxxxxxxxx"
};
