/* XPM */
static char *_c811953888b45b7cf7d448c7179585ePGWYmCDGOaTAhiO9[] = {
/* columns rows colors chars-per-pixel */
"64 63 223 2 ",
"   c None",
".  c #E69901",
"X  c #E69905",
"o  c #E99B00",
"O  c #EB9A00",
"+  c #EA9B00",
"@  c #EB9B00",
"#  c #EB9A01",
"$  c #EA9B01",
"%  c #EB9B01",
"&  c #EB9902",
"*  c #E99B02",
"=  c #EA9B03",
"-  c #EC9901",
";  c #EC9A00",
":  c #ED9A00",
">  c #EC9B00",
",  c #ED9B00",
"<  c #EC9A01",
"1  c #EC9B01",
"2  c #E89C01",
"3  c #EA9C00",
"4  c #EB9C00",
"5  c #EA9D00",
"6  c #EA9C01",
"7  c #EB9C01",
"8  c #EA9D01",
"9  c #EB9E00",
"0  c #EA9C02",
"q  c #EB9C02",
"w  c #EB9E02",
"e  c #EC9C00",
"r  c #EC9D01",
"t  c #E89A04",
"y  c #E19709",
"u  c #EAA001",
"i  c #EAA101",
"p  c #EAA102",
"a  c #ECA301",
"s  c #EBA702",
"d  c #EBA703",
"f  c #E7AE04",
"g  c #EAA902",
"h  c #EAAA03",
"j  c #EAAA04",
"k  c #EBAC04",
"l  c #E9B106",
"z  c #EBB306",
"x  c #E9B406",
"c  c #EBB406",
"v  c #EBB707",
"b  c #EAB808",
"n  c #E9BB0A",
"m  c #EBBA0A",
"M  c #EFBF0A",
"N  c #E9B80C",
"B  c #EAC00A",
"V  c #EBC20F",
"C  c #EAC40C",
"Z  c #EBD10F",
"A  c #E6C113",
"S  c #E5CC17",
"D  c #EBCA10",
"F  c #EBC912",
"G  c #E9CD11",
"H  c #EDCD12",
"J  c #EBD113",
"K  c #ECD217",
"L  c #EBD514",
"P  c #EAD614",
"I  c #EBD615",
"U  c #EDD417",
"Y  c #EDDA16",
"T  c #E3D61E",
"R  c #EAD71A",
"E  c #EDE31B",
"W  c #ECE71B",
"Q  c #EBE01D",
"!  c #EBE31D",
"~  c #EAE11E",
"^  c #EBE31E",
"/  c #EAE31F",
"(  c #EBE41D",
")  c #EBE71C",
"_  c #EBE61D",
"`  c #EBE71D",
"'  c #E8E51E",
"]  c #EAE41F",
"[  c #EAE71E",
"{  c #EBE71E",
"}  c #EBE61F",
"|  c #EAE71F",
" . c #EBE71F",
".. c #ECE71F",
"X. c #EBE81C",
"o. c #EBE81D",
"O. c #EBE81E",
"+. c #EAE81F",
"@. c #EBE81F",
"#. c #ECE81D",
"$. c #ECE81E",
"%. c #ECE81F",
"&. c #EDE81F",
"*. c #D7D92B",
"=. c #DEDE28",
"-. c #D8DB2E",
";. c #D6D935",
":. c #DEE02F",
">. c #E0E021",
",. c #E2E222",
"<. c #E4E322",
"1. c #E5E324",
"2. c #EBE321",
"3. c #EBE223",
"4. c #EBE420",
"5. c #EBE521",
"6. c #E9E620",
"7. c #E9E721",
"8. c #EAE720",
"9. c #EBE720",
"0. c #EBE621",
"q. c #EAE721",
"w. c #EBE721",
"e. c #E8E522",
"r. c #EAE422",
"t. c #E9E622",
"y. c #E9E722",
"u. c #E9E723",
"i. c #EAE622",
"p. c #EAE722",
"a. c #EBE722",
"s. c #EAE723",
"d. c #EBE723",
"f. c #ECE721",
"g. c #E9E724",
"h. c #E9E625",
"j. c #E8E726",
"k. c #EAE820",
"l. c #EBE820",
"z. c #EBE821",
"x. c #EAE822",
"c. c #EBE822",
"v. c #EAE823",
"b. c #EBE823",
"n. c #ECE820",
"m. c #ECE821",
"M. c #ECE822",
"N. c #ECE823",
"B. c #EBE824",
"V. c #EBE827",
"C. c #ECE826",
"Z. c #EEE927",
"A. c #EBE92B",
"S. c #ECE930",
"D. c #ECE931",
"F. c #EBE936",
"G. c #ECE935",
"H. c #EDEA39",
"J. c #EEEB3D",
"K. c #ECEA41",
"L. c #EDEA41",
"P. c #EEEB43",
"I. c #EFED55",
"U. c #EEEC58",
"Y. c #F1EE63",
"T. c #F1EF6D",
"R. c #F1EF6E",
"E. c #F1EF6F",
"W. c #F3F075",
"Q. c #F1F07A",
"!. c #F3F17B",
"~. c #F3F187",
"^. c #F4F28B",
"/. c #F3F28D",
"(. c #F5F28C",
"). c #F5F390",
"_. c #F4F296",
"`. c #F5F39B",
"'. c #F4F39F",
"]. c #F5F4A2",
"[. c #F5F4A5",
"{. c #F7F6B4",
"}. c #F7F6B5",
"|. c #F7F7BA",
" X c #F8F6BD",
".X c #F8F7BE",
"XX c #F9F8BE",
"oX c #FAF7C6",
"OX c #F9F8C3",
"+X c #F9F8C4",
"@X c #F9F9CE",
"#X c #FAF9D1",
"$X c #FAF9D3",
"%X c #FAF9D5",
"&X c #FAF9D7",
"*X c #FAFAD6",
"=X c #FBFAD6",
"-X c #FBFAD7",
";X c #FBFBDC",
":X c #FBFBE0",
">X c #FCFCE5",
",X c #FCFCE9",
"<X c #FCFCEA",
"1X c #FDFCEB",
"2X c #FDFCED",
"3X c #FDFDEE",
"4X c #FDFDF0",
"5X c #FEFEF5",
"6X c #FEFDF8",
"7X c #FEFEF9",
"8X c #FEFDFA",
"9X c #FDFEFB",
"0X c #FEFEFA",
"qX c #FEFEFB",
"wX c #FEFEFC",
"eX c #FEFEFD",
"rX c #FFFEFD",
"tX c #FEFFFD",
"yX c #FFFFFD",
"uX c #FEFEFE",
"iX c #FEFFFE",
"pX c #FFFFFE",
"aX c white",
/* pixels */
"                                                                                                                                ",
"                                                                                                                                ",
"                                                                                                                                ",
"                                                                                                                                ",
"                                                                                                                                ",
"                                                                                                                                ",
"                                                                                                                                ",
"                                                                                                                                ",
"                                                  <.{ $.-.                                                                      ",
"                                                9.c.o.n.c.{ A                                                                   ",
"                                              ;.9.^.rXrX|.c.c.M                                                                 ",
"                                              9.G.rXrXrX&Xc.c.c.x                                                               ",
"                                              o.].rX&Xc.$.c.c.n.9.j                                                             ",
"                                              $.1XrXT.c.c.c.c.c.c.{ i                                                           ",
"                                            9.c.rXrXA.c.c.c.c.c.c.c.! @                                                         ",
"                                            { D.rX7Xo.c.c.c.c.c.c.c.c.! N ,.=.9.$.h.n.n.9.9.9.T                                 ",
"                                            $.I.rX1Xc.c.c.c.c.c.c.c.c.c.B.c.h.C.Y.[.$X&X{.D.c.n.b                               ",
"                                            9.(.rX+Xc.c.c.c.c.c.c.c.c.c.c.$.:XrXrXrXrXrXrXoXc.c.! @                             ",
"                                            c. XrX).c.c.c.c.c.c.c.c.c.c.c.o.3XrX1X{.Q.W.`.F.c.c.9.q q                           ",
"                                          9.{ 3XrXU.c.c.c.c.c.c.c.c.c.c.c.o.c.c.c.9.B.c.c.c.n.c.E q q                           ",
"                                      1.{ c.P.rXrXC.c.c.c.c.c.c.c.c.c.c.c.c.c.c.c.c.c.c.c.c.c.c.D q >                           ",
"                                  9.o.{ P.OXrXrX$Xc.c.c.c.c.c.c.c.c.c.c.c.c.c.c.c.c.c.c.c.c.c.c.i q q                           ",
"                              9.n.o./.5XrXrXrX@X9.c.c.c.c.c.c.c.9.c.c.c.c.c.c.c.c.c.c.c.c.c.9.I q q @                           ",
"                          9.n.o.~.7XrXrX7XXXJ.c.9.c.c.c.c.c.c.c.c.c.c.c.c.c.c.c.c.c.c.c.c.c.{ i q q                             ",
"                        { c.{ &XrXrX4XT.9.$.c.c.c.c.c.c.c.c.c.c.c.c.c.c.c.c.c.c.c.c.c.c.c.9.D q q t                             ",
"                      :.c.P.T.+X7XQ.c.c.c.c.c.c.c.c.c.c.c.c.c.c.c.c.c.c.c.c.c.c.c.c.c.c.c.{ q q q                               ",
"                      h.B.7X7XH.o.c.c.c.c.c.c.c.c.c.c.c.c.c.c.c.c.c.c.c.c.c.c.c.c.c.c.9.c.z e q y                               ",
"                      9.c.;X&Xo.c.c.c.c.c.c.c.c.c.c.c.c.c.c.c.c.c.c.c.c.c.c.c.c.c.c.c.c.R q q e                                 ",
"                        9.o.9.o.c.c.c.c.c.c.c.c.c.c.c.c.c.c.c.c.c.c.c.c.c.c.c.c.c.c.c.c.b q >                                   ",
"                        *.9.c.c.c.c.c.c.c.c.c.c.c.c.c.c.c.c.c.c.c.c.c.c.c.c.c.c.c.c.c.c.2.q >                                   ",
"                          ,.n.c.c.c.c.c.c.c.c.c.c.c.c.c.c.c.c.c.c.c.c.c.c.c.c.c.c.c.c.c.c.x e                                   ",
"                              f.c.n.c.c.c.c.c.c.c.c.c.c.c.c.c.c.c.c.c.c.c.c.c.c.c.c.c.c.c.9.>                                   ",
"                                  { c.c.c.c.c.c.c.c.c.c.c.c.c.c.c.c.c.c.c.c.c.c.c.c.c.c.c.$.z q                                 ",
"                                    C ! c.c.c.c.c.c.c.c.c.c.c.c.c.c.c.c.c.c.c.c.c.c.c.c.c.c.! @                                 ",
"                                        Z c.c.c.c.c.c.c.c.c.c.c.c.c.c.c.c.c.c.c.c.c.c.c.c.c.9.d @                               ",
"                                          c.c.c.c.c.c.c.c.c.c.c.c.c.c.c.c.c.c.c.c.c.c.c.c.c.$.G @                               ",
"                                          c.c.c.c.c.c.c.c.c.c.c.c.c.c.c.c.c.c.c.c.c.c.c.c.c.9.{ @ X                             ",
"                                          c.c.c.c.c.c.c.c.c.c.c.c.c.c.c.c.c.c.c.c.c.c.c.c.c.c.9.@ q                             ",
"                                          9.c.c.c.c.c.c.c.c.c.c.c.c.c.c.c.c.c.c.c.c.c.c.c.c.h...> q                             ",
"                                          9.c.c.9.c.c.c.c.c.c.c.c.c.9.9.c.c.c.c.c.c.c.c.c.c.c.Y q >                             ",
"                                          W o. X_.c.c.c.c.c.c.c.c.{ f i b I 9.9.c.c.c.c.c.c.9.q e @                             ",
"                                          o.B.rXrXo.c.c.c.c.c.n.9.h q q q q @ q k B J I H x > q q q                             ",
"                                            9.rXrXF.c.c.c.c.c.9.h q @ q           @ q @ q @ q q @                               ",
"                                            { '.>Xn.c.c.c.9.9.d q q >                                                           ",
"                                            9.9.$.c.c.c.c.2.i @ q >                                                             ",
"                                              c.{ c.{ { U q q q q                                                               ",
"                                                S K V a > > @ .                                                                 ",
"                                                    > q e @                                                                     ",
"                                                                                                                                ",
"                                                                                                                                ",
"                                                                                                                                ",
"                                                                                                                                ",
"                                                                                                                                ",
"                                                                                                                                ",
"                                                                                                                                ",
"                                                                                                                                ",
"                                                                                                                                ",
"                                                                                                                                ",
"                                                                                                                                ",
"                                                                                                                                ",
"                                                                                                                                ",
"                                                                                                                                ",
"                                                                                                                                "
};
