/* XPM */
static char *result[] = {
/* columns rows colors chars-per-pixel */
"64 64 192 2 ",
"   c #020101",
".  c #0C0101",
"X  c #01050C",
"o  c #03080F",
"O  c #0A0B0B",
"+  c #130101",
"@  c #1B0101",
"#  c #1A080D",
"$  c #010711",
"%  c #040911",
"&  c #030C1B",
"*  c #1F0712",
"=  c #120B17",
"-  c #140A18",
";  c #131212",
":  c #1A1313",
">  c #1C1B1B",
",  c #240202",
"<  c #2B0202",
"1  c #250808",
"2  c #2C0A0A",
"3  c #250409",
"4  c #340202",
"5  c #3C0101",
"6  c #330A0A",
"7  c #3C0909",
"8  c #280712",
"9  c #240713",
"0  c #360A19",
"q  c #211B1B",
"w  c #010F25",
"e  c #080E22",
"r  c #130C20",
"t  c #041027",
"y  c #0A1225",
"u  c #02122D",
"i  c #0A142B",
"p  c #101026",
"a  c #18122C",
"s  c #0B1A33",
"d  c #00173B",
"f  c #0D173A",
"g  c #02193E",
"h  c #0D1C3D",
"j  c #0A1433",
"k  c #111637",
"l  c #290F25",
"z  c #251128",
"x  c #3A1027",
"c  c #31122D",
"v  c #2F1534",
"b  c #3B193F",
"n  c #321839",
"m  c #252525",
"M  c #282626",
"N  c #2C2D2D",
"B  c #262A2A",
"V  c #302F2F",
"C  c gray20",
"Z  c gray23",
"A  c #430202",
"S  c #4B0102",
"D  c #450C0C",
"F  c #4A0A0B",
"G  c #43050B",
"H  c #530202",
"J  c #5C0101",
"K  c #5B060C",
"L  c #530D0D",
"P  c #5B0B0B",
"I  c #57060C",
"U  c #4A0B19",
"Y  c #580B15",
"T  c #4A1010",
"R  c #521010",
"E  c #640101",
"W  c #6C0202",
"Q  c #600408",
"!  c #630A0A",
"~  c #6C0D0D",
"^  c #6B0509",
"/  c #740202",
"(  c #7B0101",
")  c #730909",
"_  c #7B0B0B",
"`  c #610710",
"'  c #661414",
"]  c #6D1414",
"[  c #6C1719",
"{  c #731111",
"}  c #7B1515",
"|  c #761919",
" . c #7C1919",
".. c #41192B",
"X. c #711D29",
"o. c #031E4B",
"O. c #091C46",
"+. c #181D43",
"@. c #2F1C46",
"#. c #0D234C",
"$. c #042254",
"%. c #0F2152",
"&. c #03255C",
"*. c #0B2459",
"=. c #132C54",
"-. c #042762",
";. c #042864",
":. c #042B6B",
">. c #0C296A",
",. c #132969",
"<. c #13366D",
"1. c #042E73",
"2. c #092D71",
"3. c #02317B",
"4. c #0B337A",
"5. c #193C73",
"6. c #434444",
"7. c #4A4B4B",
"8. c #535454",
"9. c #565858",
"0. c gray35",
"q. c #636464",
"w. c #6B6C6C",
"e. c #7D7D7D",
"r. c #707272",
"t. c #830202",
"y. c #8B0202",
"u. c #850D0D",
"i. c #8B0808",
"p. c #930202",
"a. c #9C0202",
"s. c #9C0B0B",
"d. c #8C1112",
"f. c #9C1516",
"g. c #991818",
"h. c #911C1C",
"j. c #A30202",
"k. c #AC0202",
"l. c #A30A0A",
"z. c #AB0C0C",
"x. c #AD050A",
"c. c #B40202",
"v. c #BB0202",
"b. c #B50A0A",
"n. c #BB0D0D",
"m. c #A31515",
"M. c #AB1616",
"N. c #A21D1D",
"B. c #B31313",
"V. c #BF1E1E",
"C. c #B81717",
"Z. c #932121",
"A. c #A62525",
"S. c #B42626",
"D. c #BE2423",
"F. c #C20202",
"G. c #C60C0C",
"H. c #CB0B0B",
"J. c #C21313",
"K. c #C91313",
"L. c #C11C1C",
"P. c #CE2424",
"I. c #C42A2A",
"U. c #CB2929",
"Y. c #D32323",
"T. c #013484",
"R. c #0D3A81",
"E. c #01368A",
"W. c #01388F",
"Q. c #123F85",
"!. c #023991",
"~. c #0A3F94",
"^. c #1A4385",
"/. c #094095",
"(. c #2156AB",
"). c #828282",
"_. c #8B8B8B",
"`. c #949494",
"'. c #9D9D9D",
"]. c #A4A5A5",
"[. c #ADADAD",
"{. c gray70",
"}. c #BCBCBC",
"|. c #C3C3C3",
" X c #CBCBCB",
".X c #D3D3D3",
"XX c #DCDCDC",
"oX c #E2E2E2",
"OX c #EDEDED",
"+X c #F4F4F4",
"@X c #FEFEFE",
"#X c None",
/* pixels */
"#X#X#X#X#X#X#X#X#X#X#X#X#X#X#X#X#X#X#X#X#X#X#X#X#X#X. + 4 A A S 7 2 1 + #X#X#X#X#X#X#X#X#X#X#X#X#X#X#X#X#X#X#X#X#X#X#X#X#X#X#X#X",
"#X#X#X#X#X#X#X#X#X#X#X#X#X#X#X#X#X#X#X#X#X#X#X#X+ + , S y.c.F.G.m.' ' 7 @ # #X#X#X#X#X#X#X#X#X#X#X#X#X#X#X#X#X#X#X#X#X#X#X#X#X#X",
"#X#X#X#X#X#X#X#X#X#X#X#X#X#X#X#X#X#X#X#X2 D I ) l.c.c.c.v.F.c.a.p.W W l.m.C.] T . #X#X#X#X#X#X#X#X#X#X#X#X#X#X#X#X#X#X#X#X#X#X#X",
"#X#X#X#X#X#X#X#X#X#X#X#X#X#X#X#X#X#X#X. F I.G.F.F.F.F.F.v.c.p.E p.v./ p.t.v.P.I.6 . #X#X#X#X#X#X#X#X#X#X#X#X#X#X#X#X#X#X#X#X#X#X",
"#X#X#X#X#X#X#X#X#X#X#X#X#X#X#X#X    ' d.n.F.F.F.F.F.a.p.a.( a.v.v.F.j.t.c.k.i.b.g.' 2   #X#X#X#X#X#X#X#X#X#X#X#X#X#X#X#X#X#X#X#X",
"#X#X#X#X#X#X#X#X#X#X#X#X#X#X#X#X. 2 J.F.F.F.v.v.c.c.W A j.v.F.F.F.F.p.S c.F.F.v.( P ] 2 . #X#X#X#X#X#X#X#X#X#X#X#X#X#X#X#X#X#X#X",
"#X#X#X#X#X#X#X#X#X#X#X#X#X#X  + ! z.a.p.p.a.k.p.( a.c.c.F.F.F.F.F.F.k.y.v.F.F.F.v.c.J.V.| 6 #X#X#X#X#X#X#X#X#X#X#X#X#X#X#X#X#X#X",
"#X#X#X#X#X#X#X#X#X#X#X#X#X#X+ 7 b.k.S 5 A H a.v.F.F.F.F.F.F.v.F.F.F.v.v.k.F.F.F.F.F.F.H.U.Z.1 #X#X#X#X#X#X#X#X#X#X#X#X#X#X#X#X#X",
"#X#X#X#X#X#X#X#X#X#X#X#X#X#X^ b.F.c./ t.p.y.v.F.v.F.F.F.F.F.F.F.F.F.F.c.t.F.F.F.F.v.F.F.H.Y. .  #X#X#X#X#X#X#X#X#X#X#X#X#X#X#X#X",
"#X#X#X#X#X#X#X#X#X#X#X#X#X+ z.F.F.c./ F.p.E c.F.F.F.F.F.F.F.F.F.F.v.F.c./ F.F.F.F.F.F.F.F.H.A.1 . #X#X#X#X#X#X#X#X#X#X#X#X#X#X#X",
"#X#X#X#X#X#X#X#X#X#X#X#X, E c.F.F.c.( F.v.k.t.p.v.F.F.F.F.F.F.F.F.F.k.y.t.a.c.F.F.F.F.F.F.F.K.S.# #X#X#X#X#X#X#X#X#X#X#X#X#X#X#X",
"#X#X#X#X#X#X#X#X#X#X#X#XS v.F.F.F.c.y.F.F.F.a.J j.v.v.F.F.F.F.F.v.c.t.H j.y.j.v.F.F.F.F.F.F.K.U.1   #X#X#X#X#X#X#X#X#X#X#X#X#X#X",
"#X#X#X#X#X#X#X#X#X#X#X#XJ F.F.F.v.c.y.( c.F.v.c.a.p.c.F.F.v.j.y.p.W k.v.a.E a.y.p.k.F.F.F.F.v.n. .  #X#X#X#X#X#X#X#X#X#X#X#X#X#X",
"#X#X#X#X#X#X#X#X#X#X#X. ( F.F.F.c.a.J . y.F.F.F.c.y.p.c.c.v.W 5 k.F.F.F.y.5 c.c.E t.k.c.c.v.k.y.h.. #X#X#X#X#X#X#X#X#X#X#X#X#X#X",
"#X#X#X#X#X#X#X#X#X#X#X. j.F.F.F.p.5 +   < J a.F.F.c.E J p.k.c.c.v.F.F.F.p.S c.F.c.c.p.W y.k.( A m.' + #X#X#X#X#X#X#X#X#X#X#X#X#X",
"#X#X#X#X#X#X#X#X#X#X#X+ k.F.F.F.y.+   O     A c.v.k.W W k.F.F.F.F.F.F.F.j./ v.F.F.F.F.F.F.F.y.5 B.A.# #X#X#X#X#X#X#X#X#X#X#X#X#X",
"#X#X#X#X#X#X#X#X#X#X#X< j.F.F.F.t.+ > 0.w.N . @ E / c.c.t.p.v.F.F.F.F.F.k.a.v.v.F.F.F.F.v.v./ W J.I.# #X#X#X#X#X#X#X#X#X#X#X#X#X",
"#X#X#X#X#X#X#X#X#X#X#XA a.F.F.v.E . M ). X_.;   , ( v.F.p.S c.F.F.F.v.F.v.c.v.F.F.F.F.F.F.c.E j.K.U.1 #X#X#X#X#X#X#X#X#X#X#X#X#X",
"#X#X#X#X#X#X#X#X#X#X5 E a.F.F.c.5   C '.OX+X`.Z . + ( v.c.j.p.F.F.F.F.F.v.k.v.F.F.F.F.F.c.y.j.c.s.L.1 #X#X#X#X#X#X#X#X#X#X#X#X#X",
"#X#X#X#X#X#X#X#X#X#X< / j.F.F.v.S   Z [.+X@X+X}.>   4 j.F.c.( v.v.v.c.c.k.a.k.v.F.F.F.F.p.S c.k._ n.6 #X#X#X#X#X#X#X#X#X#X#X#X#X",
"#X#X#X#X#X#X#X#X#X#X4 t.j.F.j.( W   6.}.@X@X@X@X_.> . @ a.F.p.J j.k.y.( y.c.a.j.a.a.v.v.p.y.v.k.I _ 1 #X#X#X#X#X#X#X#X#X#X#X#X#X",
"#X#X#X#X#X#X#X#X#X#X4 ( p.v.p.H W   6. X+X@X@X@X.Xq.O   W F.p.W c.F.F.F.F.v.c.c.E W k.k./ F.c.y., 5 + #X#X#X#X#X#X#X#X#X#X#X#X#X",
"#X#X#X#X#X#X#X#X#X#X4 ( / y.p.c./   6.|.+X@X@X@X@XoXZ   4 ( y.k.p.F.F.F.F.v.c.v.v.v.j./ ( v.E   A l.@ #X#X#X#X#X#X#X#X#X#X#X#X#X",
"#X#X#X#X#X#X#X#X#X#X< t.t.E E v.E   6.|.oX@X@X@X@X@Xe.    @ c.v.a.c.F.F.F.F.v.F.F.F.y.4 a.j.+   A b.@ #X#X#X#X#X#X#X#X#X#X#X#X#X",
"#X#X#X#X#X#X#X#X#X#X, J y.t.( c.H   Z ].XX@X@X@X@X@X{.C   + j.F.j./ a.a.p.p.j.v.F.c.p.k.W + ; M D s.@ #X#X#X#X#X#X#X#X#X#X#X#X#X",
"#X#X#X#X#X#X#X#X#X#X+ 5 t.y.a.v.(   M e..X@X@X@X@X@XoX`.;   ( F.k.t.E E S S ( c.c.j.a.k.<   N 0.6 ^ + #X#X#X#X#X#X#X#X#X#X#X#X#X",
"#X#X#X#X#X#X#X#X#X#X. @ t.p.t./ ( . O N }.XX@X@X@X@X@XoXm   S F.a.J t.k.a.( k.j.H J W 4 > 0.).: @ + #X#X#X#X#X#X#X#X#X#X#X#X#X#X",
"#X#X#X#X#X#X#X#X#X#X#X. t.p.W 5 t.4   ; {. X+X@X@X@X@X+X6.  5 v.p.J j.p.p.E c.k.E E <   7.oX].  ,   #X#X#X#X#X#X#X#X#X#X#X#X#X#X",
"#X#X#X#X#X#X#X#X#X#X#X. W p.( E j.a.+ O _. XXX+X@X@X@X@X'.O @ A W p.y.S W ( t.t.J + : 7.|.+Xr.  @   #X#X#X#X#X#X#X#X#X#X#X#X#X#X",
"#X#X#X#X#X#X#X#X#X#X#X  S p.y.t.a.c.@   0. X XXX@X@X@X@X|.Z   . J J t.y.E ( / a.@   7.|.@XOXN     #X#X#X#X#X#X#X#X#X#X#X#X#X#X#X",
"#X#X#X#X#X#X#X#X#X#X#X#X< / p.t.( c.W . V _.|. XXXOX+X@X@XXX6.  A c./ ( S 5 @ + q q..X@X.X`.: +   #X#X#X#X#X#X#X#X#X#X#X#X#X#X#X",
"#X#X#X#X#X#X#X#X#X#X#X#X+ 5 ( ( J a.p.5 . > [. X X XOX@X@X@X`.  A c./ ( E 5 .   q.@X@X@X`.> . @   #X#X#X#X#X#X#X#X#X#X#X#X#X#X#X",
"#X#X#X#X#X#X#X#X#X#X1 2 F K L E ! ~ t.y.5   C e.`.[.[.[._.w.> + E p.j.a.k.j.,   w.[.}.].6.. 4   #X#X#X#X#X#X#X#X#X#X#X#X#X#X#X#X",
"#X#X#X#X#X#X#X#X#X. ]  .z.v.p.H.M.R F E /       B w.r.9.O   . @ E c.a./ c.k.,     > w.7.O , W   #X#X#X#X#X#X#X#X#X#X#X#X#X#X#X#X",
"#X#X#X#X#X#X#X#X. 1 p.t.( j.k.F.c.y.i.G.u.L 5 5 2 2 1 1 4 5 S E j.c./ H a.p.E H < + # 7 E p.A   #X#X#X#X#X#X#X#X#X#X#X#X#X#X#X#X",
"#X#X#X#X#X#X#X#X. < / J S ( k.c.c.c.k.k.p.J._ j.t.W J S p.j.y.F.F.F.a.W v.F.c.v.( < S a.a.E .   #X#X#X#X#X#X#X#X#X#X#X#X#X#X#X#X",
"#X#X#X#X#X#X#X#X#X  + + @ 5 H W t.S I P Q k.f.] k.v.t.A E / y.p.c.v.p.v.v.v.j./ ( W a.y.A , #X#X#X#X#X#X#X#X#X#X#X#X#X#X#X#X#X#X",
"#X#X#X#X#X#X#X#X#X#X#X#X. < H y.t.< ~ } A / B.S.l.c.( 5 S S A S a.j.W c.c.c.y.4 W F.t.4 @   #X#X#X#X#X#X#X#X#X#X#X#X#X#X#X#X#X#X",
"#X#X#X#X#X#X#X#X#X#X#X. ! / p.a.J y.p.i._ t.i.d.S H t.p.a.j.j.j.y.J W W j.k.( 4 K Y S H _ L 6 G 7 1 < 5 1 1 #X#X#X#X#X#X#X#X#X#X",
"#X#X#X#X#X#X#X#X#X#X#X2 B.v.y.( S / E / a.k.j.x.5 S t.t.t.y.y.p.( J y.y.t.t./ G e j ) ( a./ ~ N.f.! / p.K ! . #X#X#X#X#X#X#X#X#X",
"#X#X#X#X#X#X#X#X#X#XF M.p.j./ < ( a.a.a./ c.v.j.S J W W 5 A E / ( ) U x z a %.2.$.- / y.p.j.J E ) W J J E H #X#X#X#X#X#X#X#X#X#X",
"#X#X#X#X#X#X#X#X#X#XS v.k.y.5   H / / y.E v.v.k.A @ J a.H S E / i.f.+.:.1.1.T.!.;.9 k.v.( p.E j.H 7 7 A .   #X#X#X#X#X#X#X#X#X#X",
"#X#X#X#X#X#X#X#X#X#X, H / H +   < E L U E ( p.t.J J / J W E A E d...*.;.;.:.1.1.-.k ) t.E / H S A J Q ~ 1 1 + #X#X#X#X#X#X#X#X#X",
"#X#X#X#X#X#X#X#X#X#X@ S A     #X    y #.^ y.y.y.A 5 5 @ ,   4 H X.d d O.o.$.-.;.&.$.3 < A / J A S A E 4 I } 1   #X#X#X#X#X#X#X#X",
"#X#X#X#X#X#X#X#X#X#X#X. .   #X#X#XX $.:.l Q W H W k.H < A , , 4 #   X X X X $ $ $ $ + 4 4 < E t.t.a.S < 5 t.E 7 . #X#X#X#X#X#X#X",
"#X#X#X#X#X#X#X#X#X#X#X#X#X#X#X#X#X#Xo.1.&.& A p.E c.E A y.E 5 7 . #X#X#X#X#X#X#X#X#X        5 W y.y.W + + A / H . #X#X#X#X#X#X#X",
"#X#X#X#X#X#X#X#X#X#X#X#X#X#X#X#X#X#Xu $.o.O.S H W y./ a.t.5 A   #X#X#X#X#X#X#X#X#X#X#X#X#X#X. @ H W W J . . + . #X#X#X#X#X#X#X#X",
"#X#X#X#X#X#X#X#X#X#X#X#X#X#X#X  % & u w & * ( y.c.c.E v.t.4 A   #X#X#X#X#X#X#X#X#X#X#X#X#X#X#X#X+ 5 W H + #X#X#X#X#X#X#X#X#X#X#X",
"#X#X#X#X#X#X#X#X#X#X#X#X#X#Xy =.Q.E.T.E.-.i A J p.p.( k.t.4 i u s s s #X#X#X#X#X#X#X#X#X#X#X#X#X#X. < A #X#X#X#X#X#X#X#X#X#X#X#X",
"#X#X#X#X#X#X#X#X#X#X#X#X#X#X=.(.!.W.W.W.T.:.- , J S y.x.` r 2.R.^.^.5.=.& X #X#X#X#X#X#X#X#X#X#X#X#X#X#X#X#X#X#X#X#X#X#X#X#X#X#X",
"#X#X#X#X#X#X#X#X#X#X#X#X#Xo R.~.W.W.W.W.T.:.$.j f f %.,.4.T.E.E.E.W.E.E.^.<.i #X#X#X#X#X#X#X#X#X#X#X#X#X#X#X#X#X#X#X#X#X#X#X#X#X",
"#X#X#X#X#X#X#X#X#X#X#X#X#Xo T.!.W.W.W.W.T.1.-.o.1.3.E.W.W.W.W.W.W.W.W.W.W./.#.  #X#X#X#X#X#X#X#X#X#X#X#X#X#X#X#X#X#X#X#X#X#X#X#X",
"#X#X#X#X#X#X#X#X#X#X#X#X2 [ n ;.E.W.W.W.T.1.$.u :.1.1.1.3.3.T.E.W.W.W.W.!.!.4.h X #X#X#X#X#X#X#X#X#X#X#X#X#X#X#X#X#X#X#X#X#X#X#X",
"#X#X#X#X#X#X#X#X#X#X#X#XT D.u.* >.T.E.E.T.:.o.& &.-.;.;.:.:.2.3.E.W.W.W.!.!./.^.= #X#X#X#X#X#X#X#X#X#X#X#X#X#X#X#X#X#X#X#X#X#X#X",
"#X#X#X#X#X#X#X#X#X#X#X#X6 / E y.K 8 c b v l #   X $ X X t d o.&.1.3.E.W.T.:.@.Y T . #X#X#X#X#X#X#X#X#X#X#X#X#X#X#X#X#X#X#X#X#X#X",
"#X#X#X#X#X#X#X#X#X#X#X  ! c.H W W E p.k.t./ <   #X#X#X      $ u ;.1.1.E.>.a / j.F 6   #X#X#X#X#X#X#X#X#X#X#X#X#X#X#X#X#X#X#X#X#X",
"#X#X#X#X#X#X#X#X#X#X#X. { / c.v.k.a.c.a.J t.S   #X#X#X#X#X#X#XX t #.v 0 K p.y.E s.M.1 #X#X#X#X#X#X#X#X#X#X#X#X#X#X#X#X#X#X#X#X#X",
"#X#X#X#X#X#X#X#X#X#X#X+ ! H k.c.k.F.c.y.E t.4   #X#X#X#X#X#X#X#X. @ / t.E / v.c.y.v.7   #X#X#X#X#X#X#X#X#X#X#X#X#X#X#X#X#X#X#X#X",
"#X#X#X#X#X#X#X#X#X#X#X. t.j.a.t.E p.y./ A S + #X#X#X#X#X#X#X#X#X    4 / W E k.a.( t.s.{ @ #X#X#X#X#X#X#X#X#X#X#X#X#X#X#X#X#X#X#X",
"#X#X#X#X#X#X#X#X#X#X#X  J v.v.a.A S E H H W + #X#X#X#X#X#X#X#X#X#X  < t./ J p./ S A n.J.7   #X#X#X#X#X#X#X#X#X#X#X#X#X#X#X#X#X#X",
"#X#X#X#X#X#X#X#X#X#X#X#X, J p.a.y.t.( W A + #X#X#X#X#X#X#X#X#X#X#X#X. , H / W k.c.a.( a.u.6 . #X#X#X#X#X#X#X#X#X#X#X#X#X#X#X#X#X",
"#X#X#X#X#X#X#X#X#X#X#X#X@ 5 H E ( / J 5 +   #X#X#X#X#X#X#X#X#X#X#X#X#X  A / H y.a.p.J y.y.S . #X#X#X#X#X#X#X#X#X#X#X#X#X#X#X#X#X",
"#X#X#X#X#X#X#X#X#X#X#X#X#X+ 5 S W J , . #X#X#X#X#X#X#X#X#X#X#X#X#X#X#X#X. + < A H / 5 @ + . #X#X#X#X#X#X#X#X#X#X#X#X#X#X#X#X#X#X",
"#X#X#X#X#X#X#X#X#X#X#X#X#X#X#X#X#X#X#X#X#X#X#X#X#X#X#X#X#X#X#X#X#X#X#X#X#X#X#X#X#X#X#X#X#X#X#X#X#X#X#X#X#X#X#X#X#X#X#X#X#X#X#X#X"
};
