/* XPM */
static char *result[] = {
/* columns rows colors chars-per-pixel */
"64 64 190 2 ",
"   c #020101",
".  c #0C0101",
"X  c #01050C",
"o  c #03080F",
"O  c #0A0B0B",
"+  c #130101",
"@  c #1B0101",
"#  c #1A080D",
"$  c #010711",
"%  c #040A14",
"&  c #040C1B",
"*  c #1F0712",
"=  c #120B17",
"-  c #140A18",
";  c #131212",
":  c #1A1313",
">  c #1C1B1B",
",  c #240202",
"<  c #2B0202",
"1  c #250808",
"2  c #2C0A0A",
"3  c #250409",
"4  c #340202",
"5  c #3C0101",
"6  c #340A0A",
"7  c #3D0909",
"8  c #280712",
"9  c #240713",
"0  c #360A19",
"q  c #211B1B",
"w  c #040F25",
"e  c #080E22",
"r  c #130D20",
"t  c #041027",
"y  c #0A1225",
"u  c #01122D",
"i  c #0B122A",
"p  c #18122C",
"a  c #0D1535",
"s  c #0C1B33",
"d  c #00173B",
"f  c #02193E",
"g  c #0D1C3D",
"h  c #011534",
"j  c #111637",
"k  c #290F25",
"l  c #251128",
"z  c #3A1027",
"x  c #31122D",
"c  c #2F1534",
"v  c #3B193F",
"b  c #321839",
"n  c #10223D",
"m  c #252525",
"M  c #282626",
"N  c #2C2D2D",
"B  c #262A2A",
"V  c #302F2F",
"C  c gray20",
"Z  c gray23",
"A  c #430202",
"S  c #4B0102",
"D  c #450C0C",
"F  c #4A0A0B",
"G  c #43050B",
"H  c #530202",
"J  c #5C0101",
"K  c #5B060C",
"L  c #530D0D",
"P  c #5B0B0B",
"I  c #57060C",
"U  c #4A0B19",
"Y  c #580B15",
"T  c #4A1010",
"R  c #521010",
"E  c #640101",
"W  c #6C0202",
"Q  c #600408",
"!  c #630A0A",
"~  c #6C0D0D",
"^  c #6B0509",
"/  c #740202",
"(  c #7B0101",
")  c #730909",
"_  c #7B0B0B",
"`  c #600711",
"'  c #661414",
"]  c #6D1414",
"[  c #6C1719",
"{  c #731111",
"}  c #7B1515",
"|  c #761919",
" . c #7C1919",
".. c #41192B",
"X. c #711D29",
"o. c #041C43",
"O. c #031E4C",
"+. c #0F1E4B",
"@. c #101E4A",
"#. c #181D43",
"$. c #2F1C46",
"%. c #03204F",
"&. c #0B204F",
"*. c #042153",
"=. c #0E2151",
"-. c #03255D",
";. c #0D2758",
":. c #13295A",
">. c #032662",
",. c #042865",
"<. c #032B6B",
"1. c #0C296A",
"2. c #042E73",
"3. c #0B2E72",
"4. c #032F78",
"5. c #02307A",
"6. c #0D3676",
"7. c #163B75",
"8. c #434444",
"9. c #4A4B4B",
"0. c #535454",
"q. c #565858",
"w. c gray35",
"e. c #636464",
"r. c #6B6C6C",
"t. c #7D7D7D",
"y. c #707272",
"u. c #830202",
"i. c #8B0202",
"p. c #850D0D",
"a. c #8B0808",
"s. c #930202",
"d. c #9C0202",
"f. c #9C0B0B",
"g. c #8C1112",
"h. c #9C1516",
"j. c #991818",
"k. c #911C1C",
"l. c #A30202",
"z. c #AC0202",
"x. c #A30A0A",
"c. c #AB0C0C",
"v. c #AD050B",
"b. c #B40202",
"n. c #BB0202",
"m. c #B50A0A",
"M. c #BB0D0D",
"N. c #A31515",
"B. c #AB1616",
"V. c #A21D1D",
"C. c #B31313",
"Z. c #BF1E1E",
"A. c #B81717",
"S. c #932121",
"D. c #A62525",
"F. c #B42626",
"G. c #BE2423",
"H. c #C20202",
"J. c #C60C0C",
"K. c #CB0B0B",
"L. c #C21313",
"P. c #C91313",
"I. c #C11C1C",
"U. c #CE2424",
"Y. c #C42A2A",
"T. c #CB2929",
"R. c #D32323",
"E. c #013484",
"W. c #013689",
"Q. c #01388E",
"!. c #013991",
"~. c #1A4386",
"^. c #094095",
"/. c #828282",
"(. c #8B8B8B",
"). c #949494",
"_. c #9D9D9D",
"`. c #A4A5A5",
"'. c #ADADAD",
"]. c gray70",
"[. c #BCBCBC",
"{. c #C3C3C3",
"}. c #CBCBCB",
"|. c #D3D3D3",
" X c #DCDCDC",
".X c #E2E2E2",
"XX c #EDEDED",
"oX c #F4F4F4",
"OX c #FEFEFE",
"+X c None",
/* pixels */
"+X+X+X+X+X+X+X+X+X+X+X+X+X+X+X+X+X+X+X+X+X+X+X+X+X+X+X+X+X+X+X+X+X+X+X+X+X+X+X+X+X+X+X+X+X+X+X+X+X+X+X+X+X+X+X+X+X+X+X+X+X+X+X+X",
"+X+X+X+X+X+X+X+X+X+X+X+X+X+X+X+X+X+X+X+X+X+X+X+X+X+X+X+X+X+X+X+X+X+X+X+X+X+X+X+X+X+X+X+X+X+X+X+X+X+X+X+X+X+X+X+X+X+X+X+X+X+X+X+X",
"+X+X+X+X+X+X+X+X+X+X+X+X+X+X+X+X+X+X+X+X+X+X+X+X+X+X. + 4 A S S 7 2 1 + +X+X+X+X+X+X+X+X+X+X+X+X+X+X+X+X+X+X+X+X+X+X+X+X+X+X+X+X",
"+X+X+X+X+X+X+X+X+X+X+X+X+X+X+X+X+X+X+X+X+X+X+X+X+ + < S i.b.n.J.N.' ' 7 # + +X+X+X+X+X+X+X+X+X+X+X+X+X+X+X+X+X+X+X+X+X+X+X+X+X+X",
"+X+X+X+X+X+X+X+X+X+X+X+X+X+X+X+X+X+X+X+X2 D P ) x.z.b.n.n.H.b.d.s.W ^ l.B.A.] T . +X+X+X+X+X+X+X+X+X+X+X+X+X+X+X+X+X+X+X+X+X+X+X",
"+X+X+X+X+X+X+X+X+X+X+X+X+X+X+X+X+X+X+X. R Z.J.H.H.H.H.H.n.b.s.E s.b.( i.u.H.U.Y.6 . +X+X+X+X+X+X+X+X+X+X+X+X+X+X+X+X+X+X+X+X+X+X",
"+X+X+X+X+X+X+X+X+X+X+X+X+X+X+X+X  . ' g.m.H.H.H.H.n.l.i.d.( d.n.n.H.l.u.z.z.a.m.j.[ 2   +X+X+X+X+X+X+X+X+X+X+X+X+X+X+X+X+X+X+X+X",
"+X+X+X+X+X+X+X+X+X+X+X+X+X+X+X+X. 2 L.H.H.H.n.n.m.b.W 5 l.H.H.H.H.H.s.S b.H.H.n.( P [ 1 . +X+X+X+X+X+X+X+X+X+X+X+X+X+X+X+X+X+X+X",
"+X+X+X+X+X+X+X+X+X+X+X+X+X+X  + ^ c.s.s.i.d.l.d.( d.b.b.n.H.H.H.H.H.b.i.b.H.H.H.n.b.L.I.| 6 +X+X+X+X+X+X+X+X+X+X+X+X+X+X+X+X+X+X",
"+X+X+X+X+X+X+X+X+X+X+X+X+X+X+ 7 m.z.S A A H d.H.H.H.H.H.H.H.H.H.H.H.n.n.z.H.H.H.H.H.H.K.T.S.1 +X+X+X+X+X+X+X+X+X+X+X+X+X+X+X+X+X",
"+X+X+X+X+X+X+X+X+X+X+X+X+X+X^ m.H.b.W u.s.s.n.H.H.H.H.H.H.H.H.H.H.H.H.b.u.H.H.H.H.H.n.H.K.R. .  +X+X+X+X+X+X+X+X+X+X+X+X+X+X+X+X",
"+X+X+X+X+X+X+X+X+X+X+X+X+X+ c.H.H.b./ H.i.E z.H.H.H.H.H.n.H.H.H.H.H.H.b./ H.n.H.H.H.H.H.H.K.D.1 . +X+X+X+X+X+X+X+X+X+X+X+X+X+X+X",
"+X+X+X+X+X+X+X+X+X+X+X+X, E b.H.H.b.( H.n.b.( d.n.H.H.H.H.H.H.H.H.H.z.i.u.d.n.H.H.n.H.H.H.H.P.F.# +X+X+X+X+X+X+X+X+X+X+X+X+X+X+X",
"+X+X+X+X+X+X+X+X+X+X+X+XS n.H.H.H.b.i.H.H.H.d.J l.n.H.H.H.H.H.H.n.b.u.H l.i.l.n.H.H.H.H.H.n.P.U.1   +X+X+X+X+X+X+X+X+X+X+X+X+X+X",
"+X+X+X+X+X+X+X+X+X+X+X+XE H.H.H.n.b.i.( b.H.n.b.d.s.b.n.H.n.l.i.i./ z.n.d.E d.i.d.l.H.H.H.H.n.M. .  +X+X+X+X+X+X+X+X+X+X+X+X+X+X",
"+X+X+X+X+X+X+X+X+X+X+X. ( H.n.H.b.s.E . s.n.H.H.b.s.s.b.b.b.W A z.H.n.H.i.5 b.b.E u.b.z.b.n.z.s.k.. +X+X+X+X+X+X+X+X+X+X+X+X+X+X",
"+X+X+X+X+X+X+X+X+X+X+X. l.H.H.H.d.5 +   < J s.H.H.b.J J s.z.b.b.n.H.H.H.d.S b.n.b.n.i./ i.z.( A N.' O +X+X+X+X+X+X+X+X+X+X+X+X+X",
"+X+X+X+X+X+X+X+X+X+X+X+ z.H.H.H.i.+   O     S b.n.z.W W z.H.H.H.H.H.H.H.l./ n.H.H.H.H.H.H.H.i.4 C.D.@ +X+X+X+X+X+X+X+X+X+X+X+X+X",
"+X+X+X+X+X+X+X+X+X+X+X, l.H.H.H.( + q w.r.B . @ W / b.b.u.s.n.H.H.H.H.H.z.d.n.H.H.H.H.H.H.n./ W L.Y.1 +X+X+X+X+X+X+X+X+X+X+X+X+X",
"+X+X+X+X+X+X+X+X+X+X+XS d.H.H.n.E . M /.|.(.;   , ( n.H.s.S b.H.H.H.H.H.n.z.n.H.H.H.n.H.H.b.E d.P.Y.1 +X+X+X+X+X+X+X+X+X+X+X+X+X",
"+X+X+X+X+X+X+X+X+X+X5 E l.H.H.b.5   C _.oXoX).Z . + ( n.n.d.d.H.n.H.H.H.n.z.b.H.H.H.H.H.z.s.l.b.f.I.1 +X+X+X+X+X+X+X+X+X+X+X+X+X",
"+X+X+X+X+X+X+X+X+X+X< / d.H.H.n.S   C ].oXOXXX[.>   4 l.n.b.( b.n.n.n.b.z.d.z.n.H.H.H.H.s.S b.b.( A.6 +X+X+X+X+X+X+X+X+X+X+X+X+X",
"+X+X+X+X+X+X+X+X+X+X4 ( d.H.z.( W   8.{.oXOXOXoX(.> . @ d.H.s.E l.l.s.( s.b.d.l.d.d.n.n.s.i.n.z.J _ 2 +X+X+X+X+X+X+X+X+X+X+X+X+X",
"+X+X+X+X+X+X+X+X+X+X4 u.d.n.s.H W   8.}.oXOXOXOX|.e.O   W H.s.E b.H.H.H.H.n.b.b.E E z.z./ H.b.u.1 4 + +X+X+X+X+X+X+X+X+X+X+X+X+X",
"+X+X+X+X+X+X+X+X+X+X4 ( / i.s.b./   8.{.oXOXOXOXOX.XZ   4 ( i.b.s.H.H.H.H.n.n.n.n.n.l./ ( H.E . A x.@ +X+X+X+X+X+X+X+X+X+X+X+X+X",
"+X+X+X+X+X+X+X+X+X+X4 ( u.W J n.E   8.{..XOXOXOXOXOXt.    @ z.n.d.b.H.H.H.n.n.H.H.H.i.4 d.l.+   A m.@ +X+X+X+X+X+X+X+X+X+X+X+X+X",
"+X+X+X+X+X+X+X+X+X+X@ J i.u.( b.H   Z `. XOXOXOXOXOX].C X + l.H.l./ d.d.s.i.l.H.H.b.s.b.E + ; B D f.@ +X+X+X+X+X+X+X+X+X+X+X+X+X",
"+X+X+X+X+X+X+X+X+X+X+ A u.s.s.n.(   M t.|.OXOXOXOXOX.X).O . u.H.z.u.E E S S ( b.b.l.s.z.<   B q.6 ^ + +X+X+X+X+X+X+X+X+X+X+X+X+X",
"+X+X+X+X+X+X+X+X+X+X  @ u.s.( / ( . O N [. XOXOXOXOXOX.Xm   S H.d.J u.b.d.( z.d.J J W 4 q w./.: @ @ +X+X+X+X+X+X+X+X+X+X+X+X+X+X",
"+X+X+X+X+X+X+X+X+X+X+X. u.s.W 5 u.4   ; ].}.oXOXOXOXOXoX8.  5 n.s.J l.s.s.W b.z.E E ,   0..X`.  ,   +X+X+X+X+X+X+X+X+X+X+X+X+X+X",
"+X+X+X+X+X+X+X+X+X+X+X. W s.u.E l.d.+ O (.}. XoXOXOXOXOX_.O @ S W s.i.S W ( ( u.J + : 9.{.oXr.  @   +X+X+X+X+X+X+X+X+X+X+X+X+X+X",
"+X+X+X+X+X+X+X+X+X+X+X  S s.i.u.d.b.@   w.}.}..XoXOXOXOX[.Z X . J J u.i.E ( / l.@   9.{.OXXXN     +X+X+X+X+X+X+X+X+X+X+X+X+X+X+X",
"+X+X+X+X+X+X+X+X+X+X+X+X< ) i.i.( b.W . V (.{.}. XXXoXOXoX.X8.  S z.( ( S 5 @ + > e.|.oX X).: +   +X+X+X+X+X+X+X+X+X+X+X+X+X+X+X",
"+X+X+X+X+X+X+X+X+X+X+X+X+ 5 ( ( J d.s.5 . > '.}.}.}.XXOXOXOX).  S b./ / E 5     e.OXOXOX).> . @   +X+X+X+X+X+X+X+X+X+X+X+X+X+X+X",
"+X+X+X+X+X+X+X+X+X+X1 2 F J H ! ! ) u.u.4   C t.).'.].'.(.r.> . J s.l.d.z.l., X r.'.[.`.8.. 4   +X+X+X+X+X+X+X+X+X+X+X+X+X+X+X+X",
"+X+X+X+X+X+X+X+X+X. ' p.B.n.s.K.N.R F ^ /       B r.y.0.O   + @ E b.d./ b.z.<     > r.9.O , W   +X+X+X+X+X+X+X+X+X+X+X+X+X+X+X+X",
"+X+X+X+X+X+X+X+X. , s.u./ z.z.H.b.i.a.J.p.H 7 5 < 2 2 1 4 5 S E l.b./ H l.s.E H < + # 7 E i.A   +X+X+X+X+X+X+X+X+X+X+X+X+X+X+X+X",
"+X+X+X+X+X+X+X+X. < / J S ( z.b.b.b.z.z.f.L.) l.u.W J A s.l.u.H.H.H.d.E b.H.b.n.( < S d.d.E .   +X+X+X+X+X+X+X+X+X+X+X+X+X+X+X+X",
"+X+X+X+X+X+X+X+X+X. + . @ 4 J W u.S I I Q z.h.] z.n.u.A E / i.s.b.n.s.n.n.n.l./ ( W d.i.A , +X+X+X+X+X+X+X+X+X+X+X+X+X+X+X+X+X+X",
"+X+X+X+X+X+X+X+X+X+X+X+X+ < S i.u.< ~ } A / C.F.l.b./ A S A S H d.l.W b.n.b.i.4 W n.u.4 @   +X+X+X+X+X+X+X+X+X+X+X+X+X+X+X+X+X+X",
"+X+X+X+X+X+X+X+X+X+X+X. P ) s.d.J i.s.s._ u.f.p.S H u.i.d.l.l.l.i.H W W l.z.( 4 I Y S H _ L 6 D 7 , 6 5 , 1 +X+X+X+X+X+X+X+X+X+X",
"+X+X+X+X+X+X+X+X+X+X+X2 A.n.u.( S / ^ W f.z.d.c.5 S u.i.u.i.i.s.( J i.i.u.u.W G e a / ( l./ ! V.j.! / s.P P + +X+X+X+X+X+X+X+X+X",
"+X+X+X+X+X+X+X+X+X+XF C.s.l./ 4 / d.d.d.W n.n.l.S J / E 5 A E / ( ) U z l p =.3.*.- / i.s.l.H W / E J J W H +X+X+X+X+X+X+X+X+X+X",
"+X+X+X+X+X+X+X+X+X+XS n.z.i.5   J / / i.E n.n.z.A @ J d.J S E / a.N.#.<.2.2.E.Q.,.9 z.n.( s.E l.H D 7 5 .   +X+X+X+X+X+X+X+X+X+X",
"+X+X+X+X+X+X+X+X+X+X@ H / H .   < E L U E ( s.u.J J / J E E S Q g...;.>.,.<.2.4.,.j ( u.E / H S A J J ] 2 1 + +X+X+X+X+X+X+X+X+X",
"+X+X+X+X+X+X+X+X+X+X@ H S     +X    t =.^ i.i.i.S 5 4 @ ,   4 H X.f f f O.*.-.,.>.*.3 < S / J S S S J 4 L } 1   +X+X+X+X+X+X+X+X",
"+X+X+X+X+X+X+X+X+X+X+X. .   +X+X  X *.,.k K E J W z.H < A , , 4 # X X X $ X $ $ $ $ + < 4 < E u.( d.H < 4 u.E 5 . +X+X+X+X+X+X+X",
"+X+X+X+X+X+X+X+X+X+X+X+X+X+X+XX % & o.4.*.& S s.W b.E 5 i.W 4 7   +X+X+X+X+X+X+X+X+X        4 W i.s.E + @ A / H . +X+X+X+X+X+X+X",
"+X+X+X+X+X+X+X+X+X+X+X+X+X+XX & ;.O.h *.O.g S H W u./ d.u.5 A   i s s +X+X+X+X+X+X+X+X+X+X+X. @ H W W J . . + . +X+X+X+X+X+X+X+X",
"+X+X+X+X+X+X+X+X+X+X+X+X+X+X% X X & u u & # ( u.n.b.E n.u.4 A X 7.~.7.:.& o +X+X+X+X+X+X+X+X+X+X+ 5 W H . +X+X+X+X+X+X+X+X+X+X+X",
"+X+X+X+X+X+X+X+X+X+X+X+X+X% 7.E.E.E.E.E.>.i G J d.s.u.l.u.4 i d E.Q.Q.W.6.n y +X+X+X+X+X+X+X+X+X+X. < S +X+X+X+X+X+X+X+X+X+X+X+X",
"+X+X+X+X+X+X+X+X+X+X+X+X+X% E.!.!.!.!.!.E.,.- , H S i.v.` r 4.!.Q.Q.Q.!.-.% s   +X+X+X+X+X+X+X+X+X+X+X+X+X+X+X+X+X+X+X+X+X+X+X+X",
"+X+X+X+X+X+X+X+X+X+X+X+X2 [ b <.E.!.!.!.E.2.*.w j a +.:.3.4.E.E.Q.Q.Q.Q.W.4.O.g X +X+X+X+X+X+X+X+X+X+X+X+X+X+X+X+X+X+X+X+X+X+X+X",
"+X+X+X+X+X+X+X+X+X+X+X+XD G.p.9 3.E.W.W.E.<.O.& -.>.,.,.2.2.2.2.W.Q.!.Q.!.!.^.~.= +X+X+X+X+X+X+X+X+X+X+X+X+X+X+X+X+X+X+X+X+X+X+X",
"+X+X+X+X+X+X+X+X+X+X+X+X6 / E i.Q 8 x v c k #   $ $ $ X w d O.-.2.5.W.Q.E.<.$.Y T . +X+X+X+X+X+X+X+X+X+X+X+X+X+X+X+X+X+X+X+X+X+X",
"+X+X+X+X+X+X+X+X+X+X+X  ! b.H W E W s.z.u./ <   +X+X+X      X h <.2.5.E.1.p / l.F 6   +X+X+X+X+X+X+X+X+X+X+X+X+X+X+X+X+X+X+X+X+X",
"+X+X+X+X+X+X+X+X+X+X+X. { / b.n.z.d.b.d.J u.S   +X+X+X+X+X+X+XX t &.c 0 K s.i.E f.B.1 +X+X+X+X+X+X+X+X+X+X+X+X+X+X+X+X+X+X+X+X+X",
"+X+X+X+X+X+X+X+X+X+X+X+ ! H z.b.z.H.b.i.E u.4   +X+X+X+X+X+X+X+X. , / u.E / n.b.i.n.D   +X+X+X+X+X+X+X+X+X+X+X+X+X+X+X+X+X+X+X+X",
"+X+X+X+X+X+X+X+X+X+X+X. u.l.d.u.E s.i./ A S + +X+X+X+X+X+X+X+X+X    4 / W E z.d.( u.f.{ @ +X+X+X+X+X+X+X+X+X+X+X+X+X+X+X+X+X+X+X",
"+X+X+X+X+X+X+X+X+X+X+X  J n.n.d.A S E H H W + +X+X+X+X+X+X+X+X+X+X  < u./ J s./ S A m.L.6   +X+X+X+X+X+X+X+X+X+X+X+X+X+X+X+X+X+X",
"+X+X+X+X+X+X+X+X+X+X+X+X, J s.d.i.u.( W S + +X+X+X+X+X+X+X+X+X+X+X+X. @ H / W z.z.l./ d.p.6 . +X+X+X+X+X+X+X+X+X+X+X+X+X+X+X+X+X",
"+X+X+X+X+X+X+X+X+X+X+X+X@ 5 H E ( / J 5 +   +X+X+X+X+X+X+X+X+X+X+X+X+X  A / H i.l.s.E i.i.S . +X+X+X+X+X+X+X+X+X+X+X+X+X+X+X+X+X",
"+X+X+X+X+X+X+X+X+X+X+X+X+X+ 5 S W J , . +X+X+X+X+X+X+X+X+X+X+X+X+X+X+X+X. + < S H / 5 @ + . +X+X+X+X+X+X+X+X+X+X+X+X+X+X+X+X+X+X",
"+X+X+X+X+X+X+X+X+X+X+X+X+X+X+X+X+X+X+X+X+X+X+X+X+X+X+X+X+X+X+X+X+X+X+X+X+X+X+X+X+X+X+X+X+X+X+X+X+X+X+X+X+X+X+X+X+X+X+X+X+X+X+X+X"
};
