/* XPM */
static char *result[] = {
/* columns rows colors chars-per-pixel */
"64 64 202 2 ",
"   c #020000",
".  c #0B0101",
"X  c #0C0B02",
"o  c #01050C",
"O  c #0C080D",
"+  c #140101",
"@  c #1C0202",
"#  c #110D01",
"$  c #170807",
"%  c #141200",
"&  c #1D1706",
"*  c #010711",
"=  c #020915",
"-  c #0C0814",
";  c #040D1C",
":  c #0D0B1C",
">  c #140A17",
",  c #101113",
"<  c #250101",
"1  c #2C0101",
"2  c #260808",
"3  c #2B0909",
"4  c #200E02",
"5  c #330101",
"6  c #3B0101",
"7  c #310E02",
"8  c #36050B",
"9  c #330A0A",
"0  c #3B0C0C",
"q  c #3C050A",
"w  c #2D1300",
"e  c #361301",
"r  c #2E0A18",
"t  c #371219",
"y  c #2B2500",
"u  c #252104",
"i  c #302503",
"p  c #332D05",
"a  c #3A3205",
"s  c #252413",
"d  c #3A361A",
"f  c #020E23",
"g  c #02112B",
"h  c #0B152D",
"j  c #0B182D",
"k  c #171028",
"l  c #021535",
"z  c #0B1A31",
"x  c #02193F",
"c  c #0C183C",
"v  c #0A1735",
"b  c #151736",
"n  c #340F23",
"m  c #29152B",
"M  c #35132E",
"N  c #281432",
"B  c #3C1B36",
"V  c #0E213F",
"C  c #222226",
"Z  c #353221",
"A  c #342A2A",
"S  c #420101",
"D  c #4B0202",
"F  c #440A0A",
"G  c #4C0A0A",
"H  c #420D00",
"J  c #530202",
"K  c #5C0102",
"L  c #5D050B",
"P  c #530B0B",
"I  c #5C0B0B",
"U  c #54060D",
"Y  c #4C0915",
"T  c #550813",
"R  c #4D1010",
"E  c #5B1011",
"W  c #541010",
"Q  c #640202",
"!  c #6B0101",
"~  c #69070D",
"^  c #610C0C",
"/  c #6B0D0D",
"(  c #730202",
")  c #7B0202",
"_  c #730B0B",
"`  c #7E0A0A",
"'  c #77050B",
"]  c #611212",
"[  c #6F141D",
"{  c #721414",
"}  c #7A1919",
"|  c #781919",
" . c #423900",
".. c #493F01",
"X. c #401331",
"o. c #4A4001",
"O. c #504709",
"+. c #524600",
"@. c #6A5C06",
"#. c #776600",
"$. c #776703",
"%. c #444232",
"&. c #031B43",
"*. c #031E4A",
"=. c #0F1E4A",
"-. c #111E4A",
";. c #1C1D49",
":. c #391940",
">. c #042255",
",. c #0B2352",
"<. c #04255D",
"1. c #09255F",
"2. c #13245B",
"3. c #33265C",
"4. c #042865",
"5. c #032B6B",
"6. c #082B6D",
"7. c #162D6B",
"8. c #163366",
"9. c #042E73",
"0. c #092F78",
"q. c #122D72",
"w. c #0E3471",
"e. c #02317C",
"r. c #083079",
"t. c #1B417E",
"y. c #635454",
"u. c #840202",
"i. c #8B0202",
"p. c #820D0E",
"a. c #860A0E",
"s. c #930202",
"d. c #9C0202",
"f. c #9B060D",
"g. c #940D0D",
"h. c #990B0B",
"j. c #871414",
"k. c #841B1B",
"l. c #8E1717",
"z. c #9C1313",
"x. c #921D1D",
"c. c #9D1919",
"v. c #951010",
"b. c #A40202",
"n. c #AC0202",
"m. c #A40D0D",
"M. c #AA0C0C",
"N. c #B40202",
"B. c #BB0202",
"V. c #B90C0C",
"C. c #B00E0E",
"Z. c #AB1414",
"A. c #AB1C1C",
"S. c #BA1313",
"D. c #B21A1A",
"F. c #9A2222",
"G. c #B02528",
"H. c #AD2626",
"J. c #C20202",
"K. c #C80404",
"L. c #C40E0E",
"P. c #CA0B0B",
"I. c #CF1313",
"U. c #CC1A1A",
"Y. c #D01414",
"T. c #CC2525",
"R. c #DA2222",
"E. c #D62D2D",
"W. c #E32F2F",
"Q. c #867500",
"!. c #8C7A03",
"~. c #998400",
"^. c #9E8905",
"/. c #97850E",
"(. c #A18B00",
"). c #AA9408",
"_. c #B69D02",
"`. c #B39D13",
"'. c #BFA702",
"]. c #C1A700",
"[. c #C5AB04",
"{. c #C9AE01",
"}. c #CFB301",
"|. c #D3B601",
" X c #D7BA00",
".X c #DABD01",
"XX c #E4C401",
"oX c #E7C800",
"OX c #EACA00",
"+X c #F0CF00",
"@X c #033483",
"#X c #01378B",
"$X c #01388F",
"%X c #0C3D8A",
"&X c #103D84",
"*X c #023A91",
"=X c #0A3E92",
"-X c #17448D",
";X c #0B4094",
":X c #DEE1E1",
">X c white",
",X c None",
/* pixels */
",X,X,X,X,X,X,X,X,X,X,X,X,X,X,X,X,X,X,X,X,X,X,X,X,X,X,X,X,X,X,X,X,X,X,X,X,X,X,X,X,X,X,X,X,X,X,X,X,X,X,X,X,X,X,X,X,X,X,X,X,X,X,X,X",
",X,X,X,X,X,X,X,X,X,X,X,X,X,X,X,X,X,X,X,X,X,X,X,X,X,X,X,X,X,X,X,X,X,X,X,X,X,X,X,X,X,X,X,X,X,X,X,X,X,X,X,X,X,X,X,X,X,X,X,X,X,X,X,X",
",X,X,X,X,X,X,X,X,X,X,X,X,X,X,X,X,X,X,X,X,X,X,X,X,X,X,X,X@ 5 S D D F 9 3 + ,X,X,X,X,X,X,X,X,X,X,X,X,X,X,X,X,X,X,X,X,X,X,X,X,X,X,X",
",X,X,X,X,X,X,X,X,X,X,X,X,X,X,X,X,X,X,X,X,X,X,X,X,X. + @ J u.n.J.L.S.| | 0 $ $ ,X,X,X,X,X,X,X,X,X,X,X,X,X,X,X,X,X,X,X,X,X,X,X,X,X",
",X,X,X,X,X,X,X,X,X,X,X,X,X,X,X,X,X,X,X,X,X,XF P ` m.n.N.N.B.B.B.b.b.Q J h.z.c.{ 0 . ,X,X,X,X,X,X,X,X,X,X,X,X,X,X,X,X,X,X,X,X,X,X",
",X,X,X,X,X,X,X,X,X,X,X,X,X,X,X,X,X,X,X,X. 2 D.P.J.J.J.J.K.B.B.n.( i.s.Q ) ! V.T.x.2 + ,X,X,X,X,X,X,X,X,X,X,X,X,X,X,X,X,X,X,X,X,X",
",X,X,X,X,X,X,X,X,X,X,X,X,X,X,X,X,X,X2 E v.V.J.J.J.J.B.b.d.n.u.d.B.B.B.n.s.B.d.u.M.A.] 9 . ,X,X,X,X,X,X,X,X,X,X,X,X,X,X,X,X,X,X,X",
",X,X,X,X,X,X,X,X,X,X,X,X,X,X,X,X,X  I R.K.J.J.J.B.n.b.( Q n.B.J.J.J.B.N.) J.J.J.n.u.{ F.2   ,X,X,X,X,X,X,X,X,X,X,X,X,X,X,X,X,X,X",
",X,X,X,X,X,X,X,X,X,X,X,X,X,X,X,X< P h.s.s.s.d.n.i.! d.B.B.B.J.B.J.B.J.B.d.N.J.J.J.B.B.L.D.k.0 ,X,X,X,X,X,X,X,X,X,X,X,X,X,X,X,X,X",
",X,X,X,X,X,X,X,X,X,X,X,X,X,X,X  ^ P.s.6 6 6 Q d.B.J.J.J.J.J.J.J.J.J.J.J.N.b.B.J.J.J.J.B.I.W.| o ,X,X,X,X,X,X,X,X,X,X,X,X,X,X,X,X",
",X,X,X,X,X,X,X,X,X,X,X,X,X,X< G n.K.d.K u.s.b.B.J.J.J.J.J.J.J.J.J.J.J.J.s.K N.J.J.J.J.J.J.P.T.F.$ ,X,X,X,X,X,X,X,X,X,X,X,X,X,X,X",
",X,X,X,X,X,X,X,X,X,X,X,X,X,XF V.J.J.i.S n.b.) N.J.J.B.J.J.J.J.J.J.J.J.J.s.D N.J.B.J.J.J.B.B.I.E.3   ,X,X,X,X,X,X,X,X,X,X,X,X,X,X",
",X,X,X,X,X,X,X,X,X,X,X,X,X  ( J.J.J.s.D N.B.b.! d.B.J.J.J.J.J.J.J.J.B.N.i.( b.N.J.J.J.J.J.J.K.I.k.  ,X,X,X,X,X,X,X,X,X,X,X,X,X,X",
",X,X,X,X,X,X,X,X,X,X,X,X,X+ N.J.J.J.b.! B.J.J.N.) b.B.J.J.J.J.J.J.B.n.d.( B.d.b.B.J.J.J.J.J.J.K.c.$   ,X,X,X,X,X,X,X,X,X,X,X,X,X",
",X,X,X,X,X,X,X,X,X,X,X,X@ 5 N.J.J.B.n.i.s.N.J.J.n.d.d.N.J.J.N.b.d.b.i.N.B.N.u.n.s.s.n.J.J.J.B.J.S.H.2 ,X,X,X,X,X,X,X,X,X,X,X,X,X",
",X,X,X,X,X,X,X,X,X,X,X,X< ( B.B.J.B.d.u.6 s.B.J.J.B.s.u.n.B.b.( Q N.B.J.J.n.! J.s.D i.N.N.N.B.N.Z.E.2 ,X,X,X,X,X,X,X,X,X,X,X,X,X",
",X,X,X,X,X,X,X,X,X,X,X,XS n.J.J.J.N.6 + . + Q i.B.J.d.D ! i.n.B.B.J.J.J.J.N.) J.B.N.n.d.) u.b.d.' U.P   ,X,X,X,X,X,X,X,X,X,X,X,X",
",X,X,X,X,X,X,X,X,X,X,X,XS N.J.J.J.N.<   % %   < n.J.d.Q ) n.J.J.J.B.J.J.J.N.s.J.J.J.J.J.J.J.J.n.! P.|   ,X,X,X,X,X,X,X,X,X,X,X,X",
",X,X,X,X,X,X,X,X,X,X,X,XJ n.B.J.B.b.@ % ].}.a   5 ! u.B.d.! b.J.B.J.J.J.J.B.n.J.J.J.J.J.B.J.b.( u.P.l.  ,X,X,X,X,X,X,X,X,X,X,X,X",
",X,X,X,X,X,X,X,X,X,X,X,XQ d.B.J.N.) + % |.OX(.%   . u.J.J.N.( J.J.J.J.J.J.B.N.B.J.J.J.J.J.J.s.5 d.K.x.  ,X,X,X,X,X,X,X,X,X,X,X,X",
",X,X,X,X,X,X,X,X,X,X,X,X( s.B.J.d.6 . % |.OXXX{. .  < ! N.J.s.u.B.J.J.J.J.B.N.N.J.J.J.J.J.B.d.d.d.) j.. ,X,X,X,X,X,X,X,X,X,X,X,X",
",X,X,X,X,X,X,X,X,X,X,X. ( d.B.J.b.K   % |.OXOXOX(.X   . d.J.d.J n.B.B.B.N.N.d.b.B.J.J.J.J.N.) J.i.S p.+ ,X,X,X,X,X,X,X,X,X,X,X,X",
",X,X,X,X,X,X,X,X,X,X,X. ) s.B.B.s.d.. % |.OXOXOXXX{. .  S d.B.n.) N.b.s.u.) b.s.d.d.b.B.n.i.d.J.i.6 I $ ,X,X,X,X,X,X,X,X,X,X,X,X",
",X,X,X,X,X,X,X,X,X,X,X. ( i.B.N.) n.+ % |.OXOXOXOX+X~.  + D N.b.u.N.J.J.J.J.N.n.d.J ) N.u.6 B.J.!   < . ,X,X,X,X,X,X,X,X,X,X,X,X",
",X,X,X,X,X,X,X,X,X,X,X. Q Q u.u.n.d.. % |.OXoXoXOXOX_.o.X . ! ( s.( B.B.J.J.B.N.B.N.B.B.( J b.( + + ^   ,X,X,X,X,X,X,X,X,X,X,X,X",
",X,X,X,X,X,X,X,X,X,X,X. ) i.K 1 b.i.. % |.OXOXOXOXoXOX|.%   D J.n.s.B.J.J.J.B.N.J.J.J.n.Q n.)     + (   ,X,X,X,X,X,X,X,X,X,X,X,X",
",X,X,X,X,X,X,X,X,X,X,X  Q s.) Q s.! . % |.OXOXoXOXOXOX.X .  6 n.B.N.i.b.d.s.s.d.B.J.n.) d.u.@ X p + Q   ,X,X,X,X,X,X,X,X,X,X,X,X",
",X,X,X,X,X,X,X,X,X,X,X  D s.i.u.N.n.+ % {.OXOXOXOXOXOX+X~.  < ( B.B.) Q K D J Q n.N.d.u.u.<   y $.. S   ,X,X,X,X,X,X,X,X,X,X,X,X",
",X,X,X,X,X,X,X,X,X,X,X  6 s.i.i.i.N.@   @.OXoXOXOXOXOXOX(.,   < N.B.! ) b.n.s.B.i.D ! i.< X $.[.i @ + ,X,X,X,X,X,X,X,X,X,X,X,X,X",
",X,X,X,X,X,X,X,X,X,X,X,X6 s.s.u.! N.5   +.OXOXOXOXoXOXOX`.%.X + b.b.u.B.b.n.i.B.s.J J 5 . y  X.Xe 6 . ,X,X,X,X,X,X,X,X,X,X,X,X,X",
",X,X,X,X,X,X,X,X,X,X,X,X< ! i.i.) n.(   a `.XXoXOXOXoXoXXX[.& . S Q s.b.K Q ) ) u.( @ . #.|.}./.4 < ,X,X,X,X,X,X,X,X,X,X,X,X,X,X",
",X,X,X,X,X,X,X,X,X,X,X,X+ 6 i.i.i.s.u.+ O Z  XOXoXOXOXOXOX.XZ o < ! ! u.) J ! K ( @   y  X+X).C .   ,X,X,X,X,X,X,X,X,X,X,X,X,X,X",
",X,X,X,X,X,X,X,X,X,X,X,X,X. ( s.) Q b.i.+ % ).OXOXOXOXOXoXOX).... @ u.! ! S 5 + + . #.|.OXoX$.o .   ,X,X,X,X,X,X,X,X,X,X,X,X,X,X",
",X,X,X,X,X,X,X,X,X,X,X,X,X  D u.Q 5 d.B.5   O. XOXOXOXOXOX+XOX].% @ i.! ( ! 5   X p .XOXOX.Xs   +   ,X,X,X,X,X,X,X,X,X,X,X,X,X,X",
",X,X,X,X,X,X,X,X,X,X$ 2 9 F P S I I ( a.( S # w !.).XXOX|.^.@.% < J s.N.b.B.) @ i Q._.OX|.Q.7 D . ,X,X,X,X,X,X,X,X,X,X,X,X,X,X,X",
",X,X,X,X,X,X,X,X,X,X2 { j.Z.b.) L.U.E 0 ` n.+   o s '.|.!.    . < J n.n.i.J.u.<     O..XQ.  D n.@ ,X,X,X,X,X,X,X,X,X,X,X,X,X,X,X",
",X,X,X,X,X,X,X,X,X  D n.) K d.b.J.B.i.) M.l.J 9 5 5 e e 7 5 6 S ( n.b.( ( n.i.K D 1 + & H J ( J . ,X,X,X,X,X,X,X,X,X,X,X,X,X,X,X",
",X>X>X,X,X,X,X,X,X  6 i.J 6 u.n.N.N.n.n.d.) z.I s.i.! Q Q d.i.K B.J.J.N.i.J.B.N.N.i.5 < s.N.J     ,X,X,X,X,X,X,X,X,X,X,X,X,X,X,X",
">X>X>X>X>X,X,X,X,X,XA y.$ . 6 K ) n.J P P S m.D.a.N.N.d.J K ) u.d.N.n.) N.B.B.B.u.u.u.n.) S <   ,X,X,X,X,X,X,X,X,X,X,X,X,X,X,X,X",
">X,X,X,X>X>X>X>X,X,X,X>X,X  < 6 i.b.G / E < u.V.Z.d.b.u.D J D S Q b.u.6 n.B.N.n.S D n.d.6 @ . ,X,X,X,X,X,X,X,X,X,X,X,X,X,X,X,X,X",
",X,X>X>X>X>X>X>X>X>X>X:Xt ] ` s.) 6 u.s.a._ i.s._ 6 Q i.s.d.b.b.n.b.Q ! ) b.b.s.D L U D Q v.G $ F F 1 < 1 @ $ ,X,X,X,X,X,X,X,X,X",
">X,X>X,X,X,X,X,X>X>X,X,X] U.n.) ! 5 Q Q ) b.d.i.u.@ K i.u.u.u.i.s.i.! d.i.i.u.u.8 ; n u.s.N.! G c.D./ Q ) J F   ,X,X,X,X,X,X,X,X",
">X>X>X,X,X,X>X>X>X>X,X+ g.) d.i.D ( s.s.) S n.B.i.6 Q ( K 5 D Q ( ) ~ U n m b =.9.5.r ) u.i.u.6 ! ( Q L Q ! S   ,X,X,X,X,X,X,X,X",
",X,X,X>X>X>X>X>X>X>X,X+ b.B.) D < J Q Q ! 5 n.J.s.S < D ) J J K ( u.[ v 5.9.9.e.#X@XY N.d.Q ( 6 u.D F 9 5 .   ,X,X,X,X,X,X,X,X,X",
",X,X,X>X>X,X,X,X>X,X,X. K i.S .   @ J K W Q u.s.) J ! i.Q ! J 6 ) S.B <.4.4.9.9.9.9.M u.( D Q J S 5 J K P $ < + ,X,X,X,X,X,X,X,X",
",X>X>X>X>X>X>X,X>X,X,X  D Q .   ,X  . > N ! u.u.( S 6 S < 1 @ 6 / H.b x &.*.>.<.4.4.c < < 5 ! Q D J K ) S G ] 3 . ,X,X,X,X,X,X,X",
">X>X,X>X>X>X,X,X>X,X,X,X+ . ,X,X,X,Xf >.,.k L ! J J i.J 6 J < @ < $ g g o o * * o * o . 5 6 6 K ( ( ) J < @ ( ( 5   ,X,X,X,X,X,X",
",X,X,X>X>X,X>X>X>X,X,X,X,X,X,X,X,X,X,Xl 5.4.: < ! 6 s.( Q n.K 1 3 o <.<.= ,X,X,X,X,X,X      . < ( s.i.u.@   J i.S   ,X,X,X,X,X,X",
",X,X,X,X>X>X,X>X>X,X,X,X,X,X,X,X,X,X,X&.9.e.;.D J K ( Q d.b.J K + - &.*.&.x z o ,X,X,X,X,X,X,X  1 J ! ( S   . @ .   ,X,X,X,X,X,X",
",X,X,X,X>X>X,X>X>X,X,X,X,X,X,X,X,X,X,X%X$X*X3.i.d.J.i.< n.b.J Q . f e.$X*X=X-Xj o ,X,X,X,X,X,X,X,X  D ) 6   ,X,X,X,X,X,X,X,X,X,X",
",X,X,X>X,X,X>X>X,X,X,X,X,X,X,X,X: z ,.w.&X-X7.M ! b.i.! b.b.8 - &.6.#X$X$X$X=X-XV ,X,X,X,X,X,X,X,X,X+ < 1   ,X,X,X,X,X,X,X,X,X,X",
",X,X,X,X,X,X>X,X,X,X,X,X,X,X,X,XV w.=X$X$X$X$X@Xn ~ L ` f.' > l 4.9.$X$X$X$X$X*X8.  ,X,X,X,X,X,X,X,X,X,X,X,X,X,X,X,X,X,X,X,X,X,X",
",X,X,X,X,X,X,X,X,X,X,X,X,X,X  * w.=X$X$X$X$X*X$X@X0.0.0.q.7.<.x 5.9.$X$X$X$X$X$X,.$ ,X,X,X,X,X,X,X,X,X,X,X,X,X,X,X,X,X,X,X,X,X,X",
",X,X,X,X,X,X,X,X,X,X,X,X,X,Xo z %X$X$X$X$X$X$X$X@Xr.9.9.9.r.>.g 5.9.$X$X$X$X$Xe.m R . ,X,X,X,X,X,X,X,X,X,X,X,X,X,X,X,X,X,X,X,X,X",
",X,X,X,X,X,X,X,X,X,X,X,X,X,Xm 8.$X$X$X$X$X#Xe.9.9.4.>.*.*.*.l = *.<.e.e.5.4.:.U p.} $ ,X,X,X,X,X,X,X,X,X,X,X,X,X,X,X,X,X,X,X,X,X",
",X,X,X,X,X,X,X,X,X,X,X,X,X# E r 9.#X*X*X@Xe.9.5.<.*.=           - h -.-.: < s.n.P S . ,X,X,X,X,X,X,X,X,X,X,X,X,X,X,X,X,X,X,X,X,X",
",X,X,X,X,X,X,X,X,X,X,X,X2 ] ( ( T X.2.5.6.9.&.f * o     ,X,X,X  J ! ' f.u.! i.u.) d.F   ,X,X,X,X,X,X,X,X,X,X,X,X,X,X,X,X,X,X,X,X",
",X,X,X,X,X,X,X,X,X,X,X,XW R.i.< d.N.S > ,.<.*   ,X,X,X,X,X,X,X. ) ) K N.n.s.B.J.b.) ]   ,X,X,X,X,X,X,X,X,X,X,X,X,X,X,X,X,X,X,X,X",
",X,X,X,X,X,X,X,X,X,X$ 2 ` N.s.N.d.! Q ! q O   ,X,X,X,X,X,X,X,X. S ! K d.B.N.d.n.s.( I   ,X,X,X,X,X,X,X,X,X,X,X,X,X,X,X,X,X,X,X,X",
",X,X,X,X,X,X,X,X,X,X< { M.s.b.B.d.K ! K +     ,X,X,X,X,X,X,X,X,X@ 5 D i.n.n.K ( s.n.!   ,X,X,X,X,X,X,X,X,X,X,X,X,X,X,X,X,X,X,X,X",
",X,X,X,X,X,X,X,X. $ _ C.i.! u.s.) K ! J .   ,X,X,X,X,X,X,X,X,X,X< J K ! ( Q ( n.n.i.5   ,X,X,X,X,X,X,X,X,X,X,X,X,X,X,X,X,X,X,X,X",
",X,X,X,X,X,X,X,X+ F m.i.) J.J.n.K ( 5 +   ,X,X,X,X,X,X,X,X,X,X,X,X+ ( i.i.s.n.N.s.S . ,X,X,X,X,X,X,X,X,X,X,X,X,X,X,X,X,X,X,X,X,X",
",X,X,X,X,X,X,X,X$ S ! K Q s.u.! S J <   ,X,X,X,X,X,X,X,X,X,X,X,X,X  < 5 K ( ( Q D < ,X,X,X,X,X,X,X,X,X,X,X,X,X,X,X,X,X,X,X,X,X,X",
",X,X,X,X,X,X,X,X,X    . D ! 5 6 .     ,X,X,X,X,X,X,X,X,X,X,X,X,X,X,X    1 Q Q 6 <   ,X,X,X,X,X,X,X,X,X,X,X,X,X,X,X,X,X,X,X,X,X,X"
};
