/* XPM */
static char *result[] = {
/* columns rows colors chars-per-pixel */
"64 64 206 2 ",
"   c #030101",
".  c #0C0202",
"X  c #02060B",
"o  c #0B060B",
"O  c #0C0D0D",
"+  c #04080E",
"@  c #130101",
"#  c #1C0202",
"$  c #140B0B",
"%  c #1D080A",
"&  c #010915",
"*  c #030C1B",
"=  c #080B17",
"-  c #190913",
";  c #06101F",
":  c #161313",
">  c #1B1616",
",  c #1C1A1A",
"<  c #230202",
"1  c #2C0202",
"2  c #21060E",
"3  c #280708",
"4  c #240808",
"5  c #2C0A0A",
"6  c #330101",
"7  c #3C0202",
"8  c #340B0B",
"9  c #3C0B0B",
"0  c #200710",
"q  c #3C0710",
"w  c #360916",
"e  c #231E1E",
"r  c #261515",
"t  c #341212",
"y  c #030E23",
"u  c #0A0F25",
"i  c #100E23",
"p  c #061225",
"a  c #0A1327",
"s  c #011029",
"d  c #0C192E",
"f  c #171220",
"g  c #14122C",
"h  c #1D112C",
"j  c #011432",
"k  c #081432",
"l  c #051837",
"z  c #011739",
"x  c #03183C",
"c  c #0A1E3D",
"v  c #081934",
"b  c #10173B",
"n  c #19183C",
"m  c #3F0E21",
"M  c #27122D",
"N  c #251634",
"B  c #231A3E",
"V  c #381737",
"C  c #1D2020",
"Z  c #242121",
"A  c #2C2C2C",
"S  c #2F2424",
"D  c #362E2E",
"F  c #323333",
"G  c #363838",
"H  c #3B3C3C",
"J  c #3D3737",
"K  c #440202",
"L  c #4C0202",
"P  c #450C0C",
"I  c #4B0B0B",
"U  c #530202",
"Y  c #5B0102",
"T  c #520B0B",
"R  c #5C0B0B",
"E  c #56050A",
"W  c #410710",
"Q  c #450914",
"!  c #480916",
"~  c #4B0D1F",
"^  c #5E0710",
"/  c #590812",
"(  c #411212",
")  c #561111",
"_  c #640202",
"`  c #6C0202",
"'  c #6A050B",
"]  c #640B0B",
"[  c #6B0C0C",
"{  c #630509",
"}  c #730202",
"|  c #7C0202",
" . c #730909",
".. c #7A0C0D",
"X. c #75050B",
"o. c #600A19",
"O. c #641111",
"+. c #661718",
"@. c #741212",
"#. c #7C1313",
"$. c #791818",
"%. c #490F23",
"&. c #48142B",
"*. c #53142E",
"=. c #5B1022",
"-. c #671923",
";. c #403F3F",
":. c #031B42",
">. c #041E4B",
",. c #0C1E4A",
"<. c #121B44",
"1. c #191D47",
"2. c #221E45",
"3. c #0F264B",
"4. c #12294E",
"5. c #052254",
"6. c #03245B",
"7. c #0C2750",
"8. c #14245B",
"9. c #16295B",
"0. c #042A65",
"q. c #0B2965",
"w. c #032B6C",
"e. c #092D6C",
"r. c #082762",
"t. c #112764",
"y. c #0F356F",
"u. c #032E73",
"i. c #082D73",
"p. c #02317C",
"a. c #173C79",
"s. c #484747",
"d. c #4D4D4D",
"f. c #444141",
"g. c #535353",
"h. c #585757",
"j. c #5B5B5B",
"k. c #646363",
"l. c #6C6C6C",
"z. c #737373",
"x. c gray49",
"c. c #830202",
"v. c #8B0202",
"b. c #840C0C",
"n. c #8C0A0A",
"m. c #940202",
"M. c #9B0202",
"N. c #940B0B",
"B. c #9B0909",
"V. c #8D0711",
"C. c #851319",
"Z. c #841919",
"A. c #8C1B1A",
"S. c #881414",
"D. c #9B1212",
"F. c #951919",
"G. c #9D1818",
"H. c #961313",
"J. c #A30202",
"K. c #AC0202",
"L. c #AC0B0B",
"P. c #A50F0F",
"I. c #B40202",
"U. c #BC0202",
"Y. c #B00808",
"T. c #BA0A0A",
"R. c #A41212",
"E. c #AC1212",
"W. c #AC1C1C",
"Q. c #A11C1C",
"!. c #B31414",
"~. c #BD1010",
"^. c #BC1C1C",
"/. c #B51E1E",
"(. c #A12121",
"). c #B72121",
"_. c #C10202",
"`. c #C50909",
"'. c #CB0E0E",
"]. c #C31313",
"[. c #C81818",
"{. c #CE2424",
"}. c #023483",
"|. c #01368B",
" X c #02388E",
".X c #153F80",
"XX c #013891",
"oX c #0A3D91",
"OX c #848484",
"+X c #8C8C8C",
"@X c #949494",
"#X c #9B9B9B",
"$X c #A2A2A2",
"%X c #A7A8A8",
"&X c #ACACAC",
"*X c gray70",
"=X c #BBBBBB",
"-X c #C6C6C6",
";X c #CBCBCB",
":X c gray83",
">X c #DADADA",
",X c #E4E4E4",
"<X c #EBEBEB",
"1X c #F4F4F4",
"2X c #FDFDFD",
"3X c None",
/* pixels */
"3X3X3X3X3X3X3X3X3X3X3X3X3X3X3X3X3X3X3X3X3X3X3X3X3X3X3X3X3X3X3X3X3X3X3X3X3X3X3X3X3X3X3X3X3X3X3X3X3X3X3X3X3X3X3X3X3X3X3X3X3X3X3X3X",
"3X3X3X3X3X3X3X3X3X3X3X3X3X3X3X3X3X3X3X3X3X3X3X3X3X3X3X3X3X3X3X3X3X3X3X3X3X3X3X3X3X3X3X3X3X3X3X3X3X3X3X3X3X3X3X3X3X3X3X3X3X3X3X3X",
"3X3X3X3X3X3X3X3X3X3X3X3X3X3X3X3X3X3X3X3X3X3X3X3X3X3X3X3X5 9 I ] ..} _ U < @ 3X3X3X3X3X3X3X3X3X3X3X3X3X3X3X3X3X3X3X3X3X3X3X3X3X3X",
"3X3X3X3X3X3X3X3X3X3X3X3X3X3X3X3X3X3X3X3X3X3X3X3X3X3X3 3 T O.#.R.T._.K.v.U 1 4 # 3X3X3X3X3X3X3X3X3X3X3X3X3X3X3X3X3X3X3X3X3X3X3X3X",
"3X3X3X3X3X3X3X3X3X3X3X3X3X3X3X3X3X3X3X3X3X3X$ 4 $.F.D.N.c. .v.m.m.K.U.I.K.K.K.B.n.b.O.8 3X3X3X3X3X3X3X3X3X3X3X3X3X3X3X3X3X3X3X3X",
"3X3X3X3X3X3X3X3X3X3X3X3X3X3X3X3X3X3X3X3X3X3X4 I ).[.K.v.v.v.K.m.| M.K.U._._._._._.'.G.T 4 3X3X3X3X3X3X3X3X3X3X3X3X3X3X3X3X3X3X3X",
"3X3X3X3X3X3X3X3X3X3X3X3X3X3X3X3X3X3X3X3X4 P O.S.Y.L.K.J.| M.U.U.I.K.M.M.v.m.U.U.U._.T.K.N.#.#   3X3X3X3X3X3X3X3X3X3X3X3X3X3X3X3X",
"3X3X3X3X3X3X3X3X3X3X3X3X3X3X3X3X3X3X3X$ P $. .c.U._.U.K.` M.U._._._.U.M.Y } K.K.U.U._._.`.!.8 . 3X3X3X3X3X3X3X3X3X3X3X3X3X3X3X3X",
"3X3X3X3X3X3X3X3X3X3X3X3X3X3X3X3X3X3X+.F.!.T.I.U.U._.U.K.J.I._._._._.U.U.I.I.J.M.J.J.v.} | c.N. .4 . 3X3X3X3X3X3X3X3X3X3X3X3X3X3X",
"3X3X3X3X3X3X3X3X3X3X3X3X3X3X3X3X3X8 (.{.`.U._._._._.U.K.U._._._._._._._._._._._.I.M.Y K K U K.L.K @ 3X3X3X3X3X3X3X3X3X3X3X3X3X3X",
"3X3X3X3X3X3X3X3X3X3X3X3X3X3X3X3X9 Z.^.'._._._._._._.K.v.I._._._._._._._.U._._._.U.K.v.v.c.} I._.B. .3X3X3X3X3X3X3X3X3X3X3X3X3X3X",
"3X3X3X3X3X3X3X3X3X3X3X3X3X3X3X. ) W.`._._._._._._._.J.} I._._._._._._._._._._._.U.J.| M.J.| I._.U.B.3 3X3X3X3X3X3X3X3X3X3X3X3X3X",
"3X3X3X3X3X3X3X3X3X3X3X3X3X3X@ 5 W.]._._._._._._.U.I.M.v.v.J.U.U._._._._.U._.U.I.v.m.K.U.K.v.I._.U.I.` 6 3X3X3X3X3X3X3X3X3X3X3X3X",
"3X3X3X3X3X3X3X3X3X3X3X3X3X3X. 9 [.'._._._._._.U.I.M.m.m.} v.K.I.U._._._._._.I.M.| J._._.K.v.I._._._.M.K 3X3X3X3X3X3X3X3X3X3X3X3X",
"3X3X3X3X3X3X3X3X3X3X3X3X3X3X8 Z.L.U.U.U.U.U.M.v.M.M.} M.K.K.M.M.v.m.U.U.I.J.M.J.I.U.U.J.} c.K.U._._.J._ 3X3X3X3X3X3X3X3X3X3X3X3X",
"3X3X3X3X3X3X3X3X3X3X3X3X3X3XP A.m.J.I.I.J.K.| } K.K._ m.U._.U.M.Y } K.I.J.m.M.I.U._.K.} 1 Y m.I._._.K.` # 3X3X3X3X3X3X3X3X3X3X3X",
"3X3X3X3X3X3X3X3X3X3X3X3X3X% #.D.` v.K.J.M.J.I.I.U.K.| M.U._._.U.I.I.K.m.} ` K.U.J.| K # . @ U M.U._.U.v.< 3X3X3X3X3X3X3X3X3X3X3X",
"3X3X3X3X3X3X3X3X3X3X3X3X3X5 Q.P._ v.U._._.U._._._.K.v.J._._._._._._.U.J.} } K.U.c.7 o O O   7 m._._.U.M.1 3X3X3X3X3X3X3X3X3X3X3X",
"3X3X3X3X3X3X3X3X3X3X3X3X3X5 ).~.| } I._._._._._._.U.K.I.U._._._._.I.v.v.K.K.} U # $ h.OXd., 6 | U._.I.m.K 3X3X3X3X3X3X3X3X3X3X3X",
"3X3X3X3X3X3X3X3X3X3X3X3X3X8 /.].m.` I._._._._._.U.U.I.U._._._._.U.J.} M.U.I.Y # O A $X;Xl.Z 1 ` I._.I.m.U 3X3X3X3X3X3X3X3X3X3X3X",
"3X3X3X3X3X3X3X3X3X3X3X3X3X7 R.N.K.M.v.K._._._._.U.I.K.I.U.U._.U.I.v.J.U.M._ # : z.&X,X<XOXA # L I._.I.M.Y 7 3X3X3X3X3X3X3X3X3X3X",
"3X3X3X3X3X3X3X3X3X3X3X3X3XP H.| K.K.} m._._._._.I.K.J.J.K.I.U.U.M.v.I.U.} 1 $ F -X1X2X1X+XF 4 U I._.I.M.Y 1 3X3X3X3X3X3X3X3X3X3X",
"3X3X3X3X3X3X3X3X3X3X3X3X3X3 R L J.I.m.v.I.I.m.v.J.J.K.J.M.K.I.J.| M.K.c.< o g.$X1X2X2X1X#XG 1 ` c.J.I.M.` 1 3X3X3X3X3X3X3X3X3X3X",
"3X3X3X3X3X3X3X3X3X3X3X3X3X# 6 3 v.I.J.} J.J.} } I.I.U._._._.U.J.| M.M.Y . : +X>X2X2X2X1X$XH 5 ` } M.J.m._ 6 3X3X3X3X3X3X3X3X3X3X",
"3X3X3X3X3X3X3X3X3X3X3X3X3X1  .7 1 Y M.c.| M.I.I.U.I.U._._._.I.M.J.m.U # , h.>X2X2X2X2X<X#XH 1 } m.c.| | _ 6 3X3X3X3X3X3X3X3X3X3X",
"3X3X3X3X3X3X3X3X3X3X3X3X3X1 | K . # v.m._ m.U._._.U.U._._._.K.M.I.J.#   D +X1X2X2X2X1X,X#XG 4 } m.Y } v._ 1 3X3X3X3X3X3X3X3X3X3X",
"3X3X3X3X3X3X3X3X3X3X3X3X3X4 ' 9 S > 1 Y m.m.I.U.I.m.c.| v.v.v.J.I.v.@ o l.-X2X2X2X2X1X:Xx.A 4 ` M.v.v.c.K # 3X3X3X3X3X3X3X3X3X3X",
"3X3X3X3X3X3X3X3X3X3X3X3X3X# L t f.A $ 6 m.m.J.K.M.| U U _ ` v.I.K.} $ , %X<X2X2X2X2X<X-Xk., 1 c.J.m.v.c.6 @ 3X3X3X3X3X3X3X3X3X3X",
"3X3X3X3X3X3X3X3X3X3X3X3X3X3X# # H OXk.S 7 Y _ ` J.J.| m.m.v.} J.m.K : H >X2X2X2X2X1X:X*XA o 7 | ` c.v.| <   3X3X3X3X3X3X3X3X3X3X",
"3X3X3X3X3X3X3X3X3X3X3X3X3X3X. # H &X&Xg.$ 1 U ` J.K.| m.m.M.| m.c.6 r j.,X2X2X2X2X1X-X$X,   U | U } v.} # 3X3X3X3X3X3X3X3X3X3X3X",
"3X3X3X3X3X3X3X3X3X3X3X3X3X3X. . e l.>X-Xj.Z 1 L c.| } ` } v.} _ 6 @ s.%X1X2X2X2X,X>X*Xz.$ < m.M.} c.| Y @ 3X3X3X3X3X3X3X3X3X3X3X",
"3X3X3X3X3X3X3X3X3X3X3X3X3X3X3X  $ H >X2X%Xg.$ 1 | ` } _ v.| _ U . O z.;X2X2X2X1X>X;X$Xd.$ 6 M.M.v.m.} K . 3X3X3X3X3X3X3X3X3X3X3X",
"3X3X3X3X3X3X3X3X3X3X3X3X3X3X3X  @ > OX;X,X:Xz.D # < K Y } | v.7 e k.>X1X2X1X,X:X;X*Xj.e 7 | m.} v.v.L < 3X3X3X3X3X3X3X3X3X3X3X3X",
"3X3X3X3X3X3X3X3X3X3X3X3X3X3X3X  @ . ;.#X<X2X;Xj.O . L ` } | v.K D @X<X1X1X,X;X;X=X@Xe . Y m.c.Y ` } 6 @ 3X3X3X3X3X3X3X3X3X3X3X3X",
"3X3X3X3X3X3X3X3X3X3X3X3X3X3X3X3X# 7 r ;.@X%Xz.;.@ 1 m.K.m.J.v.U 4 Z h.l.@X$X+Xz.d.A 4 L `  .[ ..|  .} ] I 9 3X3X3X3X3X3X3X3X3X3X",
"3X3X3X3X3X3X3X3X3X3X3X3X3X3X3X3X1 _ 1 $ d.h.:   @ 6 M.K.c.M.M._ < .   $ d.l.g.C     1 } { T @.E.T.B.I.R.#.O.# 3X3X3X3X3X3X3X3X3X",
"3X3X3X3X3X3X3X3X3X3X3X3X3X3X3X3X@ 6 ` } I 8 3 K ` | J.J.` v.K.K.} Y Y L 9 t I T E I  .n.P.m.J.I.I.K.v.` | | < . 3X3X3X3X3X3X3X3X",
"3X3X3X3X3X3X3X3X3X3X3X3X3X3X3X3X  @ ` M.c.L L c.I.U.U.K.v.J.U._.K.v.m.v.U _ } v.m.b.L.B.J.J.K.K.K.M.` K Y _ < . 3X3X3X3X3X3X3X3X",
"3X3X3X3X3X3X3X3X3X3X3X3X3X3X3X3X3X3X1 7 } v.| } | M.U.U.J.v.K.K.c.` _ Y Y c.K.J.H.R.c.Y ] { _ v.} Y 1 # # # 3X3X3X3X3X3X3X3X3X3X",
"3X3X3X3X3X3X3X3X3X3X3X3X3X3X3X3X3X3X@ < K v.M._ Y m.K.I.M.` m.m.Y L U U Y | J.B.W.E.` I @.] U c.| U 1 @ 3X3X3X3X3X3X3X3X3X3X3X3X",
"3X3X3X3X3X3X3X3X3X3X9 7 U L I ] R P ] | _ R ! q U | M.m.c.} } v.m.m.v.v.v.| Y U N.m.v.b.b.c.` Y v.v.c.[ 4 3X3X3X3X3X3X3X3X3X3X3X",
"3X3X3X3X3X3X3X3X3X# R { c.} ..D.S.] c.M.| ' g u Q ' | | v.c.` | v.v.c.c.c.| L K B.J.J.m.} ` ` U } v.T.P.I 3X3X3X3X3X3X3X3X3X3X3X",
"3X3X3X3X3X3X3X3X3X3X7 K E T _ [ } _ v.v.m.| h 6.e.8.1.2.M %...| } _ L U } ` K U J.I.J. .v.v.| Y K _ m.B.n.I 3X3X3X3X3X3X3X3X3X3X",
"3X3X3X3X3X3X3X3X3X3X  @ 9 7 K Y c.` c.c.K.M.M w.}.p.u.u.q.2.S.n.} Y U _ | Y 6 U J.U.M._ | } ` L # 7 v.K.v.K 3X3X3X3X3X3X3X3X3X3X",
"3X3X3X3X3X3X3X3X@ # 9 7 R Y L L U Y ` Y _ ^ <.0.w.w.0.6.5.3.&.C.U K K L U Y L U v.m.c.{ w Q 6 < . . L ` L < 3X3X3X3X3X3X3X3X3X3X",
"3X3X3X3X3X3X3X3X@ 8 O.T K Y U L U _ Y K 1 0 :.6.6.5.>.:.x z N -.L 1 @ < < 7 K L | v.| o.<.a     3X  @ 7 6 # 3X3X3X3X3X3X3X3X3X3X",
"3X3X3X3X3X3X3X@ K ` U 1 6 Y c.| ` U < < # . * * * * & & & + O % 1 1 K U K Y v.` ` Y w n 6.:.+ X 3X3X. @ 3X3X3X3X3X3X3X3X3X3X3X3X",
"3X3X3X3X3X3X3X@ U ` 6 # 6 ` v.v.U 1         3X3X3X3X3X3X3X3X3X. 8 7 ` v.Y } v.` ` 7 k r.6.:.u * X 3X3X3X3X3X3X3X3X3X3X3X3X3X3X3X",
"3X3X3X3X3X3X3X3X# # @ @ U ` U K < @ 3X3X3X3X3X3X3X3X3X3X4.4.4.c % 7 U v.v.} v.c.` E g x :.j l k = + 3X3X3X3X3X3X3X3X3X3X3X3X3X3X",
"3X3X3X3X3X3X3X3X3X3X3X@ U _ 1 @ 3X3X3X3X3X3X3X3X3X3X* a 9.a..Xy.- 7 U v.M.` K.I.v.} - y j j u * * ; 3X3X3X3X3X3X3X3X3X3X3X3X3X3X",
"3X3X3X3X3X3X3X3X3X3X3X3XK 6 3X3X3X3X3X3X3X3X3X3X* a c 0.}. X|.}.5.b W | m.c.| c.K w ,.0.p.}.p.p.p.e.* 3X3X3X3X3X3X3X3X3X3X3X3X3X",
"3X3X3X3X3X3X3X3X3X3X3X3X3X3X3X3X3X3X3X3X3X3X3X3X= d x w. XXX X X|.u.M o.V.X.L L 2 u w.|.XXXXXXXX|.e.a 3X3X3X3X3X3X3X3X3X3X3X3X3X",
"3X3X3X3X3X3X3X3X3X3X3X3X3X3X3X3X3X3X3X3X3X3X3X= 7.6.p.|.XX X X Xp.p.e.t.8.1.<.b k >.u.}.|.|.|.p.2.*.+.8 3X3X3X3X3X3X3X3X3X3X3X3X",
"3X3X3X3X3X3X3X3X3X3X3X3X3X3X3X3X3X3X3X3X3X3X3X> a.oXXXXXXX X|.}.u.u.w.0.0.6.5.>.j :.w.p.}.p.i.8.Q n.A.P 3X3X3X3X3X3X3X3X3X3X3X3X",
"3X3X3X3X3X3X3X3X3X3X3X3X3X3X3X3X3X3X3X3X3X3X3 I =.V t.p.|.}.p.e.>.z s * & * * & o 2 %.&.*.%.! ^ ` `  .P 3X3X3X3X3X3X3X3X3X3X3X3X",
"3X3X3X3X3X3X3X3X3X3X3X3X3X3X3X3X3X3X3X3X3X. P Y v.' N t.u.u.w.6.s X       3X3X3X@ 6 } v.M.m.} ` ` _ v.R @ 3X3X3X3X3X3X3X3X3X3X3X",
"3X3X3X3X3X3X3X3X3X3X3X3X3X3X3X3X3X3X3X3X% 8 N.n.v.m.' / %.m g * 3X3X3X3X3X3X3X3X@ L ` _ M.I.J.K.K.J.} ] # 3X3X3X3X3X3X3X3X3X3X3X",
"3X3X3X3X3X3X3X3X3X3X3X3X3X3X3X3X3X3X3X3X< T M.v.I.I.} ` | ` <   3X3X3X3X3X3X3X3X@ 7 ` _ m.I.I.K.K.J.` R # 3X3X3X3X3X3X3X3X3X3X3X",
"3X3X3X3X3X3X3X3X3X3X3X3X3X3X3X3X3X3X# 5 b.N.} } m.J.` } { 6 .   3X3X3X3X3X3X3X3X3X# U L ` c.} _ m.K.m._ $ 3X3X3X3X3X3X3X3X3X3X3X",
"3X3X3X3X3X3X3X3X3X3X3X3X3X3X3X3X3X3X# I !.K.Y Y | v._ } Y <   3X3X3X3X3X3X3X3X3X3X# U U Y _ L L M.I.m.U . 3X3X3X3X3X3X3X3X3X3X3X",
"3X3X3X3X3X3X3X3X3X3X3X3X3X3X3X3X3X. L b.v.} m.J.v.` _ L # @ 3X3X3X3X3X3X3X3X3X3X3X3X< 6 Y ` | c.v.| L < 3X3X3X3X3X3X3X3X3X3X3X3X",
"3X3X3X3X3X3X3X3X3X3X3X3X3X3X3X3X3X@ E |  ._ v.m.} U Y 7 . 3X3X3X3X3X3X3X3X3X3X3X3X3X  # K Y ` | Y L 6 # 3X3X3X3X3X3X3X3X3X3X3X3X",
"3X3X3X3X3X3X3X3X3X3X3X3X3X3X3X3X3X3X# 1 6 K ` Y K 6 # @ 3X3X3X3X3X3X3X3X3X3X3X3X3X3X3X3X# 1 _ ` L 7 3X3X3X3X3X3X3X3X3X3X3X3X3X3X",
"3X3X3X3X3X3X3X3X3X3X3X3X3X3X3X3X3X3X3X3X3X3X3X3X3X3X3X3X3X3X3X3X3X3X3X3X3X3X3X3X3X3X3X3X3X3X3X3X3X3X3X3X3X3X3X3X3X3X3X3X3X3X3X3X"
};
