/* XPM */
static char *_32f89a8f39a4a0b8489eb0176bc800cEpcaS8kEj5pCpbrx[] = {
/* columns rows colors chars-per-pixel */
"64 64 161 2 ",
"   c None",
".  c #000000",
"X  c #0B0101",
"o  c #03050B",
"O  c #0F040B",
"+  c #04080E",
"@  c #0B0B0B",
"#  c #140101",
"$  c #1C0101",
"%  c #12050B",
"&  c #1C050B",
"*  c #010712",
"=  c #060914",
"-  c #0F0813",
";  c #040B1C",
":  c #170815",
">  c #131313",
",  c #240101",
"<  c #2B0000",
"1  c #240808",
"2  c #2D0909",
"3  c #340101",
"4  c #3C0101",
"5  c #340B0B",
"6  c #3C0E0E",
"7  c #000D21",
"8  c #0C1225",
"9  c #02122D",
"0  c #011433",
"q  c #031739",
"w  c #252525",
"e  c #2D2D2D",
"r  c gray20",
"t  c #3C3C3C",
"y  c #430101",
"u  c #4C0101",
"i  c #440C0C",
"p  c #4A0909",
"a  c #540101",
"s  c #5C0101",
"d  c #570D0D",
"f  c #5F0E0E",
"g  c #541313",
"h  c #5A1313",
"j  c #630101",
"k  c #6C0101",
"l  c #660F0F",
"z  c #740101",
"x  c #7B0101",
"c  c #621616",
"v  c #6B1414",
"b  c #751616",
"n  c #7B1414",
"m  c #7D1B1B",
"M  c #031B44",
"N  c #031D48",
"B  c #022154",
"V  c #03255D",
"C  c #162E55",
"Z  c #032762",
"A  c #042965",
"S  c #042B6C",
"D  c #193663",
"F  c #042D71",
"G  c #03317C",
"H  c #0D387C",
"J  c #1E3F74",
"K  c #1E437D",
"L  c #494949",
"P  c #646464",
"I  c gray42",
"U  c #727272",
"Y  c #7D7D7D",
"T  c #840202",
"R  c #8C0101",
"E  c #920202",
"W  c #9C0202",
"Q  c #841D1D",
"!  c #921F1F",
"~  c #981C1C",
"^  c #A40202",
"/  c #AB0202",
"(  c #B40202",
")  c #BC0202",
"_  c #BC0C0C",
"`  c #AD1717",
"'  c #AA1C1C",
"]  c #B41010",
"[  c #BC1B1B",
"{  c #942121",
"}  c #9D2222",
"|  c #A12323",
" . c #B92727",
".. c #B52828",
"X. c #C10202",
"o. c #C40A0A",
"O. c #CA0D0D",
"+. c #CE1313",
"@. c #C11919",
"#. c #D01515",
"$. c #D51C1C",
"%. c #CC2727",
"&. c #C02A2A",
"*. c #CB2C2C",
"=. c #DB2424",
"-. c #DA2424",
";. c #D62F2F",
":. c #D22C2C",
">. c #D92A2A",
",. c #D93030",
"<. c #DF3131",
"1. c #E12C2C",
"2. c #E42F2F",
"3. c #E73333",
"4. c #E63131",
"5. c #E13232",
"6. c #01378C",
"7. c #01388F",
"8. c #153F82",
"9. c #053C92",
"0. c #093F95",
"q. c #1B4281",
"w. c #0F459B",
"e. c #26549C",
"r. c #1E52A4",
"t. c #275BAE",
"y. c #295DAE",
"u. c gray55",
"i. c gray55",
"p. c #959595",
"a. c #9A9A9A",
"s. c #A4A4A4",
"d. c #AEAEAE",
"f. c #A9A9A9",
"g. c #B2B2B2",
"h. c #B7B7B7",
"j. c gray71",
"k. c gray70",
"l. c gray",
"z. c #BBBBBB",
"x. c #C0C0C0",
"c. c #C5C5C5",
"v. c gray78",
"b. c gray78",
"n. c #CACACA",
"m. c #CFCFCF",
"M. c #CACACA",
"N. c #D0D0D0",
"B. c gray83",
"V. c #D4D4D4",
"C. c #DDDDDD",
"Z. c gray86",
"A. c #E2E2E2",
"S. c #EFEFEF",
"D. c #E9E9E9",
"F. c #F3F3F3",
"G. c gray95",
"H. c white",
"J. c #FEFEFE",
"K. c #FDFDFD",
"L. c #FFFFFF",
/* pixels */
"                                              . . . . . . . . .                                                                 ",
"                                          . . 5 Q v @._ ) / z 4 . . .                                                           ",
"                                    . . 5 :.=.X.4 y ) X.X.X.X.X.X.X.' 6 . .                                                     ",
"                                  . # ;.-.X.a E u X.T a X.X.X.X.X.X.X.X.+. .. .                                                 ",
"                              . . { 3.^ 4 W X.^ ) X.X.X.z 4 ( X.X.X.X.X.X.X.+.m . .                                             ",
"                            . # { p T X.X.X.X.4 X.X.X.X.X.X.^ < z X.X.X.X.X.X.X.>.X .                                           ",
"                          . v <.O.X.X.X.X.X.X.z X.X.X.X.X.X.X.X.X.x , T ) X.X.X.X.[ X .                                         ",
"                        . } 3.X.X.X.X.X.X.X.^ ) X.X.X.X.X.X.X.X.X.X.X.) R y < y 4 ( O.1 .                                       ",
"                      . | 3.X.X.X.X.X.X.X.X.u X.X.X.X.X.X.X.X.X.X.X.X.X.X.X.^ s z X.X.O..                                       ",
"                    . $ 3.o.X.X.X.X.X.X.X.X.y X.X.X.X.X.X.X.X.X.X.X.X.X.X.a ^ X.4 X.X.X.] .                                     ",
"                    . ,.O.X.X.X.X.X.X.X.X.^ y X.X.X.X.X.X.X.X.X.X.X.X.) < X.X.X.3 X.X.X.X., .                                   ",
"                  . X 1.X.X.X.X.X.X.X.X.^ R ) 4 ^ X.X.X.X.X.X.X.X.X./ u X.X.X.X.s X.X.X.X.) .                                   ",
"                  . *.X.X.X.X.X.X.X.X.j W k X.X./ , / X.X.X.X.X.X.R x X.X.X.X.) E ) X.X.X.X.X                                   ",
"                  X 3.R X.X.X.X.X.z 4 ) X.3 X.X.X.X./ < z ) X.X.R R X.X.X.X.W . W W X.X.X.X.j .                                 ",
"                . g $.< E T u < T X.X.X.X.3 X.X.X.X.X.X.X.W j 4 y X.X.X.X.T . . # u X.X.X.X./ .                                 ",
"                . ..o.< X.X.X.X.X.X.X.X.X.j X.X.X.X.X.X.X.X.( j s X.X.) $ . . . . $ X.X.X.X.( .                                 ",
"                . 5.X.u W X.X.X.X.X.X.X.X.E X.X.X.X.X.X.X.X.< X.X.u / . . . U L . $ X.X.X.X./ #                                 ",
"                . 2.) W , X.X.X.X.X.X.X.) / X.X.X.X.X.X.X.3 X.X.X.T . . . i.H.I . # E X.X.X.W 3                                 ",
"                . -.R X.R ) X.X.X.X.X.X.( ( X.X.X.X.X.X.E ^ X.X.R . . . d.H.H.i.. . < X.X.X.E s                                 ",
"                # #.< X.X.4 X.X.X.X.X.X./ E X.X.X.X.X.X.y X.X./ . . . v.H.H.H.s.. . s X.X.X.E z .                               ",
"                $ _ u X.X.k ) X.X.X.X.R x ( y u z E ^ u X.X.X.. . . h.H.H.H.H.h.. . ) E X.X.E T .                               ",
"                X 3 . / X.X.3 ) / s u ) / ) X.X.X.X.) a ) X.y . . P H.H.H.H.H.x.. . ) 4 X.) E T .                               ",
"                . o.. . ) X., ( X.X.X.X./ ) X.X.X.X.u X.< ) . . . H.H.H.H.H.G.v.. . / ( ( W 3 x .                               ",
"                . O.. . X X.W $ X.X.X.X.( ) X.X.X.X.T X.) X . . k.H.H.H.H.H.C.l.. . ^ ) , k E x .                               ",
"                . O.. > . X X.) k X.X.X.) ) X.X.X.u X.X.X.. . . H.H.H.H.H.H.M.h.. . y / y E E j .                               ",
"                . T . P . . 3 X.z ( X.) a y 4 s k R X.X.x . . a.H.H.H.H.H.H.v.Y . . ) ) T E E 4 .                               ",
"                  # X > B.. . u X.3 y E X.R X.X.y j X.X.X . . H.H.H.H.H.H.C.v.w . . X.x E E E # .                               ",
"                  . 4 . H.m.. . 4 k y X.X.s X.W ) y X.) . . t H.H.H.H.H.H.v.v.. . < X.< R E E .                                 ",
"                  . y . V.H.f.. . # X.a R x j $ X.X.4 s . . S.H.H.H.H.H.m.v.d.. . ( ) u E E T .                                 ",
"                    . . e H.H.k.. . , ) a R a E R a x . . r H.H.H.H.H.C.v.v.w . X X.E T E E 3 .                                 ",
"                    . # . Z.H.H.Z.. . X # 4 < T j ) . . . H.H.H.H.H.B.v.v.l.. . E ) j E E E .                                   ",
"                    . $ . w V.H.H.G.. . . 4 k k j X.. . G.H.H.H.D.v.v.v.v.@ . 3 X.E 4 E E 4 .                                   ",
"                      . < . Y v.A.H.p.. $ ( ) ( ( z k . . f.M.v.v.v.v.z.@ . X X.^ z # $ # 2 X . .                               ",
"                      . ) . . P p.> . . < X.X.z X.( 4 $ . . @ I i.U > . . . ) u 6 g $.O.k X.` b c .                             ",
"                      . T ) X . . . . , 3 x W 4 u / / < u . . . . . . . 4 $ } +.a R X.X.^ X.a E o.# .                           ",
"                      . . z X.R X 3 R ) ( X.X.a X.X.X.X.y / E y s s T ( i +.z X.( ) ( X.( x 4 z W , .                           ",
"                        . < a X.) 3 X.x X.X.X.X.E X.X.X.X.E s y X.X.X.1 >.) 4 4 4 a ^ 4 k < . . . .                             ",
"                          . # 4 ( X.3 y ) / ) X.3 X.E 4 3 4 u 3 E X.W &.) k $ m d $ X.x , < .                                   ",
"          . . . . . . . . c ~ < # x W $ W ) / y j y ) X.X.) ( W R y y v W z h X.X.( < ) ( p 1 .                                 ",
"        . l 4 ^ s f [ ' i z ) z E q + a E R E E W a W E E E E E T 4 $ o.x / ^ s s j , R z X.-.X                                 ",
"        . R ( j z R T , u X.E z u ; F S 9 X 3 a k s x k a 3 # y W R 4 ^ X.( 3 X.X.X.T 3 ( ( 4 %..                               ",
"          . # 4 5 4 a ( < ^ s ) / : 7.7.G F F S 8 ` z z j 4 u ^ 3 X y X.) X., ^ u z s . j R X.X..                               ",
"        . . . ' 4 x # y y x a ) / 9 F F F F F F F c X.s < / R x X.x j z W k s j E E # . . R R 4 .                               ",
"      . 2 b p 3 R 3 a y j z , < < Z F F S V B N N M :.y y . 4 $ u < 4 ^ x T z B # . .   . . x a .                               ",
"    . 2 z ^ X u $ ) s W k 4 k u . o . . . . . . . . X < . . , , u X.a $ W R o F A .       . . .                                 ",
"    . k W 4 . # E R R z , . . . .                   . p , z / < z X.3 / $ ; S F 0                                               ",
"    . . . . . z a T z . .                             . j 3 ( T R j $ < < S F F o                                               ",
"            . s E 4 .                                 . x , ( X.# X.) T E - * 7 9 o . .                                         ",
"            . u X .                             . . . . X u ) R s X.) j u + G 7.7.9.y.8 .                                       ",
"                                          . o C K q.8.H F & R X.T a x , % F 6.7.7.7.7.t.+                                       ",
"                                        . J w.7.7.7.7.7.7.7.6.V 0 ; ; 9 A F 7.7.7.7.7.7.e..                                     ",
"                                      . D 0.7.7.7.7.7.7.7.7.7.7.6.G F N F F 7.7.7.7.7.7.9..                                     ",
"                                    . = w.7.7.7.7.7.7.7.6.G F F F F F 9 F F 7.7.7.7.7.7.q i .                                   ",
"                                    . r.7.7.7.7.7.7.6.F F F F F F S S ; F F 7.7.7.7.G O ) *..                                   ",
"                                  . ! & 6.7.7.7.7.G F F F B ; . . . . . % 9 B B 9 X W X.a 4 .                                   ",
"                                . 1 y ) a 0 6.7.F F F 9 . . . .       . 4 z E / T j j s < X.5 .                                 ",
"                                . =.X.# W X.4 = V F * .               . R x $ ( X.R ) X.X.x | .                                 ",
"                              . i X.a X.) k s E T $ .                 . u E y E X.X.^ X.X.y n .                                 ",
"                            . h _ ^ ^ X.X.a z s # . .                   . 3 , E ( X.u z R ^ / .                                 ",
"                          . 2 #.X.< y k ) u E T . .                     . T < u k y $ ^ X.X.4 .                                 ",
"                        . 2 @.R s X.X.) 4 k 4 $ .                         X R R E E ^ ) X.u .                                   ",
"                        . s X.E y ^ ( E 4 R 3 .                           . $ u z z E j u y .                                   ",
"                          . . . y k < 4 # . .                               . . $ s z 4 y .                                     ",
"                                . . .                                             . . . .                                       "
};
