/* XPM */
static char *result[] = {
/* columns rows colors chars-per-pixel */
"64 64 206 2 ",
"   c #030101",
".  c #0C0202",
"X  c #02060B",
"o  c #0B060B",
"O  c #0C0D0D",
"+  c #130101",
"@  c #1C0202",
"#  c #140B0B",
"$  c #1E0809",
"%  c #000915",
"&  c #030C1B",
"*  c #0A0D1A",
"=  c #1B0813",
"-  c #06101F",
";  c #161313",
":  c #1B1616",
">  c #1C1A1A",
",  c #230202",
"<  c #2C0202",
"1  c #21060E",
"2  c #280708",
"3  c #240808",
"4  c #2C0A0A",
"5  c #330101",
"6  c #3C0202",
"7  c #340B0B",
"8  c #3C0B0B",
"9  c #32060F",
"0  c #200710",
"q  c #3B0916",
"w  c #231E1E",
"e  c #261515",
"r  c #341212",
"t  c #030E22",
"y  c #0A0F25",
"u  c #100E22",
"i  c #061123",
"p  c #081027",
"a  c #02112C",
"s  c #14122C",
"d  c #1A1226",
"f  c #011432",
"g  c #011739",
"h  c #03193D",
"j  c #0A1A36",
"k  c #111738",
"l  c #19183C",
"z  c #3F0E21",
"x  c #27122D",
"c  c #251634",
"v  c #231A3E",
"b  c #381737",
"n  c #1D2020",
"m  c #242121",
"M  c #2C2C2C",
"N  c #2F2424",
"B  c #362E2E",
"V  c #323333",
"C  c #363838",
"Z  c #3B3C3C",
"A  c #3D3737",
"S  c #440202",
"D  c #4C0202",
"F  c #450C0C",
"G  c #4B0B0B",
"H  c #530202",
"J  c #5B0102",
"K  c #520B0B",
"L  c #5C0B0B",
"P  c #56050A",
"I  c #410710",
"U  c #450914",
"Y  c #4A0B1B",
"T  c #5B0811",
"R  c #411212",
"E  c #561111",
"W  c #640202",
"Q  c #6C0202",
"!  c #6A050B",
"~  c #640B0B",
"^  c #6B0C0C",
"/  c #630509",
"(  c #730202",
")  c #7C0202",
"_  c #730909",
"`  c #7A0C0D",
"'  c #75050A",
"]  c #610A19",
"[  c #641111",
"{  c #661718",
"}  c #741212",
"|  c #7C1313",
" . c #791818",
".. c #490F23",
"X. c #48142B",
"o. c #53142D",
"O. c #5B1022",
"+. c #671923",
"@. c #403F3F",
"#. c #031C45",
"$. c #0A1C44",
"%. c #041E4A",
"&. c #0B1F4C",
"*. c #121C45",
"=. c #161D47",
"-. c #221E45",
";. c #0C264F",
":. c #12294D",
">. c #042355",
",. c #04245B",
"<. c #0E2A57",
"1. c #122A53",
"2. c #14245B",
"3. c #122F5D",
"4. c #032761",
"5. c #042864",
"6. c #0B2965",
"7. c #042B6C",
"8. c #0D2763",
"9. c #142765",
"0. c #032E73",
"q. c #082D73",
"w. c #112F78",
"e. c #0B3371",
"r. c #03317C",
"t. c #09357E",
"y. c #0C397F",
"u. c #173C79",
"i. c #484747",
"p. c #4D4D4D",
"a. c #444141",
"s. c #535353",
"d. c #585757",
"f. c #5B5B5B",
"g. c #646363",
"h. c #6C6C6C",
"j. c #737373",
"k. c gray49",
"l. c #830202",
"z. c #8B0202",
"x. c #840C0C",
"c. c #8C0A0A",
"v. c #940202",
"b. c #9B0202",
"n. c #940B0B",
"m. c #9B0909",
"M. c #8D0710",
"N. c #851319",
"B. c #841919",
"V. c #8C1B1A",
"C. c #881414",
"Z. c #9B1212",
"A. c #951919",
"S. c #9D1818",
"D. c #961313",
"F. c #A30202",
"G. c #AC0202",
"H. c #AC0B0B",
"J. c #A50F0F",
"K. c #B40202",
"L. c #BC0202",
"P. c #B00808",
"I. c #BA0A0A",
"U. c #A41212",
"Y. c #AC1212",
"T. c #AC1C1C",
"R. c #A11C1C",
"E. c #B31414",
"W. c #BD1010",
"Q. c #BC1C1C",
"!. c #B51E1E",
"~. c #A12121",
"^. c #B72121",
"/. c #C10202",
"(. c #C50909",
"). c #CB0E0E",
"_. c #C31313",
"`. c #C81818",
"'. c #CE2424",
"]. c #023484",
"[. c #0A3880",
"{. c #01368B",
"}. c #02388E",
"|. c #083B8D",
" X c #123E85",
".X c #023991",
"XX c #0A3D90",
"oX c #174287",
"OX c #848484",
"+X c #8C8C8C",
"@X c #949494",
"#X c #9B9B9B",
"$X c #A2A2A2",
"%X c #A7A8A8",
"&X c #ACACAC",
"*X c gray70",
"=X c #BBBBBB",
"-X c #C6C6C6",
";X c #CBCBCB",
":X c gray83",
">X c #DADADA",
",X c #E4E4E4",
"<X c #EBEBEB",
"1X c #F4F4F4",
"2X c #FDFDFD",
"3X c None",
/* pixels */
"3X3X3X3X3X3X3X3X3X3X3X3X3X3X3X3X3X3X3X3X3X3X3X3X3X3X3X3X4 8 G ^ _ ( W H , + 3X3X3X3X3X3X3X3X3X3X3X3X3X3X3X3X3X3X3X3X3X3X3X3X3X3X",
"3X3X3X3X3X3X3X3X3X3X3X3X3X3X3X3X3X3X3X3X3X3X3X3X3X3X2 < K [ | U.I./.G.z.D 5 , @ 3X3X3X3X3X3X3X3X3X3X3X3X3X3X3X3X3X3X3X3X3X3X3X3X",
"3X3X3X3X3X3X3X3X3X3X3X3X3X3X3X3X3X3X3X3X3X3X# 3  .A.Z.c.x.( z.v.m.G.L.K.G.K.F.m.c.x.[ 7 3X3X3X3X3X3X3X3X3X3X3X3X3X3X3X3X3X3X3X3X",
"3X3X3X3X3X3X3X3X3X3X3X3X3X3X3X3X3X3X3X3X3X3X3 F ^.`.G.z.z.l.F.v.) b.G.L././././.(.).S.K $ 3X3X3X3X3X3X3X3X3X3X3X3X3X3X3X3X3X3X3X",
"3X3X3X3X3X3X3X3X3X3X3X3X3X3X3X3X3X3X3X3X2 R [ C.H.H.K.F.l.b.L.L.K.G.b.b.l.v.L.L.L./.L.P.n.| @   3X3X3X3X3X3X3X3X3X3X3X3X3X3X3X3X",
"3X3X3X3X3X3X3X3X3X3X3X3X3X3X3X3X3X3X3X@ F } _ z.L./.L.G.Q b././././.L.b.W ( G.G.L.L././.(.E.7 . 3X3X3X3X3X3X3X3X3X3X3X3X3X3X3X3X",
"3X3X3X3X3X3X3X3X3X3X3X3X3X3X3X3X3X3X{ V.E.I.K.L././.L.G.F.K.L././.L./.L.K.K.F.b.F.F.l.) ) x.n._ 3   3X3X3X3X3X3X3X3X3X3X3X3X3X3X",
"3X3X3X3X3X3X3X3X3X3X3X3X3X3X3X3X3X7 ~.'.(./././././.L.G.L././././././.L././././.K.b.J S S H F.K.S + 3X3X3X3X3X3X3X3X3X3X3X3X3X3X",
"3X3X3X3X3X3X3X3X3X3X3X3X3X3X3X3X8 V._.(././././././.G.l.K./././././././././././.L.G.l.z.l.( G./.b._ 3X3X3X3X3X3X3X3X3X3X3X3X3X3X",
"3X3X3X3X3X3X3X3X3X3X3X3X3X3X3X. E T.(./././././././.F.) K./././././././././././.L.F.l.b.F.) K./.L.m.< 3X3X3X3X3X3X3X3X3X3X3X3X3X",
"3X3X3X3X3X3X3X3X3X3X3X3X3X3X+ 2 T.`././.L./././.L.K.v.z.z.F.L.L././././././.L.G.z.v.G.L.G.l.K././.K.Q < 3X3X3X3X3X3X3X3X3X3X3X3X",
"3X3X3X3X3X3X3X3X3X3X3X3X3X3Xo 8 Q.)./././././.L.G.F.v.b.Q z.G.K./././.L././.K.b.) F././.G.v.K./././.b.S 3X3X3X3X3X3X3X3X3X3X3X3X",
"3X3X3X3X3X3X3X3X3X3X3X3X3X3X7 B.H.L.L.L.L.L.b.z.b.b.( b.K.G.b.b.l.v.L.L.K.G.b.F.K.L.L.b.( l.G.L././.F.W 3X3X3X3X3X3X3X3X3X3X3X3X",
"3X3X3X3X3X3X3X3X3X3X3X3X3X3XF A.v.F.K.K.G.G.) ( G.G.W v././.L.b.W ( G.K.F.z.b.K././.G.( < J v.K././.G.( @ 3X3X3X3X3X3X3X3X3X3X3X",
"3X3X3X3X3X3X3X3X3X3X3X3X3X$  .Z.W z.G.F.v.F.K.K.L.G.) b.L././.L.K.K.G.v.Q Q G./.G.) S @ . @ H b.L./.K.v., 3X3X3X3X3X3X3X3X3X3X3X",
"3X3X3X3X3X3X3X3X3X3X3X3X3X4 R.J.W z.L./././././.L.K.z.F.L./././././.L.F.) ( G.K.l.5 . O O   6 z.L./.L.v.< 3X3X3X3X3X3X3X3X3X3X3X",
"3X3X3X3X3X3X3X3X3X3X3X3X3X4 !._.) ( K././././././.L.F.K./././././.K.z.z.G.G.( H @ # d.OXp.> 5 ) L./.L.v.S 3X3X3X3X3X3X3X3X3X3X3X",
"3X3X3X3X3X3X3X3X3X3X3X3X3X7 ^._.v.Q K.L./././.L.L.L.K.L././././.L.F.( b.L.K.W @ O M $X;Xh.m < Q K./.L.v.H 3X3X3X3X3X3X3X3X3X3X3X",
"3X3X3X3X3X3X3X3X3X3X3X3X3X7 U.n.G.F.z.G././././.L.K.G.K.L.L./.L.G.v.F.L.b.J $ ; j.*X<X<XOXM @ D K./.K.b.J 5 3X3X3X3X3X3X3X3X3X3X",
"3X3X3X3X3X3X3X3X3X3X3X3X3XF n.) G.G.( b.L./././.K.F.F.G.G.K.L.L.b.l.K.L.) < # B -X1X2X1X+XV $ J G./.K.b.W < 3X3X3X3X3X3X3X3X3X3X",
"3X3X3X3X3X3X3X3X3X3X3X3X3X2 K H F.K.v.z.K.K.v.z.F.G.G.F.F.F.K.F.l.b.G.l., o s.$X<X2X2X1X#XC 3 Q l.G.G.b.Q < 3X3X3X3X3X3X3X3X3X3X",
"3X3X3X3X3X3X3X3X3X3X3X3X3X@ 5 < l.K.F.( F.F.( ( G.K.L./././.L.F.) b.b.H o ; +X>X2X2X2X1X$XZ < Q Q b.G.v.W 5 3X3X3X3X3X3X3X3X3X3X",
"3X3X3X3X3X3X3X3X3X3X3X3X3X< _ 6 < J b.l.) b.K.K.L.L.L./././.G.b.F.v.H , > d.>X2X2X2X2X<X#XC < ( b.l.l.) W < 3X3X3X3X3X3X3X3X3X3X",
"3X3X3X3X3X3X3X3X3X3X3X3X3X< ) F . @ z.z.W v.L./.L.L.L././.L.G.F.K.F.@   M @X1X2X2X2X1X,X#XZ < ( v.J ( l.W < 3X3X3X3X3X3X3X3X3X3X",
"3X3X3X3X3X3X3X3X3X3X3X3X3X, ! 8 N : 5 J v.v.K.L.G.v.) ) z.z.z.G.K.z.+ O h.-X2X2X2X2X1X:Xk.M 3 Q b.l.z.l.S @ 3X3X3X3X3X3X3X3X3X3X",
"3X3X3X3X3X3X3X3X3X3X3X3X3X@ D r a.M # 5 v.b.F.G.F.) H H W Q z.K.G.Q # > %X<X2X2X2X2X<X;Xg.n < l.G.v.z.) 5 + 3X3X3X3X3X3X3X3X3X3X",
"3X3X3X3X3X3X3X3X3X3X3X3X3X3X@ @ A +Xg.N 6 J W Q F.F.l.v.b.l.( F.v.S # Z >X2X2X2X2X1X:X&XM . 6 ) Q ) z.) , . 3X3X3X3X3X3X3X3X3X3X",
"3X3X3X3X3X3X3X3X3X3X3X3X3X3X. @ A &X&Xs.# , J Q F.F.) v.v.b.( v.l.5 e f.<X2X2X2X2X1X-X$X>   H ) H ( z.( @ 3X3X3X3X3X3X3X3X3X3X3X",
"3X3X3X3X3X3X3X3X3X3X3X3X3X3X. . w h.>X-Xf.w < D l.l.) Q ( z.) W 5 + i.%X1X2X2X2X,X>X*Xj.# @ z.b.) l.l.J + 3X3X3X3X3X3X3X3X3X3X3X",
"3X3X3X3X3X3X3X3X3X3X3X3X3X3X3X  O Z >X2X%Xs.# < ) Q Q W l.l.W H . O j.;X2X2X2X1X>X:X$Xp.# 5 F.b.z.z.( S . 3X3X3X3X3X3X3X3X3X3X3X",
"3X3X3X3X3X3X3X3X3X3X3X3X3X3X3X  # : OX;X,X:Xj.B @ @ S J ( ) l.6 w g.>X2X2X1X,X:X-X*Xf.w 6 ) v.( l.l.H , 3X3X3X3X3X3X3X3X3X3X3X3X",
"3X3X3X3X3X3X3X3X3X3X3X3X3X3X3X  + . @.#X<X2X;Xf.O . H Q ) ) z.6 B @X<X1X<X,X;X;X=X@Xw . J v.l.J ( ( 5 + 3X3X3X3X3X3X3X3X3X3X3X3X",
"3X3X3X3X3X3X3X3X3X3X3X3X3X3X3X3X@ S e Z +X%Xj.Z + < v.G.v.b.z.J 3 m d.h.@X$X+Xj.p.M $ S ( _ ^ ` l.Q _ ~ G 8 3X3X3X3X3X3X3X3X3X3X",
"3X3X3X3X3X3X3X3X3X3X3X3X3X3X3X3X, W < # p.d.>   + 5 F.G.l.b.b.W , .   O s.h.p.m     < ) W G } E.I.m.P.J.N.E @ 3X3X3X3X3X3X3X3X3X",
"3X3X3X3X3X3X3X3X3X3X3X3X3X3X3X3X+ 6 Q ( K r < S Q ) F.F.( l.G.G.) H J D 8 R R D H K ` c.F.m.b.P.K.G.z.( ) ) , . 3X3X3X3X3X3X3X3X",
"3X3X3X3X3X3X3X3X3X3X3X3X3X3X3X3X  + Q b.l.S D ) G.L.L.K.l.F././.G.z.b.z.J W ( z.c.x.H.m.F.F.G.G.G.b.Q S J W , . 3X3X3X3X3X3X3X3X",
"3X3X3X3X3X3X3X3X3X3X3X3X3X3X3X3X3X3X< 6 ( z.l.( ) F.K.L.F.z.G.G.) ( W J H l.G.F.Z.U.l.J ~ / W z.( J 5 + @ @ 3X3X3X3X3X3X3X3X3X3X",
"3X3X3X3X3X3X3X3X3X3X3X3X3X3X3X3X3X3X+ , D z.v.W J z.K.K.b.Q v.v.J D H H J ) F.m.T.J.Q G } ^ H ) ) H < + 3X3X3X3X3X3X3X3X3X3X3X3X",
"3X3X3X3X3X3X3X3X3X3X8 6 H S G [ E F / ) W P U 8 H ) b.v.l.( Q z.v.v.v.z.z.l.J H n.b.c.l.l.l.Q W l.z.) ^ < 3X3X3X3X3X3X3X3X3X3X3X",
"3X3X3X3X3X3X3X3X3X+ L ~ l.( ` D.C.[ z.b.) ! s y U ! ) ) l.l.Q ) z.z.) ) l.) D S m.b.F.m.( ! Q H ) z.I.U.G 3X3X3X3X3X3X3X3X3X3X3X",
"3X3X3X3X3X3X3X3X3X3X6 S H P L ( ( W v.z.v.) d ,.6.2.=.v b Y _ l.( W H H ( W S H F.L.b.( z.z.) W S W v.F.x.G 3X3X3X3X3X3X3X3X3X3X",
"3X3X3X3X3X3X3X3X3X3X  + 6 F D J l.Q l.) G.b.x 7.].].0.0.<.:.N.c.Q J H J l.J 5 D F.L.b.W ) ( Q S @ 6 z.G.z.S 3X3X3X3X3X3X3X3X3X3X",
"3X3X3X3X3X3X3X3X+ $ 8 6 K W D S H J Q J / P =.5.7.7.5.,.>.&.o.N.J S S H H J H H z.v.) / z q 6 @ . + S Q D , 3X3X3X3X3X3X3X3X3X3X",
"3X3X3X3X3X3X3X3X+ 7 ~ K S J H D H W J S < 1 %.,.,.>.%.#.g g c +.S < + , , 6 S D ) z.) T *.p     3X  + S 5 @ 3X3X3X3X3X3X3X3X3X3X",
"3X3X3X3X3X3X3X+ S Q H < 5 J l.l.Q D < , @ . & & & & % % % % o $ 5 < S H S J z.Q Q J q l ,.$.3X3X3X3X  + 3X3X3X3X3X3X3X3X3X3X3X3X",
"3X3X3X3X3X3X3X+ H W 5 @ 6 Q z.l.H <         3X3X3X3X3X3X3X3X3X. 7 6 ( l.J ( z.Q ( 6 j ,.4.%.3X3X3X3X3X3X3X3X3X3X3X3X3X3X3X3X3X3X",
"3X3X3X3X3X3X3X3X@ @ + + H Q H S , + 3X3X3X3X3X3X3X3X3X3X3X3X3X3X@ 6 H z.z.( z.l./ P s h h f 3X3X3X3X3X3X3X3X3X3X3X3X3X3X3X3X3X3X",
"3X3X3X3X3X3X3X3X3X3X3X+ H W < + 3X3X3X3X3X3X3X3X3X3X3X3X3X3X3X3X@ 6 D z.v.Q G.K.z.Q = & f f t & X 3X3X3X3X3X3X3X3X3X3X3X3X3X3X3X",
"3X3X3X3X3X3X3X3X3X3X3X3X6 5 3X3X3X3X3X3X3X3X3X3X3X3X3X3X:.:.1.;.$.k I l.v.l.) l.D 9 *.7.].].].[.3.k 3X3X3X3X3X3X3X3X3X3X3X3X3X3X",
"3X3X3X3X3X3X3X3X3X3X3X3X3X3X3X3X3X3X3X3X3X3X3X3X3X3X& p 3.u.oX Xt.q.x ] M.' H D 0 u 7.].{..X.XXXoX1.3X3X3X3X3X3X3X3X3X3X3X3X3X3X",
"3X3X3X3X3X3X3X3X3X3X3X3X3X3X3X3X3X3X3X3X3X3X3X3Xi j e.y.].{.}..X{.{.[.w.9.9.&.*.#.>.0.{.}.}.}.}.|.e.i 3X3X3X3X3X3X3X3X3X3X3X3X3X",
"3X3X3X3X3X3X3X3X3X3X3X3X3X3X3X3X3X3X3X3X3X3X3X3Xi 1.|..X.X}.}..X}.}.{.{.{.{.r.7.>.4.0.].}.}.}.{.{.q.- 3X3X3X3X3X3X3X3X3X3X3X3X3X",
"3X3X3X3X3X3X3X3X3X3X3X3X3X3X3X3X3X3X3X3X3X3X3X% <.[.}..X}.}..X].].r.0.0.0.0.7.,.h >.0.].{.{.{.r.-.o.{ 7 3X3X3X3X3X3X3X3X3X3X3X3X",
"3X3X3X3X3X3X3X3X3X3X3X3X3X3X3X3X3X3X3X3X3X3X3X> [.oX.X.X}..X}.].0.0.7.5.,.,.>.%.a %.7.r.].].q.2.U c.V.F 3X3X3X3X3X3X3X3X3X3X3X3X",
"3X3X3X3X3X3X3X3X3X3X3X3X3X3X3X3X3X3X3X3X3X3X2 G O.b 9.r.].].r.7.%.g a & % & & % . = z o.o...U / Q Q _ F 3X3X3X3X3X3X3X3X3X3X3X3X",
"3X3X3X3X3X3X3X3X3X3X3X3X3X3X3X3X3X3X3X3X3X. F J l.! c 9.0.0.7.,.t X       3X3X3X+ 6 ( l.b.v.( Q Q W z.L + 3X3X3X3X3X3X3X3X3X3X3X",
"3X3X3X3X3X3X3X3X3X3X3X3X3X3X3X3X3X3X3X3X$ 7 n.c.z.v.! T ..z s & 3X3X3X3X3X3X3X3X+ S ( W b.K.F.G.G.F._ / @ 3X3X3X3X3X3X3X3X3X3X3X",
"3X3X3X3X3X3X3X3X3X3X3X3X3X3X3X3X3X3X3X3X, K b.z.K.K.( Q ) Q ,   3X3X3X3X3X3X3X3X+ 6 Q W v.K.K.G.G.F.Q L @ 3X3X3X3X3X3X3X3X3X3X3X",
"3X3X3X3X3X3X3X3X3X3X3X3X3X3X3X3X3X3X@ 4 x.n.( ( v.F.Q ( W 5 .   3X3X3X3X3X3X3X3X3X@ H D Q l.( W v.G.v.W # 3X3X3X3X3X3X3X3X3X3X3X",
"3X3X3X3X3X3X3X3X3X3X3X3X3X3X3X3X3X3X@ G E.G.J J ) z.W ( J ,   3X3X3X3X3X3X3X3X3X3X@ H H J W D D b.L.v.H . 3X3X3X3X3X3X3X3X3X3X3X",
"3X3X3X3X3X3X3X3X3X3X3X3X3X3X3X3X3X. D x.z.( v.F.z.Q W D @ + 3X3X3X3X3X3X3X3X3X3X3X3X, 5 J Q ) l.l.) D , 3X3X3X3X3X3X3X3X3X3X3X3X",
"3X3X3X3X3X3X3X3X3X3X3X3X3X3X3X3X3X+ P ) _ W z.b.( H J 6 . 3X3X3X3X3X3X3X3X3X3X3X3X3X  @ S J Q ) J D 5 @ 3X3X3X3X3X3X3X3X3X3X3X3X",
"3X3X3X3X3X3X3X3X3X3X3X3X3X3X3X3X3X3X@ , 5 S Q J S < @ + 3X3X3X3X3X3X3X3X3X3X3X3X3X3X3X3X@ < W Q D 6 3X3X3X3X3X3X3X3X3X3X3X3X3X3X",
"3X3X3X3X3X3X3X3X3X3X3X3X3X3X3X3X3X3X3X3X3X3X3X3X3X3X3X3X3X3X3X3X3X3X3X3X3X3X3X3X3X3X3X3X3X3X3X3X3X3X3X3X3X3X3X3X3X3X3X3X3X3X3X3X"
};
